<?xml version="1.0" encoding="us-ascii" standalone="no"?><svg xmlns="http://www.w3.org/2000/svg" xmlns:xlink="http://www.w3.org/1999/xlink" contentStyleType="text/css" height="1158px" preserveAspectRatio="none" style="width:2363px;height:1158px;background:#FFFFFF;" version="1.1" viewBox="0 0 2363 1158" width="2363px" zoomAndPan="magnify"><defs/><g><text fill="#000000" font-family="sans-serif" font-size="14" font-weight="bold" lengthAdjust="spacing" textLength="243" x="1053.25" y="24.9659">Arquitectura Interna del Simulador</text><!--cluster entrada--><g id="cluster_entrada"><path d="M1237.5,46.6699 L1375.5,46.6699 A3.75,3.75 0 0 1 1378,49.1699 L1385,71.7378 L1674.5,71.7378 A2.5,2.5 0 0 1 1677,74.2378 L1677,147.1699 A2.5,2.5 0 0 1 1674.5,149.6699 L1237.5,149.6699 A2.5,2.5 0 0 1 1235,147.1699 L1235,49.1699 A2.5,2.5 0 0 1 1237.5,46.6699 " fill="none" style="stroke:#000000;stroke-width:1.5;"/><line style="stroke:#000000;stroke-width:1.5;" x1="1235" x2="1385" y1="71.7378" y2="71.7378"/><text fill="#000000" font-family="sans-serif" font-size="14" font-weight="bold" lengthAdjust="spacing" textLength="137" x="1239" y="63.6358">Entrada del Usuario</text></g><!--cluster init--><g id="cluster_init"><path d="M1382.5,200.6699 L1472.5,200.6699 A3.75,3.75 0 0 1 1475,203.1699 L1482,225.7378 L1688.5,225.7378 A2.5,2.5 0 0 1 1691,228.2378 L1691,478.6699 A2.5,2.5 0 0 1 1688.5,481.1699 L1382.5,481.1699 A2.5,2.5 0 0 1 1380,478.6699 L1380,203.1699 A2.5,2.5 0 0 1 1382.5,200.6699 " fill="none" style="stroke:#000000;stroke-width:1.5;"/><line style="stroke:#000000;stroke-width:1.5;" x1="1380" x2="1482" y1="225.7378" y2="225.7378"/><text fill="#000000" font-family="sans-serif" font-size="14" font-weight="bold" lengthAdjust="spacing" textLength="89" x="1384" y="217.6358">Inicializacion</text></g><!--cluster engine--><g id="cluster_engine"><path d="M154.5,378.1699 L299.5,378.1699 A3.75,3.75 0 0 1 302,380.6699 L309,403.2378 L485.5,403.2378 A2.5,2.5 0 0 1 488,405.7378 L488,810.6699 A2.5,2.5 0 0 1 485.5,813.1699 L154.5,813.1699 A2.5,2.5 0 0 1 152,810.6699 L152,380.6699 A2.5,2.5 0 0 1 154.5,378.1699 " fill="none" style="stroke:#000000;stroke-width:1.5;"/><line style="stroke:#000000;stroke-width:1.5;" x1="152" x2="309" y1="403.2378" y2="403.2378"/><text fill="#000000" font-family="sans-serif" font-size="14" font-weight="bold" lengthAdjust="spacing" textLength="144" x="156" y="395.1358">Motor de Simulacion</text></g><!--cluster schedulers--><g id="cluster_schedulers"><path d="M1109.5,710.1699 L1207.5,710.1699 A3.75,3.75 0 0 1 1210,712.6699 L1217,735.2378 L2153.5,735.2378 A2.5,2.5 0 0 1 2156,737.7378 L2156,810.6699 A2.5,2.5 0 0 1 2153.5,813.1699 L1109.5,813.1699 A2.5,2.5 0 0 1 1107,810.6699 L1107,712.6699 A2.5,2.5 0 0 1 1109.5,710.1699 " fill="none" style="stroke:#000000;stroke-width:1.5;"/><line style="stroke:#000000;stroke-width:1.5;" x1="1107" x2="1217" y1="735.2378" y2="735.2378"/><text fill="#000000" font-family="sans-serif" font-size="14" font-weight="bold" lengthAdjust="spacing" textLength="97" x="1111" y="727.1358">Planificadores</text></g><!--cluster events--><g id="cluster_events"><path d="M514.5,710.1699 L640.5,710.1699 A3.75,3.75 0 0 1 643,712.6699 L650,735.2378 L1080.5,735.2378 A2.5,2.5 0 0 1 1083,737.7378 L1083,810.6699 A2.5,2.5 0 0 1 1080.5,813.1699 L514.5,813.1699 A2.5,2.5 0 0 1 512,810.6699 L512,712.6699 A2.5,2.5 0 0 1 514.5,710.1699 " fill="none" style="stroke:#000000;stroke-width:1.5;"/><line style="stroke:#000000;stroke-width:1.5;" x1="512" x2="650" y1="735.2378" y2="735.2378"/><text fill="#000000" font-family="sans-serif" font-size="14" font-weight="bold" lengthAdjust="spacing" textLength="125" x="516" y="727.1358">Estados y Eventos</text></g><!--cluster output--><g id="cluster_output"><path d="M580.5,904.6699 L622.5,904.6699 A3.75,3.75 0 0 1 625,907.1699 L632,929.7378 L930.5,929.7378 A2.5,2.5 0 0 1 933,932.2378 L933,1149.1699 A2.5,2.5 0 0 1 930.5,1151.6699 L580.5,1151.6699 A2.5,2.5 0 0 1 578,1149.1699 L578,907.1699 A2.5,2.5 0 0 1 580.5,904.6699 " fill="none" style="stroke:#000000;stroke-width:1.5;"/><line style="stroke:#000000;stroke-width:1.5;" x1="578" x2="632" y1="929.7378" y2="929.7378"/><text fill="#000000" font-family="sans-serif" font-size="14" font-weight="bold" lengthAdjust="spacing" textLength="41" x="582" y="921.6358">Salida</text></g><!--entity procesos--><g id="elem_procesos"><rect fill="#F1F1F1" height="49.0679" rx="2.5" ry="2.5" style="stroke:#181818;stroke-width:0.5;" width="99" x="1251.5" y="84.6699"/><rect fill="#F1F1F1" height="10" style="stroke:#181818;stroke-width:0.5;" width="15" x="1330.5" y="89.6699"/><rect fill="#F1F1F1" height="2" style="stroke:#181818;stroke-width:0.5;" width="4" x="1328.5" y="91.6699"/><rect fill="#F1F1F1" height="2" style="stroke:#181818;stroke-width:0.5;" width="4" x="1328.5" y="95.6699"/><text fill="#000000" font-family="sans-serif" font-size="14" lengthAdjust="spacing" textLength="59" x="1266.5" y="119.6358">Procesos</text></g><!--entity config--><g id="elem_config"><rect fill="#F1F1F1" height="49.0679" rx="2.5" ry="2.5" style="stroke:#181818;stroke-width:0.5;" width="156" x="1386" y="84.6699"/><rect fill="#F1F1F1" height="10" style="stroke:#181818;stroke-width:0.5;" width="15" x="1522" y="89.6699"/><rect fill="#F1F1F1" height="2" style="stroke:#181818;stroke-width:0.5;" width="4" x="1520" y="91.6699"/><rect fill="#F1F1F1" height="2" style="stroke:#181818;stroke-width:0.5;" width="4" x="1520" y="95.6699"/><text fill="#000000" font-family="sans-serif" font-size="14" lengthAdjust="spacing" textLength="116" x="1401" y="119.6358">SimulationConfig</text></g><!--entity costos--><g id="elem_costos"><rect fill="#F1F1F1" height="49.0679" rx="2.5" ry="2.5" style="stroke:#181818;stroke-width:0.5;" width="84" x="1577" y="84.6699"/><rect fill="#F1F1F1" height="10" style="stroke:#181818;stroke-width:0.5;" width="15" x="1641" y="89.6699"/><rect fill="#F1F1F1" height="2" style="stroke:#181818;stroke-width:0.5;" width="4" x="1639" y="91.6699"/><rect fill="#F1F1F1" height="2" style="stroke:#181818;stroke-width:0.5;" width="4" x="1639" y="95.6699"/><text fill="#000000" font-family="sans-serif" font-size="14" lengthAdjust="spacing" textLength="44" x="1592" y="119.6358">Costos</text></g><!--entity runSim--><g id="elem_runSim"><rect fill="#F1F1F1" height="49.0679" rx="2.5" ry="2.5" style="stroke:#181818;stroke-width:0.5;" width="136" x="1396" y="238.6699"/><rect fill="#F1F1F1" height="10" style="stroke:#181818;stroke-width:0.5;" width="15" x="1512" y="243.6699"/><rect fill="#F1F1F1" height="2" style="stroke:#181818;stroke-width:0.5;" width="4" x="1510" y="245.6699"/><rect fill="#F1F1F1" height="2" style="stroke:#181818;stroke-width:0.5;" width="4" x="1510" y="249.6699"/><text fill="#000000" font-family="sans-serif" font-size="14" lengthAdjust="spacing" textLength="96" x="1411" y="273.6358">runSimulation</text></g><!--entity getRunner--><g id="elem_getRunner"><rect fill="#F1F1F1" height="49.0679" rx="2.5" ry="2.5" style="stroke:#181818;stroke-width:0.5;" width="112" x="1396" y="416.1699"/><rect fill="#F1F1F1" height="10" style="stroke:#181818;stroke-width:0.5;" width="15" x="1488" y="421.1699"/><rect fill="#F1F1F1" height="2" style="stroke:#181818;stroke-width:0.5;" width="4" x="1486" y="423.1699"/><rect fill="#F1F1F1" height="2" style="stroke:#181818;stroke-width:0.5;" width="4" x="1486" y="427.1699"/><text fill="#000000" font-family="sans-serif" font-size="14" lengthAdjust="spacing" textLength="72" x="1411" y="451.1358">getRunner</text></g><!--entity costosUI--><g id="elem_costosUI"><rect fill="#F1F1F1" height="49.0679" rx="2.5" ry="2.5" style="stroke:#181818;stroke-width:0.5;" width="131" x="1543.5" y="416.1699"/><rect fill="#F1F1F1" height="10" style="stroke:#181818;stroke-width:0.5;" width="15" x="1654.5" y="421.1699"/><rect fill="#F1F1F1" height="2" style="stroke:#181818;stroke-width:0.5;" width="4" x="1652.5" y="423.1699"/><rect fill="#F1F1F1" height="2" style="stroke:#181818;stroke-width:0.5;" width="4" x="1652.5" y="427.1699"/><text fill="#000000" font-family="sans-serif" font-size="14" lengthAdjust="spacing" textLength="91" x="1558.5" y="451.1358">costosFromUI</text></g><!--entity eq--><g id="elem_eq"><rect fill="#F1F1F1" height="49.0679" rx="2.5" ry="2.5" style="stroke:#181818;stroke-width:0.5;" width="122" x="258" y="416.1699"/><rect fill="#F1F1F1" height="10" style="stroke:#181818;stroke-width:0.5;" width="15" x="360" y="421.1699"/><rect fill="#F1F1F1" height="2" style="stroke:#181818;stroke-width:0.5;" width="4" x="358" y="423.1699"/><rect fill="#F1F1F1" height="2" style="stroke:#181818;stroke-width:0.5;" width="4" x="358" y="427.1699"/><text fill="#000000" font-family="sans-serif" font-size="14" lengthAdjust="spacing" textLength="82" x="273" y="451.1358">EventQueue</text></g><!--entity loop--><g id="elem_loop"><rect fill="#F1F1F1" height="49.0679" rx="2.5" ry="2.5" style="stroke:#181818;stroke-width:0.5;" width="123" x="348.5" y="577.6699"/><rect fill="#F1F1F1" height="10" style="stroke:#181818;stroke-width:0.5;" width="15" x="451.5" y="582.6699"/><rect fill="#F1F1F1" height="2" style="stroke:#181818;stroke-width:0.5;" width="4" x="449.5" y="584.6699"/><rect fill="#F1F1F1" height="2" style="stroke:#181818;stroke-width:0.5;" width="4" x="449.5" y="588.6699"/><text fill="#000000" font-family="sans-serif" font-size="14" lengthAdjust="spacing" textLength="83" x="363.5" y="612.6358">Engine Loop</text></g><!--entity cpu--><g id="elem_cpu"><rect fill="#F1F1F1" height="49.0679" rx="2.5" ry="2.5" style="stroke:#181818;stroke-width:0.5;" width="105" x="168.5" y="748.1699"/><rect fill="#F1F1F1" height="10" style="stroke:#181818;stroke-width:0.5;" width="15" x="253.5" y="753.1699"/><rect fill="#F1F1F1" height="2" style="stroke:#181818;stroke-width:0.5;" width="4" x="251.5" y="755.1699"/><rect fill="#F1F1F1" height="2" style="stroke:#181818;stroke-width:0.5;" width="4" x="251.5" y="759.1699"/><text fill="#000000" font-family="sans-serif" font-size="14" lengthAdjust="spacing" textLength="65" x="183.5" y="783.1358">CPU State</text></g><!--entity runtime--><g id="elem_runtime"><rect fill="#F1F1F1" height="49.0679" rx="2.5" ry="2.5" style="stroke:#181818;stroke-width:0.5;" width="131" x="308.5" y="748.1699"/><rect fill="#F1F1F1" height="10" style="stroke:#181818;stroke-width:0.5;" width="15" x="419.5" y="753.1699"/><rect fill="#F1F1F1" height="2" style="stroke:#181818;stroke-width:0.5;" width="4" x="417.5" y="755.1699"/><rect fill="#F1F1F1" height="2" style="stroke:#181818;stroke-width:0.5;" width="4" x="417.5" y="759.1699"/><text fill="#000000" font-family="sans-serif" font-size="14" lengthAdjust="spacing" textLength="91" x="323.5" y="783.1358">Runtime Map</text></g><!--entity base--><g id="elem_base"><rect fill="#F1F1F1" height="49.0679" rx="2.5" ry="2.5" style="stroke:#181818;stroke-width:0.5;" width="140" x="1123" y="748.1699"/><rect fill="#F1F1F1" height="10" style="stroke:#181818;stroke-width:0.5;" width="15" x="1243" y="753.1699"/><rect fill="#F1F1F1" height="2" style="stroke:#181818;stroke-width:0.5;" width="4" x="1241" y="755.1699"/><rect fill="#F1F1F1" height="2" style="stroke:#181818;stroke-width:0.5;" width="4" x="1241" y="759.1699"/><text fill="#000000" font-family="sans-serif" font-size="14" lengthAdjust="spacing" textLength="100" x="1138" y="783.1358">BaseScheduler</text></g><!--entity fcfs--><g id="elem_fcfs"><rect fill="#F1F1F1" height="49.0679" rx="2.5" ry="2.5" style="stroke:#181818;stroke-width:0.5;" width="139" x="1298.5" y="748.1699"/><rect fill="#F1F1F1" height="10" style="stroke:#181818;stroke-width:0.5;" width="15" x="1417.5" y="753.1699"/><rect fill="#F1F1F1" height="2" style="stroke:#181818;stroke-width:0.5;" width="4" x="1415.5" y="755.1699"/><rect fill="#F1F1F1" height="2" style="stroke:#181818;stroke-width:0.5;" width="4" x="1415.5" y="759.1699"/><text fill="#000000" font-family="sans-serif" font-size="14" lengthAdjust="spacing" textLength="99" x="1313.5" y="783.1358">SchedulerFCFS</text></g><!--entity rr--><g id="elem_rr"><rect fill="#F1F1F1" height="49.0679" rx="2.5" ry="2.5" style="stroke:#181818;stroke-width:0.5;" width="126" x="1473" y="748.1699"/><rect fill="#F1F1F1" height="10" style="stroke:#181818;stroke-width:0.5;" width="15" x="1579" y="753.1699"/><rect fill="#F1F1F1" height="2" style="stroke:#181818;stroke-width:0.5;" width="4" x="1577" y="755.1699"/><rect fill="#F1F1F1" height="2" style="stroke:#181818;stroke-width:0.5;" width="4" x="1577" y="759.1699"/><text fill="#000000" font-family="sans-serif" font-size="14" lengthAdjust="spacing" textLength="86" x="1488" y="783.1358">SchedulerRR</text></g><!--entity spn--><g id="elem_spn"><rect fill="#F1F1F1" height="49.0679" rx="2.5" ry="2.5" style="stroke:#181818;stroke-width:0.5;" width="135" x="1634.5" y="748.1699"/><rect fill="#F1F1F1" height="10" style="stroke:#181818;stroke-width:0.5;" width="15" x="1749.5" y="753.1699"/><rect fill="#F1F1F1" height="2" style="stroke:#181818;stroke-width:0.5;" width="4" x="1747.5" y="755.1699"/><rect fill="#F1F1F1" height="2" style="stroke:#181818;stroke-width:0.5;" width="4" x="1747.5" y="759.1699"/><text fill="#000000" font-family="sans-serif" font-size="14" lengthAdjust="spacing" textLength="95" x="1649.5" y="783.1358">SchedulerSPN</text></g><!--entity srtn--><g id="elem_srtn"><rect fill="#F1F1F1" height="49.0679" rx="2.5" ry="2.5" style="stroke:#181818;stroke-width:0.5;" width="144" x="1805" y="748.1699"/><rect fill="#F1F1F1" height="10" style="stroke:#181818;stroke-width:0.5;" width="15" x="1929" y="753.1699"/><rect fill="#F1F1F1" height="2" style="stroke:#181818;stroke-width:0.5;" width="4" x="1927" y="755.1699"/><rect fill="#F1F1F1" height="2" style="stroke:#181818;stroke-width:0.5;" width="4" x="1927" y="759.1699"/><text fill="#000000" font-family="sans-serif" font-size="14" lengthAdjust="spacing" textLength="104" x="1820" y="783.1358">SchedulerSRTN</text></g><!--entity priority--><g id="elem_priority"><rect fill="#F1F1F1" height="49.0679" rx="2.5" ry="2.5" style="stroke:#181818;stroke-width:0.5;" width="156" x="1984" y="748.1699"/><rect fill="#F1F1F1" height="10" style="stroke:#181818;stroke-width:0.5;" width="15" x="2120" y="753.1699"/><rect fill="#F1F1F1" height="2" style="stroke:#181818;stroke-width:0.5;" width="4" x="2118" y="755.1699"/><rect fill="#F1F1F1" height="2" style="stroke:#181818;stroke-width:0.5;" width="4" x="2118" y="759.1699"/><text fill="#000000" font-family="sans-serif" font-size="14" lengthAdjust="spacing" textLength="116" x="1999" y="783.1358">SchedulerPriority</text></g><!--entity eventType--><g id="elem_eventType"><rect fill="#F1F1F1" height="49.0679" rx="2.5" ry="2.5" style="stroke:#181818;stroke-width:0.5;" width="109" x="957.5" y="748.1699"/><rect fill="#F1F1F1" height="10" style="stroke:#181818;stroke-width:0.5;" width="15" x="1046.5" y="753.1699"/><rect fill="#F1F1F1" height="2" style="stroke:#181818;stroke-width:0.5;" width="4" x="1044.5" y="755.1699"/><rect fill="#F1F1F1" height="2" style="stroke:#181818;stroke-width:0.5;" width="4" x="1044.5" y="759.1699"/><text fill="#000000" font-family="sans-serif" font-size="14" lengthAdjust="spacing" textLength="69" x="972.5" y="783.1358">EventType</text></g><!--entity simEvent--><g id="elem_simEvent"><rect fill="#F1F1F1" height="49.0679" rx="2.5" ry="2.5" style="stroke:#181818;stroke-width:0.5;" width="102" x="820" y="748.1699"/><rect fill="#F1F1F1" height="10" style="stroke:#181818;stroke-width:0.5;" width="15" x="902" y="753.1699"/><rect fill="#F1F1F1" height="2" style="stroke:#181818;stroke-width:0.5;" width="4" x="900" y="755.1699"/><rect fill="#F1F1F1" height="2" style="stroke:#181818;stroke-width:0.5;" width="4" x="900" y="759.1699"/><text fill="#000000" font-family="sans-serif" font-size="14" lengthAdjust="spacing" textLength="62" x="835" y="783.1358">SimEvent</text></g><!--entity traceEvent--><g id="elem_traceEvent"><rect fill="#F1F1F1" height="49.0679" rx="2.5" ry="2.5" style="stroke:#181818;stroke-width:0.5;" width="114" x="528" y="748.1699"/><rect fill="#F1F1F1" height="10" style="stroke:#181818;stroke-width:0.5;" width="15" x="622" y="753.1699"/><rect fill="#F1F1F1" height="2" style="stroke:#181818;stroke-width:0.5;" width="4" x="620" y="755.1699"/><rect fill="#F1F1F1" height="2" style="stroke:#181818;stroke-width:0.5;" width="4" x="620" y="759.1699"/><text fill="#000000" font-family="sans-serif" font-size="14" lengthAdjust="spacing" textLength="74" x="543" y="783.1358">TraceEvent</text></g><!--entity traceSlice--><g id="elem_traceSlice"><rect fill="#F1F1F1" height="49.0679" rx="2.5" ry="2.5" style="stroke:#181818;stroke-width:0.5;" width="108" x="677" y="748.1699"/><rect fill="#F1F1F1" height="10" style="stroke:#181818;stroke-width:0.5;" width="15" x="765" y="753.1699"/><rect fill="#F1F1F1" height="2" style="stroke:#181818;stroke-width:0.5;" width="4" x="763" y="755.1699"/><rect fill="#F1F1F1" height="2" style="stroke:#181818;stroke-width:0.5;" width="4" x="763" y="759.1699"/><text fill="#000000" font-family="sans-serif" font-size="14" lengthAdjust="spacing" textLength="68" x="692" y="783.1358">TraceSlice</text></g><!--entity trace--><g id="elem_trace"><rect fill="#F1F1F1" height="49.0679" rx="2.5" ry="2.5" style="stroke:#181818;stroke-width:0.5;" width="77" x="672.5" y="942.6699"/><rect fill="#F1F1F1" height="10" style="stroke:#181818;stroke-width:0.5;" width="15" x="729.5" y="947.6699"/><rect fill="#F1F1F1" height="2" style="stroke:#181818;stroke-width:0.5;" width="4" x="727.5" y="949.6699"/><rect fill="#F1F1F1" height="2" style="stroke:#181818;stroke-width:0.5;" width="4" x="727.5" y="953.6699"/><text fill="#000000" font-family="sans-serif" font-size="14" lengthAdjust="spacing" textLength="37" x="687.5" y="977.6358">Trace</text></g><!--entity gantt--><g id="elem_gantt"><rect fill="#F1F1F1" height="49.0679" rx="2.5" ry="2.5" style="stroke:#181818;stroke-width:0.5;" width="119" x="594.5" y="1086.6699"/><rect fill="#F1F1F1" height="10" style="stroke:#181818;stroke-width:0.5;" width="15" x="693.5" y="1091.6699"/><rect fill="#F1F1F1" height="2" style="stroke:#181818;stroke-width:0.5;" width="4" x="691.5" y="1093.6699"/><rect fill="#F1F1F1" height="2" style="stroke:#181818;stroke-width:0.5;" width="4" x="691.5" y="1097.6699"/><text fill="#000000" font-family="sans-serif" font-size="14" lengthAdjust="spacing" textLength="79" x="609.5" y="1121.6358">GanttModel</text></g><!--entity metrics--><g id="elem_metrics"><rect fill="#F1F1F1" height="49.0679" rx="2.5" ry="2.5" style="stroke:#181818;stroke-width:0.5;" width="141" x="748.5" y="1086.6699"/><rect fill="#F1F1F1" height="10" style="stroke:#181818;stroke-width:0.5;" width="15" x="869.5" y="1091.6699"/><rect fill="#F1F1F1" height="2" style="stroke:#181818;stroke-width:0.5;" width="4" x="867.5" y="1093.6699"/><rect fill="#F1F1F1" height="2" style="stroke:#181818;stroke-width:0.5;" width="4" x="867.5" y="1097.6699"/><text fill="#000000" font-family="sans-serif" font-size="14" lengthAdjust="spacing" textLength="101" x="763.5" y="1121.6358">ProcessMetrics</text></g><g id="elem_GMN55"><path d="M6,222.6699 L6,303.494 A0,0 0 0 0 6,303.494 L154.71,303.494 L291.21,416.1099 L162.71,303.494 L218,303.494 A0,0 0 0 0 218,303.494 L218,232.6699 L208,222.6699 L6,222.6699 A0,0 0 0 0 6,222.6699 " fill="#FEFFDD" style="stroke:#181818;stroke-width:0.5;"/><path d="M208,222.6699 L208,232.6699 L218,232.6699 L208,222.6699 " fill="#FEFFDD" style="stroke:#181818;stroke-width:0.5;"/><text fill="#000000" font-family="sans-serif" font-size="13" lengthAdjust="spacing" textLength="119" x="12" y="241.5669">Event Priority Order</text><text fill="#000000" font-family="sans-serif" font-size="13" lengthAdjust="spacing" textLength="121" x="12" y="259.2729">1:C-&gt;T, 2:C-&gt;B, 3:C-&gt;L</text><text fill="#000000" font-family="sans-serif" font-size="13" lengthAdjust="spacing" textLength="122" x="12" y="276.9789">4:B-&gt;L, 5:N-&gt;L, 6:L-&gt;C</text><text fill="#000000" font-family="sans-serif" font-size="13" lengthAdjust="spacing" textLength="191" x="12" y="294.685">Heap Order: (t ASC, priority ASC)</text></g><g id="elem_GMN58"><path d="M504.5,382.6699 L504.5,498.906 L701.5,498.906 L701.5,392.6699 L691.5,382.6699 L504.5,382.6699 " fill="#FEFFDD" style="stroke:#181818;stroke-width:0.5;"/><path d="M691.5,382.6699 L691.5,392.6699 L701.5,392.6699 L691.5,382.6699 " fill="#FEFFDD" style="stroke:#181818;stroke-width:1.0;"/><text fill="#000000" font-family="sans-serif" font-size="13" lengthAdjust="spacing" textLength="116" x="510.5" y="401.5669">Event Loop Pattern</text><text fill="#000000" font-family="sans-serif" font-size="13" lengthAdjust="spacing" textLength="144" x="510.5" y="419.2729">1. pop() proximo evento</text><text fill="#000000" font-family="sans-serif" font-size="13" lengthAdjust="spacing" textLength="140" x="510.5" y="436.9789">2. actualizar currentTick</text><text fill="#000000" font-family="sans-serif" font-size="13" lengthAdjust="spacing" textLength="127" x="510.5" y="454.685">3. procesar transicion</text><text fill="#000000" font-family="sans-serif" font-size="13" lengthAdjust="spacing" textLength="120" x="510.5" y="472.391">4. actualizar estados</text><text fill="#000000" font-family="sans-serif" font-size="13" lengthAdjust="spacing" textLength="176" x="510.5" y="490.097">5. programar eventos futuros</text></g><g id="elem_GMN61"><path d="M2175.5,705.6699 L2175.5,839.612 L2356.5,839.612 L2356.5,715.6699 L2346.5,705.6699 L2175.5,705.6699 " fill="#FEFFDD" style="stroke:#181818;stroke-width:0.5;"/><path d="M2346.5,705.6699 L2346.5,715.6699 L2356.5,715.6699 L2346.5,705.6699 " fill="#FEFFDD" style="stroke:#181818;stroke-width:1.0;"/><text fill="#000000" font-family="sans-serif" font-size="13" lengthAdjust="spacing" textLength="115" x="2181.5" y="724.5669">Scheduler Interface</text><text fill="#000000" font-family="sans-serif" font-size="13" lengthAdjust="spacing" textLength="132" x="2181.5" y="742.2729">&#8226; onAdmit(pid) -&gt; N-&gt;L</text><text fill="#000000" font-family="sans-serif" font-size="13" lengthAdjust="spacing" textLength="131" x="2181.5" y="759.9789">&#8226; onReady(pid) -&gt; B-&gt;L</text><text fill="#000000" font-family="sans-serif" font-size="13" lengthAdjust="spacing" textLength="127" x="2181.5" y="777.685">&#8226; onBlock(pid) -&gt; C-&gt;B</text><text fill="#000000" font-family="sans-serif" font-size="13" lengthAdjust="spacing" textLength="129" x="2181.5" y="795.391">&#8226; onFinish(pid) -&gt; C-&gt;T</text><text fill="#000000" font-family="sans-serif" font-size="13" lengthAdjust="spacing" textLength="147" x="2181.5" y="813.097">&#8226; next() -&gt; elegir proximo</text><text fill="#000000" font-family="sans-serif" font-size="13" lengthAdjust="spacing" textLength="160" x="2181.5" y="830.803">&#8226; compareForPreemption()</text></g><g id="elem_GMN64"><path d="M328.5,926.6699 L328.5,1007.494 A0,0 0 0 0 328.5,1007.494 L509.5,1007.494 A0,0 0 0 0 509.5,1007.494 L509.5,936.6699 L499.5,926.6699 L413.76,926.6699 L379.52,797.2699 L405.76,926.6699 L328.5,926.6699 A0,0 0 0 0 328.5,926.6699 " fill="#FEFFDD" style="stroke:#181818;stroke-width:0.5;"/><path d="M499.5,926.6699 L499.5,936.6699 L509.5,936.6699 L499.5,926.6699 " fill="#FEFFDD" style="stroke:#181818;stroke-width:0.5;"/><text fill="#000000" font-family="sans-serif" font-size="13" lengthAdjust="spacing" textLength="85" x="334.5" y="945.5669">Runtime State</text><text fill="#000000" font-family="sans-serif" font-size="13" lengthAdjust="spacing" textLength="147" x="334.5" y="963.2729">&#8226; idxRafaga: indice actual</text><text fill="#000000" font-family="sans-serif" font-size="13" lengthAdjust="spacing" textLength="160" x="334.5" y="980.9789">&#8226; restante: tiempo restante</text><text fill="#000000" font-family="sans-serif" font-size="13" lengthAdjust="spacing" textLength="124" x="334.5" y="998.685">&#8226; estado por proceso</text></g><g id="elem_GMN67"><path d="M58.5,926.6699 L58.5,1007.494 A0,0 0 0 0 58.5,1007.494 L293.5,1007.494 A0,0 0 0 0 293.5,1007.494 L293.5,936.6699 L283.5,926.6699 L189.24,926.6699 L215.48,797.2699 L181.24,926.6699 L58.5,926.6699 A0,0 0 0 0 58.5,926.6699 " fill="#FEFFDD" style="stroke:#181818;stroke-width:0.5;"/><path d="M283.5,926.6699 L283.5,936.6699 L293.5,936.6699 L283.5,926.6699 " fill="#FEFFDD" style="stroke:#181818;stroke-width:0.5;"/><text fill="#000000" font-family="sans-serif" font-size="13" lengthAdjust="spacing" textLength="60" x="64.5" y="945.5669">CPU State</text><text fill="#000000" font-family="sans-serif" font-size="13" lengthAdjust="spacing" textLength="120" x="64.5" y="963.2729">&#8226; pid: proceso actual</text><text fill="#000000" font-family="sans-serif" font-size="13" lengthAdjust="spacing" textLength="148" x="64.5" y="980.9789">&#8226; sliceStart: inicio del slice</text><text fill="#000000" font-family="sans-serif" font-size="13" lengthAdjust="spacing" textLength="214" x="64.5" y="998.685">&#8226; control de overhead (TIP/TCP/TFP)</text></g><!--link procesos to runSim--><g id="link_procesos_runSim"><path d="M1305.12,133.8099 C1308.88,149.6399 1315.77,170.1499 1328,184.6699 C1347.79,208.1499 1371.2115,223.3815 1397.2315,236.0015 " fill="none" id="procesos-to-runSim" style="stroke:#181818;stroke-width:1.0;"/><polygon fill="#181818" points="1402.63,238.6199,1396.2778,231.0933,1398.1312,236.4379,1392.7866,238.2914,1402.63,238.6199" style="stroke:#181818;stroke-width:1.0;"/><text fill="#000000" font-family="sans-serif" font-size="13" lengthAdjust="spacing" textLength="122" x="1329" y="180.5669">Procesos de entrada</text></g><!--link config to runSim--><g id="link_config_runSim"><path d="M1462.43,133.9299 C1461.86,143.7499 1461.28,155.2499 1461,165.6699 C1460.33,190.4699 1461.1179,212.8586 1462.1679,232.3886 " fill="none" id="config-to-runSim" style="stroke:#181818;stroke-width:1.0;"/><polygon fill="#181818" points="1462.49,238.3799,1466.0011,229.1781,1462.2216,233.3871,1458.0126,229.6076,1462.49,238.3799" style="stroke:#181818;stroke-width:1.0;"/><text fill="#000000" font-family="sans-serif" font-size="13" lengthAdjust="spacing" textLength="114" x="1462" y="180.5669">Politica + Quantum</text></g><!--link costos to runSim--><g id="link_costos_runSim"><path d="M1610.59,133.8799 C1604.2,149.5399 1594.25,169.8299 1581,184.6699 C1561.37,206.6599 1539.3569,222.1812 1516.1169,235.5912 " fill="none" id="costos-to-runSim" style="stroke:#181818;stroke-width:1.0;"/><polygon fill="#181818" points="1510.92,238.5899,1520.7145,237.5564,1515.2507,236.091,1516.7162,230.6272,1510.92,238.5899" style="stroke:#181818;stroke-width:1.0;"/><text fill="#000000" font-family="sans-serif" font-size="13" lengthAdjust="spacing" textLength="146" x="1595" y="180.5669">TIP, TCP, TFP, bloqueoES</text></g><!--link runSim to getRunner--><g id="link_runSim_getRunner"><path d="M1462.38,287.8399 C1460.08,321.4299 1456.3087,376.5738 1454.0187,410.1138 " fill="none" id="runSim-to-getRunner" style="stroke:#181818;stroke-width:1.0;"/><polygon fill="#181818" points="1453.61,416.0999,1458.2138,407.3933,1453.9506,411.1115,1450.2324,406.8483,1453.61,416.0999" style="stroke:#181818;stroke-width:1.0;"/><text fill="#000000" font-family="sans-serif" font-size="13" lengthAdjust="spacing" textLength="64" x="1460" y="348.5669">cfg.politica</text></g><!--link runSim to costosUI--><g id="link_runSim_costosUI"><path d="M1489.26,287.7099 C1502.77,300.7599 1519.39,317.5699 1533,333.6699 C1555.81,360.6399 1575.7134,389.1166 1590.3834,411.1366 " fill="none" id="runSim-to-costosUI" style="stroke:#181818;stroke-width:1.0;"/><polygon fill="#181818" points="1593.71,416.1299,1592.049,406.4221,1590.9378,411.9688,1585.3912,410.8576,1593.71,416.1299" style="stroke:#181818;stroke-width:1.0;"/><text fill="#000000" font-family="sans-serif" font-size="13" lengthAdjust="spacing" textLength="60" x="1547" y="348.5669">cfg.costos</text></g><!--link getRunner to fcfs--><g id="link_getRunner_fcfs"><path d="M1445.96,465.3999 C1430.46,526.2899 1390.8993,681.6851 1375.4693,742.3351 " fill="none" id="getRunner-to-fcfs" style="stroke:#181818;stroke-width:1.0;"/><polygon fill="#181818" points="1373.99,748.1499,1380.0855,740.414,1375.2228,743.3043,1372.3325,738.4415,1373.99,748.1499" style="stroke:#181818;stroke-width:1.0;"/><text fill="#000000" font-family="sans-serif" font-size="13" lengthAdjust="spacing" textLength="29" x="1417" y="607.5669">FCFS</text></g><!--link getRunner to rr--><g id="link_getRunner_rr"><path d="M1458.04,465.3999 C1473.54,526.2899 1513.1007,681.6851 1528.5307,742.3351 " fill="none" id="getRunner-to-rr" style="stroke:#181818;stroke-width:1.0;"/><polygon fill="#181818" points="1530.01,748.1499,1531.6675,738.4415,1528.7772,743.3043,1523.9145,740.414,1530.01,748.1499" style="stroke:#181818;stroke-width:1.0;"/><text fill="#000000" font-family="sans-serif" font-size="13" lengthAdjust="spacing" textLength="16" x="1499" y="607.5669">RR</text></g><!--link getRunner to spn--><g id="link_getRunner_spn"><path d="M1469.98,465.3999 C1516.11,526.2899 1634.6172,682.7171 1680.5572,743.3671 " fill="none" id="getRunner-to-spn" style="stroke:#181818;stroke-width:1.0;"/><polygon fill="#181818" points="1684.18,748.1499,1681.9343,738.5605,1681.161,744.1642,1675.5573,743.3909,1684.18,748.1499" style="stroke:#181818;stroke-width:1.0;"/><text fill="#000000" font-family="sans-serif" font-size="13" lengthAdjust="spacing" textLength="25" x="1590" y="607.5669">SPN</text></g><!--link getRunner to srtn--><g id="link_getRunner_srtn"><path d="M1482.56,465.3999 C1560.98,526.2899 1763.8609,683.8201 1841.9709,744.4701 " fill="none" id="getRunner-to-srtn" style="stroke:#181818;stroke-width:1.0;"/><polygon fill="#181818" points="1846.71,748.1499,1842.0545,739.4708,1842.7607,745.0834,1837.1481,745.7896,1846.71,748.1499" style="stroke:#181818;stroke-width:1.0;"/><text fill="#000000" font-family="sans-serif" font-size="13" lengthAdjust="spacing" textLength="32" x="1686" y="607.5669">SRTN</text></g><!--link getRunner to priority--><g id="link_getRunner_priority"><path d="M1478.78,465.3299 C1492.29,476.4599 1509.32,489.2999 1526,498.6699 C1558.38,516.8599 1569.41,515.1299 1604,528.6699 C1770.51,593.8499 1815.03,607.9299 1967,702.1699 C1989.58,716.1699 2008.9596,730.2177 2027.2596,744.2577 " fill="none" id="getRunner-to-priority" style="stroke:#181818;stroke-width:1.0;"/><polygon fill="#181818" points="2032.02,747.9099,2027.3142,739.258,2028.053,744.8664,2022.4446,745.6051,2032.02,747.9099" style="stroke:#181818;stroke-width:1.0;"/><text fill="#000000" font-family="sans-serif" font-size="13" lengthAdjust="spacing" textLength="56" x="1836" y="607.5669">PRIORITY</text></g><!--link runSim to eq--><g id="link_runSim_eq"><path d="M1395.9,264.9499 C1235.14,268.2199 820.5,284.9599 487,370.1699 C444.64,380.9899 404.3766,397.8902 371.3466,413.4702 " fill="none" id="runSim-to-eq" style="stroke:#181818;stroke-width:1.0;"/><polygon fill="#181818" points="365.92,416.0299,375.7664,415.8081,370.4422,413.8968,372.3534,408.5726,365.92,416.0299" style="stroke:#181818;stroke-width:1.0;"/><text fill="#000000" font-family="sans-serif" font-size="13" lengthAdjust="spacing" textLength="110" x="644" y="348.5669">new EventQueue()</text></g><!--link runSim to runtime--><g id="link_runSim_runtime"><path d="M1395.6,264.9299 C1149.7,268.3299 320.85,285.9999 241,370.1699 C147.39,468.8399 146.25,563.3799 223,675.6699 C241.3,702.4499 263.09,685.6499 291,702.1699 C312.67,714.9999 330.0042,729.3561 345.7842,744.0161 " fill="none" id="runSim-to-runtime" style="stroke:#181818;stroke-width:1.0;"/><polygon fill="#181818" points="350.18,748.0999,346.3089,739.0437,346.5169,744.6968,340.8638,744.9047,350.18,748.0999" style="stroke:#181818;stroke-width:1.0;"/><text fill="#000000" font-family="sans-serif" font-size="13" lengthAdjust="spacing" textLength="117" x="169" y="543.5669">Map&lt;pid, Runtime&gt;</text></g><!--link runSim to cpu--><g id="link_runSim_cpu"><path d="M1395.88,265.6199 C1175.68,270.7099 484.7,289.8499 266,333.6699 C217.97,343.2899 201.69,341.4599 162,370.1699 C84.43,426.2699 8.09,457.4199 40,547.6699 C70.41,633.6999 144.9199,706.9757 187.7999,744.2157 " fill="none" id="runSim-to-cpu" style="stroke:#181818;stroke-width:1.0;"/><polygon fill="#181818" points="192.33,748.1499,188.1577,739.2285,188.5549,744.8714,182.912,745.2686,192.33,748.1499" style="stroke:#181818;stroke-width:1.0;"/><text fill="#000000" font-family="sans-serif" font-size="13" lengthAdjust="spacing" textLength="117" x="41" y="543.5669">CPUState {pid: null}</text></g><!--link eq to loop--><g id="link_eq_loop"><path d="M332.43,465.1999 C349.63,495.3599 376.3167,542.1284 393.5467,572.3284 " fill="none" id="eq-to-loop" style="stroke:#181818;stroke-width:1.0;"/><polygon fill="#181818" points="396.52,577.5399,395.5344,567.7405,394.0422,573.197,388.5857,571.7049,396.52,577.5399" style="stroke:#181818;stroke-width:1.0;"/><text fill="#000000" font-family="sans-serif" font-size="13" lengthAdjust="spacing" textLength="151" x="378" y="543.5669">pop() eventos ordenados</text></g><!--link loop to eventType--><g id="link_loop_eventType"><path d="M471.92,609.6699 C593.91,623.2899 860.39,657.3099 940,702.1699 C960.74,713.8599 975.9454,728.4276 989.2754,743.6376 " fill="none" id="loop-to-eventType" style="stroke:#181818;stroke-width:1.0;"/><polygon fill="#181818" points="993.23,748.1499,990.3063,738.745,989.9345,744.3896,984.2899,744.0178,993.23,748.1499" style="stroke:#181818;stroke-width:1.0;"/><text fill="#000000" font-family="sans-serif" font-size="13" lengthAdjust="spacing" textLength="103" x="869" y="671.5669">procesar eventos</text></g><!--link loop to base--><g id="link_loop_base"><path d="M471.56,602.4399 C577.46,602.6099 800.18,609.2399 981,656.6699 C1050.26,674.8399 1116.6768,716.5818 1156.4068,744.6018 " fill="none" id="loop-to-base" style="stroke:#181818;stroke-width:1.0;"/><polygon fill="#181818" points="1161.31,748.0599,1156.2605,739.604,1157.224,745.1782,1151.6498,746.1416,1161.31,748.0599" style="stroke:#181818;stroke-width:1.0;"/><text fill="#000000" font-family="sans-serif" font-size="13" lengthAdjust="spacing" textLength="192" x="1031" y="671.5669">onAdmit(), onReady(), onFinish()</text></g><!--link loop to cpu--><g id="link_loop_cpu"><path d="M348.35,607.6299 C312.55,613.5099 269.44,626.8199 243,656.6699 C220.76,681.7799 217.8441,716.2934 218.7241,741.9234 " fill="none" id="loop-to-cpu" style="stroke:#181818;stroke-width:1.0;"/><polygon fill="#181818" points="218.93,747.9199,222.6188,738.7879,218.7584,742.9228,214.6235,739.0625,218.93,747.9199" style="stroke:#181818;stroke-width:1.0;"/><text fill="#000000" font-family="sans-serif" font-size="13" lengthAdjust="spacing" textLength="116" x="244" y="671.5669">asignar/liberar CPU</text></g><!--link loop to runtime--><g id="link_loop_runtime"><path d="M389.64,626.8899 C383.35,635.6699 377.23,646.0699 374,656.6699 C364.74,687.0299 366.2188,718.0884 369.2488,741.7784 " fill="none" id="loop-to-runtime" style="stroke:#181818;stroke-width:1.0;"/><polygon fill="#181818" points="370.01,747.7299,372.8359,738.2951,369.3757,742.7703,364.9005,739.3101,370.01,747.7299" style="stroke:#181818;stroke-width:1.0;"/><text fill="#000000" font-family="sans-serif" font-size="13" lengthAdjust="spacing" textLength="109" x="375" y="671.5669">actualizar tiempos</text></g><!--link loop to traceEvent--><g id="link_loop_traceEvent"><path d="M449.37,626.7099 C462.56,635.3899 476.96,645.7799 489,656.6699 C520.25,684.9299 546.8469,718.6378 564.7669,743.1278 " fill="none" id="loop-to-traceEvent" style="stroke:#181818;stroke-width:1.0;"/><polygon fill="#181818" points="568.31,747.9699,566.2234,738.3446,565.3574,743.9348,559.7672,743.0688,568.31,747.9699" style="stroke:#181818;stroke-width:1.0;"/><text fill="#000000" font-family="sans-serif" font-size="13" lengthAdjust="spacing" textLength="114" x="507" y="671.5669">trace.events.push()</text></g><!--link loop to traceSlice--><g id="link_loop_traceSlice"><path d="M471.68,608.0999 C518.02,614.0899 581.58,627.3599 630,656.6699 C667.96,679.6499 696.0963,716.5682 713.3463,742.9482 " fill="none" id="loop-to-traceSlice" style="stroke:#181818;stroke-width:1.0;"/><polygon fill="#181818" points="716.63,747.9699,715.0522,738.2482,713.8936,743.7852,708.3567,742.6265,716.63,747.9699" style="stroke:#181818;stroke-width:1.0;"/><text fill="#000000" font-family="sans-serif" font-size="13" lengthAdjust="spacing" textLength="105" x="654" y="671.5669">trace.slices.push()</text></g><!--link traceEvent to trace--><g id="link_traceEvent_trace"><path d="M577.31,797.4199 C570.86,821.9499 565.01,860.5299 581,888.6699 C600.4,922.8299 635.8473,941.4529 666.6673,952.7629 " fill="none" id="traceEvent-to-trace" style="stroke:#181818;stroke-width:1.0;"/><polygon fill="#181818" points="672.3,954.8299,665.229,947.9742,667.6061,953.1074,662.4729,955.4845,672.3,954.8299" style="stroke:#181818;stroke-width:1.0;"/><text fill="#000000" font-family="sans-serif" font-size="13" lengthAdjust="spacing" textLength="128" x="582" y="884.5669">eventos de transicion</text></g><!--link traceSlice to trace--><g id="link_traceSlice_trace"><path d="M728.55,797.2699 C724.71,834.2199 717.94,899.342 714.09,936.402 " fill="none" id="traceSlice-to-trace" style="stroke:#181818;stroke-width:1.0;"/><polygon fill="#181818" points="713.47,942.3699,718.3786,933.8314,713.9866,937.3967,710.4214,933.0048,713.47,942.3699" style="stroke:#181818;stroke-width:1.0;"/><text fill="#000000" font-family="sans-serif" font-size="13" lengthAdjust="spacing" textLength="78" x="722" y="884.5669">slices de CPU</text></g><!--link trace to gantt--><g id="link_trace_gantt"><path d="M672.37,988.9699 C654.77,1000.7099 635.72,1017.1699 626,1037.6699 C618.43,1053.6399 622.7199,1067.1872 631.8599,1081.5572 " fill="none" id="trace-to-gantt" style="stroke:#181818;stroke-width:1.0;"/><polygon fill="#181818" points="635.08,1086.6199,633.625,1076.8791,632.3966,1082.401,626.8747,1081.1726,635.08,1086.6199" style="stroke:#181818;stroke-width:1.0;"/><text fill="#000000" font-family="sans-serif" font-size="13" lengthAdjust="spacing" textLength="117" x="627" y="1052.5669">GanttBuilder.build()</text></g><!--link trace to metrics--><g id="link_trace_metrics"><path d="M729.08,991.9399 C749.01,1018.1499 777.2675,1055.3045 797.2275,1081.5445 " fill="none" id="trace-to-metrics" style="stroke:#181818;stroke-width:1.0;"/><polygon fill="#181818" points="800.86,1086.3199,798.5948,1076.7351,797.8329,1082.3404,792.2276,1081.5784,800.86,1086.3199" style="stroke:#181818;stroke-width:1.0;"/><text fill="#000000" font-family="sans-serif" font-size="13" lengthAdjust="spacing" textLength="127" x="778" y="1052.5669">MetricsBuilder.build()</text></g><!--link GMN58 to loop--><g id="link_GMN58_loop"><path d="M576.69,498.8799 C566.54,516.2899 553.57,534.3299 538,547.6699 C518.98,563.9699 494.28,575.8499 471.67,584.2199 " fill="none" id="GMN58-loop" style="stroke:#181818;stroke-width:1.0;stroke-dasharray:7.0,7.0;"/></g><!--link base to GMN61--><g id="link_base_GMN61"><path d="M1208.39,747.7399 C1226.31,721.3499 1258.6,681.2499 1298.5,664.4199 C1384.5,628.1499 2050.89,632.2399 2138.5,664.4199 C2162.62,673.2799 2185.3,688.9499 2204.66,705.6599 " fill="none" id="base-GMN61" style="stroke:#181818;stroke-width:1.0;stroke-dasharray:7.0,7.0;"/></g><!--SRC=[TLPBRYCt4Dtp5CIi94IMCRyiXC209LY907j6qv8NGP05tKsr2RV8DZyJUmO1SfOSRKuoLKNsrzQccsGz5el5zuhqobUINzh7eBpCVR22RxINLWjUo8hlr35KeZ2MiLha3wAK_CsLzbOKqNxhWh3AlE72SPd6lpFEStEiZOOH_jVMcbmwu_v6J9qwGqXSnIkZLqOVL4dGd9f3uCeudppbr6J_zWBRQ9KhKQbl8WTN59FIoey3ia5t2vAlE394bT9dGMjf2T7sXg0OnDgQu-sc5zNjPX3NZV76GhfIDjlWf2wLbkFmhhx2xqkGGP97-JWonqdNnjHahw0nIjBsbk-yy75-NeUX6VRXrL7o6r4tcyV-8E9j9RGwg1nFNZeArkNtiWYLj6uSy58ukMkivF8EHaOdtDZNg_MEC8Vyu4vWiYm6Pa_OTzjF172rFeN8zWbY_IdC5dXhbNzEl8oTGHQkd8S4EFxCwKnCJ8J4jdlrrFRFTJgqflU2vuIBeQNE4BAt8fSToBVTLs2xIkMoWr5ti84TYA4G5BK9lWulf41kEWz3u-z2UtzZGEPH0jXzJThkHdghyYZBOsnJ64dh_Epi8acCBtXJ3b0FgMAmAFKHpbJA0mFvB_nBWAN3aKLn3M7xpNR6zolyhE5pLvd78CtLZh44GNIhNfYG7yfvdNptCOro4oILbsucOf2pO4SEZomMNMVPQ1G82iD0r_4ui18DmDAHfU4X9Y3RVCus-py7Ev6FOD7o7zvLYScq3qXg1XJe-xTQ5JEU17yns6qT00ALWWe5_mv0y1kg2iuDra085XR0rAQUJ2EX8VV65bAZA1YPAQI6wmYcmnMsmNSeB0a0CFgoE2e_cSwWcKbHFCVc6WgrkuUjj1DYXCAfKWjxNgaxQS4lHDn1khqAkBcey5lkbGH-EjR1EWq1aZhpgE5v7OPhTZ9gaGvxBPBrVBKJ0Dka1pWDGzefhF6ivwuFZYuHYxk9eyHI51ZOINVBeAf2slaT_c7b3fOKXYSSMsCeqmQErCEUp06lZnXkK-xuPpX2ozukLcSN-nb_X__bZB_7_pNxi5Z2RyO_BZxH_zV5zTd5YlqXHHqdBlZ4yylTQjPH5NfJ9dN1STtXwdGvnVNnmk9RuV5jmTxE4w-0C4_gQ582sRjv_oZpO2roI-KFxFsy8rSlnHy64sGisEmZWKihZXqL-I70wmQCeqYjAkyznagNLdixn5VG0OlYZ__-RtaBEfboE0JCJZ945ZU6PMTOLYP_Q0sOvcH8PEzPzcJHyWcKWKEoagMoJNR8Y6LNMBasS759e3W-NYOlydvdl3T7t4vphJVNFGcTFAdYAHC7KOe5F8yAP6TC8HajvX2slaX2QWV86XCCPsURbzpf0F3XqJv5Q3OLcJIlloO90c3MOqHuiFIsfE6qTxWeJ8MICL-blOUCymbK_dCe_ETGztjf-0a0]--></g></svg>