<?xml version="1.0" encoding="us-ascii" standalone="no"?><svg xmlns="http://www.w3.org/2000/svg" xmlns:xlink="http://www.w3.org/1999/xlink" contentStyleType="text/css" height="1112px" preserveAspectRatio="none" style="width:2086px;height:1112px;background:#FFFFFF;" version="1.1" viewBox="0 0 2086 1112" width="2086px" zoomAndPan="magnify"><defs/><g><text fill="#000000" font-family="sans-serif" font-size="14" font-weight="bold" lengthAdjust="spacing" textLength="193" x="939.5" y="24.9659">Clases &#8212; M&#233;tricas y An&#225;lisis</text><!--cluster Metrics--><g id="cluster_Metrics"><path d="M8.5,110.0679 L60.5,110.0679 A3.75,3.75 0 0 1 63,112.5679 L70,135.1358 L976.5,135.1358 A2.5,2.5 0 0 1 979,137.6358 L979,1102.5679 A2.5,2.5 0 0 1 976.5,1105.0679 L8.5,1105.0679 A2.5,2.5 0 0 1 6,1102.5679 L6,112.5679 A2.5,2.5 0 0 1 8.5,110.0679 " fill="none" style="stroke:#000000;stroke-width:1.5;"/><line style="stroke:#000000;stroke-width:1.5;" x1="6" x2="70" y1="135.1358" y2="135.1358"/><text fill="#000000" font-family="sans-serif" font-size="14" font-weight="bold" lengthAdjust="spacing" textLength="51" x="10" y="127.0339">Metrics</text></g><!--class MetricsBuilder--><g id="elem_MetricsBuilder"><rect codeLine="4" fill="#F1F1F1" height="162.4075" id="MetricsBuilder" rx="2.5" ry="2.5" style="stroke:#181818;stroke-width:0.5;" width="434" x="529" y="148.0679"/><ellipse cx="692.25" cy="164.0679" fill="#ADD1B2" rx="11" ry="11" style="stroke:#181818;stroke-width:1.0;"/><path d="M695.2188,169.7085 Q694.6406,170.0054 694,170.146 Q693.3594,170.3023 692.6563,170.3023 Q690.1563,170.3023 688.8281,168.6617 Q687.5156,167.0054 687.5156,163.8804 Q687.5156,160.7554 688.8281,159.0992 Q690.1563,157.4429 692.6563,157.4429 Q693.3594,157.4429 694,157.5992 Q694.6563,157.7554 695.2188,158.0523 L695.2188,160.771 Q694.5938,160.1929 694,159.9273 Q693.4063,159.646 692.7813,159.646 Q691.4375,159.646 690.75,160.7242 Q690.0625,161.7867 690.0625,163.8804 Q690.0625,165.9742 690.75,167.0523 Q691.4375,168.1148 692.7813,168.1148 Q693.4063,168.1148 694,167.8492 Q694.5938,167.5679 695.2188,166.9898 L695.2188,169.7085 Z " fill="#000000"/><text fill="#000000" font-family="sans-serif" font-size="14" lengthAdjust="spacing" textLength="99" x="712.75" y="169.4999">MetricsBuilder</text><line style="stroke:#181818;stroke-width:0.5;" x1="530" x2="962" y1="180.0679" y2="180.0679"/><line style="stroke:#181818;stroke-width:0.5;" x1="530" x2="962" y1="188.0679" y2="188.0679"/><ellipse cx="540" cy="203.1019" fill="#84BE84" rx="3" ry="3" style="stroke:#038048;stroke-width:1.0;"/><text fill="#000000" font-family="sans-serif" font-size="14" lengthAdjust="spacing" textLength="241" x="549" y="207.0339">build(trace: Trace): ProcessMetrics[]</text><ellipse cx="540" cy="222.1698" fill="#84BE84" rx="3" ry="3" style="stroke:#038048;stroke-width:1.0;"/><text fill="#000000" font-family="sans-serif" font-size="14" lengthAdjust="spacing" textLength="408" x="549" y="226.1018">buildGlobal(processMetrics: ProcessMetrics[]): GlobalMetrics</text><rect fill="#F24D5C" height="6" style="stroke:#C82930;stroke-width:1.0;" width="6" x="537" y="238.2377"/><text fill="#000000" font-family="sans-serif" font-size="14" lengthAdjust="spacing" textLength="351" x="549" y="245.1697">finUltimaActividad(pid: string, trace: Trace): number</text><rect fill="#F24D5C" height="6" style="stroke:#C82930;stroke-width:1.0;" width="6" x="537" y="257.3056"/><text fill="#000000" font-family="sans-serif" font-size="14" lengthAdjust="spacing" textLength="305" x="549" y="264.2376">servicioCPU(pid: string, trace: Trace): number</text><rect fill="#F24D5C" height="6" style="stroke:#C82930;stroke-width:1.0;" width="6" x="537" y="276.3735"/><text fill="#000000" font-family="sans-serif" font-size="14" lengthAdjust="spacing" textLength="309" x="549" y="283.3055">contarCambiosContexto(trace: Trace): number</text><rect fill="#F24D5C" height="6" style="stroke:#C82930;stroke-width:1.0;" width="6" x="537" y="295.4415"/><text fill="#000000" font-family="sans-serif" font-size="14" lengthAdjust="spacing" textLength="294" x="549" y="302.3734">contarExpropiaciones(trace: Trace): number</text></g><!--class ProcessMetrics--><g id="elem_ProcessMetrics"><rect codeLine="13" fill="#F1F1F1" height="181.4754" id="ProcessMetrics" rx="2.5" ry="2.5" style="stroke:#181818;stroke-width:0.5;" width="471" x="214.5" y="491.0679"/><ellipse cx="395.25" cy="507.0679" fill="#ADD1B2" rx="11" ry="11" style="stroke:#181818;stroke-width:1.0;"/><path d="M398.2188,512.7085 Q397.6406,513.0054 397,513.146 Q396.3594,513.3023 395.6563,513.3023 Q393.1563,513.3023 391.8281,511.6617 Q390.5156,510.0054 390.5156,506.8804 Q390.5156,503.7554 391.8281,502.0992 Q393.1563,500.4429 395.6563,500.4429 Q396.3594,500.4429 397,500.5992 Q397.6563,500.7554 398.2188,501.0523 L398.2188,503.771 Q397.5938,503.1929 397,502.9273 Q396.4063,502.646 395.7813,502.646 Q394.4375,502.646 393.75,503.7242 Q393.0625,504.7867 393.0625,506.8804 Q393.0625,508.9742 393.75,510.0523 Q394.4375,511.1148 395.7813,511.1148 Q396.4063,511.1148 397,510.8492 Q397.5938,510.5679 398.2188,509.9898 L398.2188,512.7085 Z " fill="#000000"/><text fill="#000000" font-family="sans-serif" font-size="14" lengthAdjust="spacing" textLength="101" x="415.75" y="512.4999">ProcessMetrics</text><line style="stroke:#181818;stroke-width:0.5;" x1="215.5" x2="684.5" y1="523.0679" y2="523.0679"/><ellipse cx="225.5" cy="538.1019" fill="none" rx="3" ry="3" style="stroke:#038048;stroke-width:1.0;"/><text fill="#000000" font-family="sans-serif" font-size="14" lengthAdjust="spacing" textLength="70" x="234.5" y="542.0339">pid: string</text><ellipse cx="225.5" cy="557.1698" fill="none" rx="3" ry="3" style="stroke:#038048;stroke-width:1.0;"/><text fill="#000000" font-family="sans-serif" font-size="14" lengthAdjust="spacing" textLength="103" x="234.5" y="561.1018">arribo: number</text><ellipse cx="225.5" cy="576.2377" fill="none" rx="3" ry="3" style="stroke:#038048;stroke-width:1.0;"/><text fill="#000000" font-family="sans-serif" font-size="14" lengthAdjust="spacing" textLength="80" x="234.5" y="580.1697">fin: number</text><ellipse cx="225.5" cy="595.3056" fill="none" rx="3" ry="3" style="stroke:#038048;stroke-width:1.0;"/><text fill="#000000" font-family="sans-serif" font-size="14" lengthAdjust="spacing" textLength="140" x="234.5" y="599.2376">servicioCPU: number</text><ellipse cx="225.5" cy="614.3735" fill="none" rx="3" ry="3" style="stroke:#038048;stroke-width:1.0;"/><text fill="#000000" font-family="sans-serif" font-size="14" lengthAdjust="spacing" textLength="318" x="234.5" y="618.3055">TRp: number // Tiempo Respuesta = fin - arribo</text><ellipse cx="225.5" cy="633.4415" fill="none" rx="3" ry="3" style="stroke:#038048;stroke-width:1.0;"/><text fill="#000000" font-family="sans-serif" font-size="14" lengthAdjust="spacing" textLength="333" x="234.5" y="637.3734">TE: number  // Tiempo Espera = TRp - servicioCPU</text><ellipse cx="225.5" cy="652.5094" fill="none" rx="3" ry="3" style="stroke:#038048;stroke-width:1.0;"/><text fill="#000000" font-family="sans-serif" font-size="14" lengthAdjust="spacing" textLength="445" x="234.5" y="656.4414">TRn: number // Tiempo Respuesta Normalizado = TRp/servicioCPU</text><line style="stroke:#181818;stroke-width:0.5;" x1="215.5" x2="684.5" y1="664.5433" y2="664.5433"/></g><!--class GlobalMetrics--><g id="elem_GlobalMetrics"><rect codeLine="23" fill="#F1F1F1" height="181.4754" id="GlobalMetrics" rx="2.5" ry="2.5" style="stroke:#181818;stroke-width:0.5;" width="242" x="721" y="491.0679"/><ellipse cx="791.25" cy="507.0679" fill="#ADD1B2" rx="11" ry="11" style="stroke:#181818;stroke-width:1.0;"/><path d="M794.2188,512.7085 Q793.6406,513.0054 793,513.146 Q792.3594,513.3023 791.6563,513.3023 Q789.1563,513.3023 787.8281,511.6617 Q786.5156,510.0054 786.5156,506.8804 Q786.5156,503.7554 787.8281,502.0992 Q789.1563,500.4429 791.6563,500.4429 Q792.3594,500.4429 793,500.5992 Q793.6563,500.7554 794.2188,501.0523 L794.2188,503.771 Q793.5938,503.1929 793,502.9273 Q792.4063,502.646 791.7813,502.646 Q790.4375,502.646 789.75,503.7242 Q789.0625,504.7867 789.0625,506.8804 Q789.0625,508.9742 789.75,510.0523 Q790.4375,511.1148 791.7813,511.1148 Q792.4063,511.1148 793,510.8492 Q793.5938,510.5679 794.2188,509.9898 L794.2188,512.7085 Z " fill="#000000"/><text fill="#000000" font-family="sans-serif" font-size="14" lengthAdjust="spacing" textLength="93" x="811.75" y="512.4999">GlobalMetrics</text><line style="stroke:#181818;stroke-width:0.5;" x1="722" x2="962" y1="523.0679" y2="523.0679"/><ellipse cx="732" cy="538.1019" fill="none" rx="3" ry="3" style="stroke:#038048;stroke-width:1.0;"/><text fill="#000000" font-family="sans-serif" font-size="14" lengthAdjust="spacing" textLength="152" x="741" y="542.0339">TRpPromedio: number</text><ellipse cx="732" cy="557.1698" fill="none" rx="3" ry="3" style="stroke:#038048;stroke-width:1.0;"/><text fill="#000000" font-family="sans-serif" font-size="14" lengthAdjust="spacing" textLength="142" x="741" y="561.1018">TEPromedio: number</text><ellipse cx="732" cy="576.2377" fill="none" rx="3" ry="3" style="stroke:#038048;stroke-width:1.0;"/><text fill="#000000" font-family="sans-serif" font-size="14" lengthAdjust="spacing" textLength="152" x="741" y="580.1697">TRnPromedio: number</text><ellipse cx="732" cy="595.3056" fill="none" rx="3" ry="3" style="stroke:#038048;stroke-width:1.0;"/><text fill="#000000" font-family="sans-serif" font-size="14" lengthAdjust="spacing" textLength="140" x="741" y="599.2376">throughput: number</text><ellipse cx="732" cy="614.3735" fill="none" rx="3" ry="3" style="stroke:#038048;stroke-width:1.0;"/><text fill="#000000" font-family="sans-serif" font-size="14" lengthAdjust="spacing" textLength="195" x="741" y="618.3055">cambiosDeContexto: number</text><ellipse cx="732" cy="633.4415" fill="none" rx="3" ry="3" style="stroke:#038048;stroke-width:1.0;"/><text fill="#000000" font-family="sans-serif" font-size="14" lengthAdjust="spacing" textLength="164" x="741" y="637.3734">expropiaciones: number</text><ellipse cx="732" cy="652.5094" fill="none" rx="3" ry="3" style="stroke:#038048;stroke-width:1.0;"/><text fill="#000000" font-family="sans-serif" font-size="14" lengthAdjust="spacing" textLength="216" x="741" y="656.4414">tiempoTotalSimulacion: number</text><line style="stroke:#181818;stroke-width:0.5;" x1="722" x2="962" y1="664.5433" y2="664.5433"/></g><!--class Trace--><g id="elem_Trace"><rect codeLine="33" fill="#F1F1F1" height="86.1358" id="Trace" rx="2.5" ry="2.5" style="stroke:#181818;stroke-width:0.5;" width="158" x="22" y="538.5679"/><ellipse cx="78.25" cy="554.5679" fill="#ADD1B2" rx="11" ry="11" style="stroke:#181818;stroke-width:1.0;"/><path d="M81.2188,560.2085 Q80.6406,560.5054 80,560.646 Q79.3594,560.8023 78.6563,560.8023 Q76.1563,560.8023 74.8281,559.1617 Q73.5156,557.5054 73.5156,554.3804 Q73.5156,551.2554 74.8281,549.5992 Q76.1563,547.9429 78.6563,547.9429 Q79.3594,547.9429 80,548.0992 Q80.6563,548.2554 81.2188,548.5523 L81.2188,551.271 Q80.5938,550.6929 80,550.4273 Q79.4063,550.146 78.7813,550.146 Q77.4375,550.146 76.75,551.2242 Q76.0625,552.2867 76.0625,554.3804 Q76.0625,556.4742 76.75,557.5523 Q77.4375,558.6148 78.7813,558.6148 Q79.4063,558.6148 80,558.3492 Q80.5938,558.0679 81.2188,557.4898 L81.2188,560.2085 Z " fill="#000000"/><text fill="#000000" font-family="sans-serif" font-size="14" lengthAdjust="spacing" textLength="37" x="98.75" y="559.9999">Trace</text><line style="stroke:#181818;stroke-width:0.5;" x1="23" x2="179" y1="570.5679" y2="570.5679"/><ellipse cx="33" cy="585.6019" fill="none" rx="3" ry="3" style="stroke:#038048;stroke-width:1.0;"/><text fill="#000000" font-family="sans-serif" font-size="14" lengthAdjust="spacing" textLength="123" x="42" y="589.5339">slices: TraceSlice[]</text><ellipse cx="33" cy="604.6698" fill="none" rx="3" ry="3" style="stroke:#038048;stroke-width:1.0;"/><text fill="#000000" font-family="sans-serif" font-size="14" lengthAdjust="spacing" textLength="132" x="42" y="608.6018">eventos: SimEvent[]</text><line style="stroke:#181818;stroke-width:0.5;" x1="23" x2="179" y1="616.7038" y2="616.7038"/></g><!--class TraceSlice--><g id="elem_TraceSlice"><rect codeLine="38" fill="#F1F1F1" height="124.2717" id="TraceSlice" rx="2.5" ry="2.5" style="stroke:#181818;stroke-width:0.5;" width="123" x="39.5" y="747.0679"/><ellipse cx="64.85" cy="763.0679" fill="#ADD1B2" rx="11" ry="11" style="stroke:#181818;stroke-width:1.0;"/><path d="M67.8188,768.7085 Q67.2406,769.0054 66.6,769.146 Q65.9594,769.3023 65.2563,769.3023 Q62.7562,769.3023 61.4281,767.6617 Q60.1156,766.0054 60.1156,762.8804 Q60.1156,759.7554 61.4281,758.0992 Q62.7562,756.4429 65.2563,756.4429 Q65.9594,756.4429 66.6,756.5992 Q67.2563,756.7554 67.8188,757.0523 L67.8188,759.771 Q67.1938,759.1929 66.6,758.9273 Q66.0063,758.646 65.3813,758.646 Q64.0375,758.646 63.35,759.7242 Q62.6625,760.7867 62.6625,762.8804 Q62.6625,764.9742 63.35,766.0523 Q64.0375,767.1148 65.3813,767.1148 Q66.0063,767.1148 66.6,766.8492 Q67.1938,766.5679 67.8188,765.9898 L67.8188,768.7085 Z " fill="#000000"/><text fill="#000000" font-family="sans-serif" font-size="14" lengthAdjust="spacing" textLength="68" x="81.15" y="768.4999">TraceSlice</text><line style="stroke:#181818;stroke-width:0.5;" x1="40.5" x2="161.5" y1="779.0679" y2="779.0679"/><ellipse cx="50.5" cy="794.1019" fill="none" rx="3" ry="3" style="stroke:#038048;stroke-width:1.0;"/><text fill="#000000" font-family="sans-serif" font-size="14" lengthAdjust="spacing" textLength="70" x="59.5" y="798.0339">pid: string</text><ellipse cx="50.5" cy="813.1698" fill="none" rx="3" ry="3" style="stroke:#038048;stroke-width:1.0;"/><text fill="#000000" font-family="sans-serif" font-size="14" lengthAdjust="spacing" textLength="97" x="59.5" y="817.1018">tipo: SliceType</text><ellipse cx="50.5" cy="832.2377" fill="none" rx="3" ry="3" style="stroke:#038048;stroke-width:1.0;"/><text fill="#000000" font-family="sans-serif" font-size="14" lengthAdjust="spacing" textLength="93" x="59.5" y="836.1697">start: number</text><ellipse cx="50.5" cy="851.3056" fill="none" rx="3" ry="3" style="stroke:#038048;stroke-width:1.0;"/><text fill="#000000" font-family="sans-serif" font-size="14" lengthAdjust="spacing" textLength="88" x="59.5" y="855.2376">end: number</text><line style="stroke:#181818;stroke-width:0.5;" x1="40.5" x2="161.5" y1="863.3396" y2="863.3396"/></g><!--class SliceType--><g id="elem_SliceType"><rect codeLine="45" fill="#F1F1F1" height="143.3396" id="SliceType" rx="2.5" ry="2.5" style="stroke:#181818;stroke-width:0.5;" width="95" x="53.5" y="946.0679"/><ellipse cx="68.5" cy="962.0679" fill="#EB937F" rx="11" ry="11" style="stroke:#181818;stroke-width:1.0;"/><path d="M72.6094,968.0679 L64.8906,968.0679 L64.8906,955.6773 L72.6094,955.6773 L72.6094,957.8335 L67.3438,957.8335 L67.3438,960.5054 L72.1094,960.5054 L72.1094,962.6617 L67.3438,962.6617 L67.3438,965.9117 L72.6094,965.9117 L72.6094,968.0679 Z " fill="#000000"/><text fill="#000000" font-family="sans-serif" font-size="14" lengthAdjust="spacing" textLength="63" x="82.5" y="967.4999">SliceType</text><line style="stroke:#181818;stroke-width:0.5;" x1="54.5" x2="147.5" y1="978.0679" y2="978.0679"/><text fill="#000000" font-family="sans-serif" font-size="14" lengthAdjust="spacing" textLength="27" x="59.5" y="997.0339">CPU</text><text fill="#000000" font-family="sans-serif" font-size="14" lengthAdjust="spacing" textLength="25" x="59.5" y="1016.1018">TCP</text><text fill="#000000" font-family="sans-serif" font-size="14" lengthAdjust="spacing" textLength="21" x="59.5" y="1035.1697">TIP</text><text fill="#000000" font-family="sans-serif" font-size="14" lengthAdjust="spacing" textLength="23" x="59.5" y="1054.2376">TFP</text><text fill="#000000" font-family="sans-serif" font-size="14" lengthAdjust="spacing" textLength="16" x="59.5" y="1073.3055">IO</text><line style="stroke:#181818;stroke-width:0.5;" x1="54.5" x2="147.5" y1="1081.4075" y2="1081.4075"/></g><path d="M998,46.0679 L998,79.0749 L900,239.7377 L998,87.0749 L998,120.0818 A0,0 0 0 0 998,120.0818 L1300,120.0818 A0,0 0 0 0 1300,120.0818 L1300,56.0679 L1290,46.0679 L998,46.0679 A0,0 0 0 0 998,46.0679 " fill="#FEFFDD" style="stroke:#181818;stroke-width:0.5;"/><path d="M1290,46.0679 L1290,56.0679 L1300,56.0679 L1290,46.0679 " fill="#FEFFDD" style="stroke:#181818;stroke-width:0.5;"/><text fill="#000000" font-family="sans-serif" font-size="13" font-weight="bold" lengthAdjust="spacing" textLength="152" x="1004" y="64.9649">finUltimaActividad(pid)</text><text fill="#000000" font-family="sans-serif" font-size="17" font-weight="bold" lengthAdjust="spacing" textLength="181.5313" x="1004" y="86.9469">t del evento C&#8594;T final</text><text fill="#000000" font-family="sans-serif" font-size="17" font-weight="bold" lengthAdjust="spacing" textLength="281" x="1004" y="110.1008">incluye TFP del &#250;ltimo tramo CPU</text><path d="M998,130.0818 L998,169.2178 L854,258.8056 L998,177.2178 L998,216.3538 A0,0 0 0 0 998,216.3538 L1265,216.3538 A0,0 0 0 0 1265,216.3538 L1265,140.0818 L1255,130.0818 L998,130.0818 A0,0 0 0 0 998,130.0818 " fill="#FEFFDD" style="stroke:#181818;stroke-width:0.5;"/><path d="M1255,130.0818 L1255,140.0818 L1265,140.0818 L1255,130.0818 " fill="#FEFFDD" style="stroke:#181818;stroke-width:0.5;"/><text fill="#000000" font-family="sans-serif" font-size="13" font-weight="bold" lengthAdjust="spacing" textLength="104" x="1004" y="148.9788">servicioCPU(pid)</text><text fill="#000000" font-family="sans-serif" font-size="17" font-weight="bold" lengthAdjust="spacing" textLength="246" x="1004" y="170.9608">suma de (end - start) de slices</text><text fill="#000000" font-family="sans-serif" font-size="13" lengthAdjust="spacing" textLength="170" x="1004" y="189.8388">donde tipo == SliceType.CPU</text><text fill="#000000" font-family="sans-serif" font-size="13" font-weight="bold" lengthAdjust="spacing" textLength="172" x="1004" y="207.5448">NO cuenta TCP/TIP/TFP/IO</text><path d="M998,226.3538 L998,259.3608 L858,277.8735 L998,267.3608 L998,300.3677 A0,0 0 0 0 998,300.3677 L1316,300.3677 A0,0 0 0 0 1316,300.3677 L1316,236.3538 L1306,226.3538 L998,226.3538 A0,0 0 0 0 998,226.3538 " fill="#FEFFDD" style="stroke:#181818;stroke-width:0.5;"/><path d="M1306,226.3538 L1306,236.3538 L1316,236.3538 L1306,226.3538 " fill="#FEFFDD" style="stroke:#181818;stroke-width:0.5;"/><text fill="#000000" font-family="sans-serif" font-size="13" font-weight="bold" lengthAdjust="spacing" textLength="133" x="1004" y="245.2508">cambiosDeContexto</text><text fill="#000000" font-family="sans-serif" font-size="17" font-weight="bold" lengthAdjust="spacing" textLength="219.5313" x="1004" y="267.2328"># de eventos L&#8594;C en trace</text><text fill="#000000" font-family="sans-serif" font-size="17" font-weight="bold" lengthAdjust="spacing" textLength="297" x="1004" y="290.3867">cada dispatch cuenta como cambio</text><path d="M998,310.3677 L998,352.2277 L843,296.9415 L998,360.2277 L998,402.0877 A0,0 0 0 0 998,402.0877 L1290.8125,402.0877 A0,0 0 0 0 1290.8125,402.0877 L1290.8125,320.3677 L1280.8125,310.3677 L998,310.3677 A0,0 0 0 0 998,310.3677 " fill="#FEFFDD" style="stroke:#181818;stroke-width:0.5;"/><path d="M1280.8125,310.3677 L1280.8125,320.3677 L1290.8125,320.3677 L1280.8125,310.3677 " fill="#FEFFDD" style="stroke:#181818;stroke-width:0.5;"/><text fill="#000000" font-family="sans-serif" font-size="13" font-weight="bold" lengthAdjust="spacing" textLength="100" x="1004" y="329.2647">expropiaciones</text><text fill="#000000" font-family="sans-serif" font-size="17" font-weight="bold" lengthAdjust="spacing" textLength="219.5313" x="1004" y="351.2467"># de eventos C&#8594;L en trace</text><text fill="#000000" font-family="sans-serif" font-size="17" font-weight="bold" lengthAdjust="spacing" textLength="222" x="1004" y="374.4006">solo cuenta preempciones</text><text fill="#000000" font-family="sans-serif" font-size="13" font-weight="bold" lengthAdjust="spacing" textLength="271.8125" x="1004" y="393.2787">NO cuenta C&#8594;B (bloqueos) ni C&#8594;T (finales)</text><g id="elem_GMN16"><path d="M995.5,733.0679 L995.5,884.716 L1258.5,884.716 L1258.5,743.0679 L1248.5,733.0679 L995.5,733.0679 " fill="#FEFFDD" style="stroke:#181818;stroke-width:0.5;"/><path d="M1248.5,733.0679 L1248.5,743.0679 L1258.5,743.0679 L1248.5,733.0679 " fill="#FEFFDD" style="stroke:#181818;stroke-width:1.0;"/><text fill="#000000" font-family="sans-serif" font-size="13" font-weight="bold" lengthAdjust="spacing" textLength="137" x="1001.5" y="751.9649">C&#225;lculos por Proceso:</text><text fill="#000000" font-family="sans-serif" font-size="13" lengthAdjust="spacing" textLength="105" x="1001.5" y="769.6709">&#8226; TRp = fin - arribo</text><text fill="#000000" font-family="sans-serif" font-size="13" lengthAdjust="spacing" textLength="139" x="1001.5" y="787.377">&#8226; TE = TRp - servicioCPU</text><text fill="#000000" font-family="sans-serif" font-size="13" lengthAdjust="spacing" textLength="149" x="1001.5" y="805.083">&#8226; TRn = TRp / servicioCPU</text><text fill="#000000" font-family="sans-serif" font-size="13" lengthAdjust="spacing" textLength="3" x="1001.5" y="822.789">&#160;</text><text fill="#000000" font-family="sans-serif" font-size="13" font-weight="bold" lengthAdjust="spacing" textLength="86" x="1001.5" y="840.495">Validaciones:</text><text fill="#000000" font-family="sans-serif" font-size="13" lengthAdjust="spacing" textLength="240" x="1001.5" y="858.201">&#8226; servicioCPU &gt; 0 (debe haber ejecutado)</text><text fill="#000000" font-family="sans-serif" font-size="13" lengthAdjust="spacing" textLength="242" x="1001.5" y="875.907">&#8226; TRn &gt;= 1.0 (tiempo respuesta &#8805; servicio)</text></g><g id="elem_GMN19"><path d="M1294,759.5679 L1294,858.098 L1618,858.098 L1618,769.5679 L1608,759.5679 L1294,759.5679 " fill="#FEFFDD" style="stroke:#181818;stroke-width:0.5;"/><path d="M1608,759.5679 L1608,769.5679 L1618,769.5679 L1608,759.5679 " fill="#FEFFDD" style="stroke:#181818;stroke-width:1.0;"/><text fill="#000000" font-family="sans-serif" font-size="13" font-weight="bold" lengthAdjust="spacing" textLength="116" x="1300" y="778.4649">C&#225;lculos Globales:</text><text fill="#000000" font-family="sans-serif" font-size="13" lengthAdjust="spacing" textLength="289" x="1300" y="796.1709">&#8226; TRpPromedio = avg(TRp de todos los procesos)</text><text fill="#000000" font-family="sans-serif" font-size="13" lengthAdjust="spacing" textLength="271" x="1300" y="813.877">&#8226; TEPromedio = avg(TE de todos los procesos)</text><text fill="#000000" font-family="sans-serif" font-size="13" lengthAdjust="spacing" textLength="289" x="1300" y="831.583">&#8226; TRnPromedio = avg(TRn de todos los procesos)</text><text fill="#000000" font-family="sans-serif" font-size="13" lengthAdjust="spacing" textLength="303" x="1300" y="849.289">&#8226; throughput = #procesos / tiempoTotalSimulacion</text></g><!--class SliceTipo--><g id="elem_SliceTipo"><rect fill="#F1F1F1" height="48" id="SliceTipo" rx="2.5" ry="2.5" style="stroke:#181818;stroke-width:0.5;" width="92" x="995" y="993.5679"/><ellipse cx="1010" cy="1009.5679" fill="#ADD1B2" rx="11" ry="11" style="stroke:#181818;stroke-width:1.0;"/><path d="M1012.9688,1015.2085 Q1012.3906,1015.5054 1011.75,1015.646 Q1011.1094,1015.8023 1010.4063,1015.8023 Q1007.9063,1015.8023 1006.5781,1014.1617 Q1005.2656,1012.5054 1005.2656,1009.3804 Q1005.2656,1006.2554 1006.5781,1004.5992 Q1007.9063,1002.9429 1010.4063,1002.9429 Q1011.1094,1002.9429 1011.75,1003.0992 Q1012.4063,1003.2554 1012.9688,1003.5523 L1012.9688,1006.271 Q1012.3438,1005.6929 1011.75,1005.4273 Q1011.1563,1005.146 1010.5313,1005.146 Q1009.1875,1005.146 1008.5,1006.2242 Q1007.8125,1007.2867 1007.8125,1009.3804 Q1007.8125,1011.4742 1008.5,1012.5523 Q1009.1875,1013.6148 1010.5313,1013.6148 Q1011.1563,1013.6148 1011.75,1013.3492 Q1012.3438,1013.0679 1012.9688,1012.4898 L1012.9688,1015.2085 Z " fill="#000000"/><text fill="#000000" font-family="sans-serif" font-size="14" lengthAdjust="spacing" textLength="60" x="1024" y="1014.9999">SliceTipo</text><line style="stroke:#181818;stroke-width:0.5;" x1="996" x2="1086" y1="1025.5679" y2="1025.5679"/><line style="stroke:#181818;stroke-width:0.5;" x1="996" x2="1086" y1="1033.5679" y2="1033.5679"/></g><!--class Proceso--><g id="elem_Proceso"><rect fill="#F1F1F1" height="48" id="Proceso" rx="2.5" ry="2.5" style="stroke:#181818;stroke-width:0.5;" width="84" x="998" y="557.5679"/><ellipse cx="1013" cy="573.5679" fill="#ADD1B2" rx="11" ry="11" style="stroke:#181818;stroke-width:1.0;"/><path d="M1015.9688,579.2085 Q1015.3906,579.5054 1014.75,579.646 Q1014.1094,579.8023 1013.4063,579.8023 Q1010.9063,579.8023 1009.5781,578.1617 Q1008.2656,576.5054 1008.2656,573.3804 Q1008.2656,570.2554 1009.5781,568.5992 Q1010.9063,566.9429 1013.4063,566.9429 Q1014.1094,566.9429 1014.75,567.0992 Q1015.4063,567.2554 1015.9688,567.5523 L1015.9688,570.271 Q1015.3438,569.6929 1014.75,569.4273 Q1014.1563,569.146 1013.5313,569.146 Q1012.1875,569.146 1011.5,570.2242 Q1010.8125,571.2867 1010.8125,573.3804 Q1010.8125,575.4742 1011.5,576.5523 Q1012.1875,577.6148 1013.5313,577.6148 Q1014.1563,577.6148 1014.75,577.3492 Q1015.3438,577.0679 1015.9688,576.4898 L1015.9688,579.2085 Z " fill="#000000"/><text fill="#000000" font-family="sans-serif" font-size="14" lengthAdjust="spacing" textLength="52" x="1027" y="578.9999">Proceso</text><line style="stroke:#181818;stroke-width:0.5;" x1="999" x2="1081" y1="589.5679" y2="589.5679"/><line style="stroke:#181818;stroke-width:0.5;" x1="999" x2="1081" y1="597.5679" y2="597.5679"/></g><!--class MetricaProceso--><g id="elem_MetricaProceso"><rect fill="#F1F1F1" height="48" id="MetricaProceso" rx="2.5" ry="2.5" style="stroke:#181818;stroke-width:0.5;" width="135" x="1117.5" y="557.5679"/><ellipse cx="1132.5" cy="573.5679" fill="#ADD1B2" rx="11" ry="11" style="stroke:#181818;stroke-width:1.0;"/><path d="M1135.4688,579.2085 Q1134.8906,579.5054 1134.25,579.646 Q1133.6094,579.8023 1132.9063,579.8023 Q1130.4063,579.8023 1129.0781,578.1617 Q1127.7656,576.5054 1127.7656,573.3804 Q1127.7656,570.2554 1129.0781,568.5992 Q1130.4063,566.9429 1132.9063,566.9429 Q1133.6094,566.9429 1134.25,567.0992 Q1134.9063,567.2554 1135.4688,567.5523 L1135.4688,570.271 Q1134.8438,569.6929 1134.25,569.4273 Q1133.6563,569.146 1133.0313,569.146 Q1131.6875,569.146 1131,570.2242 Q1130.3125,571.2867 1130.3125,573.3804 Q1130.3125,575.4742 1131,576.5523 Q1131.6875,577.6148 1133.0313,577.6148 Q1133.6563,577.6148 1134.25,577.3492 Q1134.8438,577.0679 1135.4688,576.4898 L1135.4688,579.2085 Z " fill="#000000"/><text fill="#000000" font-family="sans-serif" font-size="14" lengthAdjust="spacing" textLength="103" x="1146.5" y="578.9999">MetricaProceso</text><line style="stroke:#181818;stroke-width:0.5;" x1="1118.5" x2="1251.5" y1="589.5679" y2="589.5679"/><line style="stroke:#181818;stroke-width:0.5;" x1="1118.5" x2="1251.5" y1="597.5679" y2="597.5679"/></g><!--class MetricaGlobal--><g id="elem_MetricaGlobal"><rect fill="#F1F1F1" height="48" id="MetricaGlobal" rx="2.5" ry="2.5" style="stroke:#181818;stroke-width:0.5;" width="126" x="1643" y="557.5679"/><ellipse cx="1658" cy="573.5679" fill="#ADD1B2" rx="11" ry="11" style="stroke:#181818;stroke-width:1.0;"/><path d="M1660.9688,579.2085 Q1660.3906,579.5054 1659.75,579.646 Q1659.1094,579.8023 1658.4063,579.8023 Q1655.9063,579.8023 1654.5781,578.1617 Q1653.2656,576.5054 1653.2656,573.3804 Q1653.2656,570.2554 1654.5781,568.5992 Q1655.9063,566.9429 1658.4063,566.9429 Q1659.1094,566.9429 1659.75,567.0992 Q1660.4063,567.2554 1660.9688,567.5523 L1660.9688,570.271 Q1660.3438,569.6929 1659.75,569.4273 Q1659.1563,569.146 1658.5313,569.146 Q1657.1875,569.146 1656.5,570.2242 Q1655.8125,571.2867 1655.8125,573.3804 Q1655.8125,575.4742 1656.5,576.5523 Q1657.1875,577.6148 1658.5313,577.6148 Q1659.1563,577.6148 1659.75,577.3492 Q1660.3438,577.0679 1660.9688,576.4898 L1660.9688,579.2085 Z " fill="#000000"/><text fill="#000000" font-family="sans-serif" font-size="14" lengthAdjust="spacing" textLength="94" x="1672" y="578.9999">MetricaGlobal</text><line style="stroke:#181818;stroke-width:0.5;" x1="1644" x2="1768" y1="589.5679" y2="589.5679"/><line style="stroke:#181818;stroke-width:0.5;" x1="1644" x2="1768" y1="597.5679" y2="597.5679"/></g><g id="elem_GMN32"><path d="M1653,751.0679 L1653,867.304 A0,0 0 0 0 1653,867.304 L2079,867.304 A0,0 0 0 0 2079,867.304 L2079,761.0679 L2069,751.0679 L1829.23,751.0679 L1722.52,605.8479 L1821.23,751.0679 L1653,751.0679 A0,0 0 0 0 1653,751.0679 " fill="#FEFFDD" style="stroke:#181818;stroke-width:0.5;"/><path d="M2069,751.0679 L2069,761.0679 L2079,761.0679 L2069,751.0679 " fill="#FEFFDD" style="stroke:#181818;stroke-width:0.5;"/><text fill="#000000" font-family="sans-serif" font-size="13" lengthAdjust="spacing" textLength="87" x="1659" y="769.9649">Convenciones:</text><text fill="#000000" font-family="sans-serif" font-size="13" lengthAdjust="spacing" textLength="354" x="1659" y="787.6709">- Gantt/CPU: solo slices tipo CPU cuentan como "ejecuci&#243;n".</text><text fill="#000000" font-family="sans-serif" font-size="13" lengthAdjust="spacing" textLength="405" x="1659" y="805.377">- Overheads (TIP/TCP/TFP) y IO NO suman a servicioCPU ni a espera.</text><text fill="#000000" font-family="sans-serif" font-size="13" lengthAdjust="spacing" textLength="211" x="1659" y="823.083">- TRp = fin_ultima_actividad - arribo.</text><text fill="#000000" font-family="sans-serif" font-size="13" lengthAdjust="spacing" textLength="141" x="1659" y="840.789">- TE = TRp - servicioCPU.</text><text fill="#000000" font-family="sans-serif" font-size="13" lengthAdjust="spacing" textLength="151" x="1659" y="858.495">- TRn = TRp / servicioCPU.</text></g><!--link MetricsBuilder to Trace--><g id="link_MetricsBuilder_Trace"><path codeLine="54" d="M540.06,310.0979 C433.42,355.8779 303.59,418.6079 197,491.0679 C177.03,504.6479 161.4245,518.1378 144.9745,534.1878 " fill="none" id="MetricsBuilder-to-Trace" style="stroke:#181818;stroke-width:1.0;stroke-dasharray:7.0,7.0;"/><polygon fill="#181818" points="140.68,538.3779,149.9152,534.9558,144.2588,534.8862,144.3284,529.2297,140.68,538.3779" style="stroke:#181818;stroke-width:1.0;"/><text fill="#000000" font-family="sans-serif" font-size="13" lengthAdjust="spacing" textLength="41" x="268" y="456.9649">analiza</text></g><!--link MetricsBuilder to Trace--><g id="link_MetricsBuilder_Trace"><path codeLine="107" d="M618.01,310.1979 C535.01,359.3379 423.14,420.4179 318,461.0679 C266.32,481.0479 245.71,464.6679 197,491.0679 C174.76,503.1179 157.9583,517.2614 141.2983,534.2714 " fill="none" id="MetricsBuilder-to-Trace-1" style="stroke:#181818;stroke-width:1.0;stroke-dasharray:7.0,7.0;"/><polygon fill="#181818" points="137.1,538.5579,146.2551,534.927,140.5986,534.9858,140.5398,529.3293,137.1,538.5579" style="stroke:#181818;stroke-width:1.0;"/></g><!--link MetricsBuilder to ProcessMetrics--><g id="link_MetricsBuilder_ProcessMetrics"><path codeLine="55" d="M678.09,310.4779 C632.6,364.3379 576.5411,430.7237 529.5311,486.3937 " fill="none" id="MetricsBuilder-to-ProcessMetrics" style="stroke:#181818;stroke-width:1.0;stroke-dasharray:7.0,7.0;"/><polygon fill="#181818" points="525.66,490.9779,534.5227,486.6824,528.8859,487.1578,528.4105,481.5209,525.66,490.9779" style="stroke:#181818;stroke-width:1.0;"/><text fill="#000000" font-family="sans-serif" font-size="13" lengthAdjust="spacing" textLength="42" x="564" y="456.9649">genera</text></g><!--link MetricsBuilder to GlobalMetrics--><g id="link_MetricsBuilder_GlobalMetrics"><path codeLine="56" d="M768.02,310.4779 C782.78,364.3379 800.6248,429.5211 815.8748,485.1911 " fill="none" id="MetricsBuilder-to-GlobalMetrics" style="stroke:#181818;stroke-width:1.0;stroke-dasharray:7.0,7.0;"/><polygon fill="#181818" points="817.46,490.9779,818.9401,481.2409,816.139,486.1556,811.2243,483.3545,817.46,490.9779" style="stroke:#181818;stroke-width:1.0;"/><text fill="#000000" font-family="sans-serif" font-size="13" lengthAdjust="spacing" textLength="42" x="810" y="456.9649">genera</text></g><!--reverse link Trace to TraceSlice--><g id="link_Trace_TraceSlice"><path codeLine="57" d="M89.7925,636.6756 C86.8925,671.0956 87.47,708.2379 89.52,746.9779 " fill="none" id="Trace-backto-TraceSlice" style="stroke:#181818;stroke-width:1.0;"/><polygon fill="none" points="90.8,624.7179,86.3104,630.3609,89.7925,636.6756,94.2821,631.0326,90.8,624.7179" style="stroke:#181818;stroke-width:1.0;"/><text fill="#000000" font-family="sans-serif" font-size="13" lengthAdjust="spacing" textLength="7" x="81.7022" y="646.5675">1</text><text fill="#000000" font-family="sans-serif" font-size="13" lengthAdjust="spacing" textLength="7" x="80.6943" y="735.2982">*</text></g><!--reverse link Trace to TraceSlice--><g id="link_Trace_TraceSlice"><path codeLine="105" d="M112.8661,636.6705 C115.9361,671.0905 115.32,708.2379 113.15,746.9779 " fill="none" id="Trace-backto-TraceSlice-1" style="stroke:#181818;stroke-width:1.0;"/><polygon fill="none" points="111.8,624.7179,108.3489,631.0496,112.8661,636.6705,116.3172,630.3388,111.8,624.7179" style="stroke:#181818;stroke-width:1.0;"/><text fill="#000000" font-family="sans-serif" font-size="13" lengthAdjust="spacing" textLength="7" x="105.9178" y="646.5675">1</text><text fill="#000000" font-family="sans-serif" font-size="13" lengthAdjust="spacing" textLength="7" x="107.2042" y="735.2982">*</text></g><!--link TraceSlice to SliceType--><g id="link_TraceSlice_SliceType"><path codeLine="58" d="M101,871.1879 C101,894.6179 101,915.5379 101,939.7979 " fill="none" id="TraceSlice-to-SliceType" style="stroke:#181818;stroke-width:1.0;"/><polygon fill="#181818" points="101,945.7979,105,936.7979,101,940.7979,97,936.7979,101,945.7979" style="stroke:#181818;stroke-width:1.0;"/></g><!--link ProcessMetrics to GMN16--><g id="link_ProcessMetrics_GMN16"><path d="M685.71,666.9979 C691.52,668.7379 697.29,670.4379 703,672.0679 C823.78,706.6379 860.7,690.7879 979,733.0679 C984.42,735.0079 989.91,737.0979 995.4,739.3179 " fill="none" id="ProcessMetrics-GMN16" style="stroke:#181818;stroke-width:1.0;stroke-dasharray:7.0,7.0;"/></g><!--link GlobalMetrics to GMN19--><g id="link_GlobalMetrics_GMN19"><path d="M963.35,664.4379 C969.22,667.2079 975.12,669.7679 981,672.0679 C1053.28,700.2979 1077.1,685.9079 1153,702.0679 C1208.14,713.8079 1222.5,715.2879 1276,733.0679 C1299.13,740.7579 1323.49,750.0479 1346.55,759.4379 " fill="none" id="GlobalMetrics-GMN19" style="stroke:#181818;stroke-width:1.0;stroke-dasharray:7.0,7.0;"/></g><!--link TraceSlice to SliceTipo--><g id="link_TraceSlice_SliceTipo"><path codeLine="106" d="M162.73,814.1679 C338.34,826.6679 837.16,868.2879 979,946.0679 C999.15,957.1179 1012.5079,972.4357 1023.5079,988.4157 " fill="none" id="TraceSlice-to-SliceTipo" style="stroke:#181818;stroke-width:1.0;"/><polygon fill="#181818" points="1026.91,993.3579,1025.1018,983.6765,1024.0749,989.2394,1018.5121,988.2126,1026.91,993.3579" style="stroke:#181818;stroke-width:1.0;"/></g><!--link MetricsBuilder to Proceso--><g id="link_MetricsBuilder_Proceso"><path codeLine="108" d="M822.55,310.2779 C869.44,360.7379 929.71,428.0179 979,491.0679 C996.02,512.8479 1010.3561,534.0869 1022.2461,552.5069 " fill="none" id="MetricsBuilder-to-Proceso" style="stroke:#181818;stroke-width:1.0;stroke-dasharray:7.0,7.0;"/><polygon fill="#181818" points="1025.5,557.5479,1023.9798,547.8171,1022.7884,553.3471,1017.2584,552.1557,1025.5,557.5479" style="stroke:#181818;stroke-width:1.0;"/></g><!--link MetricsBuilder to MetricaProceso--><g id="link_MetricsBuilder_MetricaProceso"><path codeLine="109" d="M845.99,310.0879 C887.28,342.4479 935.93,379.7179 981,412.0679 C1032.57,449.0879 1051.39,450.2379 1100,491.0679 C1124.45,511.6079 1145.2956,534.028 1161.7456,552.968 " fill="none" id="MetricsBuilder-to-MetricaProceso" style="stroke:#181818;stroke-width:1.0;stroke-dasharray:7.0,7.0;"/><polygon fill="#181818" points="1165.68,557.4979,1162.7984,548.0801,1162.4013,553.723,1156.7584,553.3259,1165.68,557.4979" style="stroke:#181818;stroke-width:1.0;"/></g><!--link MetricsBuilder to MetricaGlobal--><g id="link_MetricsBuilder_MetricaGlobal"><path codeLine="110" d="M830.65,310.0779 C872.93,346.0779 926.59,386.2079 981,412.0679 C1041.36,440.7579 1471.7459,531.8951 1636.9459,566.2851 " fill="none" id="MetricsBuilder-to-MetricaGlobal" style="stroke:#181818;stroke-width:1.0;stroke-dasharray:7.0,7.0;"/><polygon fill="#181818" points="1642.82,567.5079,1634.8241,561.7576,1637.9249,566.4889,1633.1937,569.5897,1642.82,567.5079" style="stroke:#181818;stroke-width:1.0;"/></g><!--SRC=[bLRDZjis4BxhAGREHNPgkxaQy0A9wWOB9F5Yu_HI505DJMos4gcAb95j422d0hqMVO4MwA7dtdhTDzadwP2KP56MTvF3hYpEp3V_7sM4oH2IZ6dKSFVf3tXv-uyf1MSQRk2flFqp4rheA2eO_udj44OlqOhr23v409piDDH7pogHfLWw0S3ZhNsDJSauBc1Z7-C5N9MAezQrnVS_T5IVPshBihW8D4uj2CHhrYSEOVfEo3UP4JbxoequY9IbSI7I1MZIaRkle1U6hF8jbjvKOtaGNAZawirdst0b3IiJbc-5qWczu7kZuWSDLkyfkq8myYPHdzN_I7zjSSFyc-9s0lK7h2p5LWLE7rDHmeDEgg5WSrqq1p2VmqPWNYYuHbrKg0s39H0MJC5xgMrMhKd7PgKBBAq1GP91nsFZITxhwPKgSvQ9NrYgFCWyX0Xg4mn2KngoePhbc8fUEJQhC-VNSbXWzgMgTlkYCk4vztt_1flEXs8Ckjo3TFbkb67PQv5NcLCwrtet64rQEXFSehd3r_QbsHuye3IAH8Iuih-Tu1J96PqT82CAoiFfR6uAh9tIqFQIHvcUnejqSBIjVJGztoHN_dbPFx_rpykr0_WOHJq2cSqkwjmNmAIRXY6LtcOiO8UIPcz8DHoKLjCx6JqPWPfEOJGPTGeLTMesdLvqAXD9PH1AiTiRKEzwxBTOd59HD9aCyzDuCecMO23537mN8RdxzVUDtJQMaKX8dbKtQ4lcb6x_io3AKXFzjmMcTe2Dvw6ekbiqcVGupyUXgvoH5uWj9gskxVtO7lZHYr8bwSNE2IoNnthCFEIhDV2AKc2sttFgzPo2db-k2VfpOnnaLO8-sJSNxYCRMZtxy8BAbj0OUj8cAMSf9IDqmGpVDv5nHLNpQ5yOLCZS55EuvAS1sJw-w0QaLQQQE8eIYGPQh6FfhDKpYBUP-hb2fSSWHJqHiHi9rBPLTj-2uBVA69NRwCET8Eo4Rd1UPHHHeSfQh1O4SlVfByVHFMftnwiX_gP5zpQobiu3TYTVtz6gfWtjrIww01VmDSGfRX7spF8__eYyCiJqunRvOWbFPgJbUHBAzbwu- -tl5ciSdSq__3Jefkybny0wrmJbmmwxsEPa1robfEugvgkbw_1MVVtLlUh7MwN5b_SP76yRqd_KoAZAWtT6fmHVpcAqmcSvzppJ3jhu8_QmXgz_qB28zfdMfHwOQ0hFcJHcxhvEtBfuul6KOmV8RudqUpnouyF5xRzoD2FZzG7BFR9KG-pO9t4CDARFsCirq8fPUfF0WecazMA0xfF5GhJxyBPoPFsMDMpTBeXJ6zmF3p2u7BEsM_y3]--></g></svg>