<?xml version="1.0" encoding="us-ascii" standalone="no"?><svg xmlns="http://www.w3.org/2000/svg" xmlns:xlink="http://www.w3.org/1999/xlink" contentStyleType="text/css" height="935px" preserveAspectRatio="none" style="width:1364px;height:935px;background:#FFFFFF;" version="1.1" viewBox="0 0 1364 935" width="1364px" zoomAndPan="magnify"><defs/><g><text fill="#000000" font-family="sans-serif" font-size="14" font-weight="bold" lengthAdjust="spacing" textLength="238" x="556" y="24.9659">Componentes &#8212; Pipeline de Gantt</text><!--cluster Core/Trace--><g id="cluster_Core/Trace"><path d="M8.5,399.7979 L84.5,399.7979 A3.75,3.75 0 0 1 87,402.2979 L94,424.8658 L213.5,424.8658 A2.5,2.5 0 0 1 216,427.3658 L216,926.2979 A2.5,2.5 0 0 1 213.5,928.7979 L8.5,928.7979 A2.5,2.5 0 0 1 6,926.2979 L6,402.2979 A2.5,2.5 0 0 1 8.5,399.7979 " fill="none" style="stroke:#000000;stroke-width:1.5;"/><line style="stroke:#000000;stroke-width:1.5;" x1="6" x2="94" y1="424.8658" y2="424.8658"/><text fill="#000000" font-family="sans-serif" font-size="14" font-weight="bold" lengthAdjust="spacing" textLength="75" x="10" y="416.7639">Core/Trace</text></g><!--cluster Gantt Builder--><g id="cluster_Gantt Builder"><path d="M242.5,105.7979 L335.5,105.7979 A3.75,3.75 0 0 1 338,108.2979 L345,130.8658 L677.5,130.8658 A2.5,2.5 0 0 1 680,133.3658 L680,897.7979 A2.5,2.5 0 0 1 677.5,900.2979 L242.5,900.2979 A2.5,2.5 0 0 1 240,897.7979 L240,108.2979 A2.5,2.5 0 0 1 242.5,105.7979 " fill="none" style="stroke:#000000;stroke-width:1.5;"/><line style="stroke:#000000;stroke-width:1.5;" x1="240" x2="345" y1="130.8658" y2="130.8658"/><text fill="#000000" font-family="sans-serif" font-size="14" font-weight="bold" lengthAdjust="spacing" textLength="92" x="244" y="122.7639">Gantt Builder</text></g><!--cluster UI--><g id="cluster_UI"><path d="M706.5,124.7979 L723.5,124.7979 A3.75,3.75 0 0 1 726,127.2979 L733,149.8658 L979.5,149.8658 A2.5,2.5 0 0 1 982,152.3658 L982,262.2979 A2.5,2.5 0 0 1 979.5,264.7979 L706.5,264.7979 A2.5,2.5 0 0 1 704,262.2979 L704,127.2979 A2.5,2.5 0 0 1 706.5,124.7979 " fill="none" style="stroke:#000000;stroke-width:1.5;"/><line style="stroke:#000000;stroke-width:1.5;" x1="704" x2="733" y1="149.8658" y2="149.8658"/><text fill="#000000" font-family="sans-serif" font-size="14" font-weight="bold" lengthAdjust="spacing" textLength="16" x="708" y="141.7639">UI</text></g><!--class Trace--><g id="elem_Trace"><rect codeLine="4" fill="#F1F1F1" height="67.0679" id="Trace" rx="2.5" ry="2.5" style="stroke:#181818;stroke-width:0.5;" width="178" x="22" y="437.7979"/><ellipse cx="88.25" cy="453.7979" fill="#ADD1B2" rx="11" ry="11" style="stroke:#181818;stroke-width:1.0;"/><path d="M91.2188,459.4385 Q90.6406,459.7354 90,459.876 Q89.3594,460.0323 88.6563,460.0323 Q86.1563,460.0323 84.8281,458.3917 Q83.5156,456.7354 83.5156,453.6104 Q83.5156,450.4854 84.8281,448.8292 Q86.1563,447.1729 88.6563,447.1729 Q89.3594,447.1729 90,447.3292 Q90.6563,447.4854 91.2188,447.7823 L91.2188,450.501 Q90.5938,449.9229 90,449.6573 Q89.4063,449.376 88.7813,449.376 Q87.4375,449.376 86.75,450.4542 Q86.0625,451.5167 86.0625,453.6104 Q86.0625,455.7042 86.75,456.7823 Q87.4375,457.8448 88.7813,457.8448 Q89.4063,457.8448 90,457.5792 Q90.5938,457.2979 91.2188,456.7198 L91.2188,459.4385 Z " fill="#000000"/><text fill="#000000" font-family="sans-serif" font-size="14" lengthAdjust="spacing" textLength="37" x="108.75" y="459.2299">Trace</text><line style="stroke:#181818;stroke-width:0.5;" x1="23" x2="199" y1="469.7979" y2="469.7979"/><ellipse cx="33" cy="484.8319" fill="none" rx="3" ry="3" style="stroke:#038048;stroke-width:1.0;"/><text fill="#000000" font-family="sans-serif" font-size="14" lengthAdjust="spacing" textLength="152" x="42" y="488.7639">slices: List&lt;TraceSlice&gt;</text><line style="stroke:#181818;stroke-width:0.5;" x1="23" x2="199" y1="496.8658" y2="496.8658"/></g><!--class TraceSlice--><g id="elem_TraceSlice"><rect codeLine="7" fill="#F1F1F1" height="124.2717" id="TraceSlice" rx="2.5" ry="2.5" style="stroke:#181818;stroke-width:0.5;" width="130" x="46" y="584.7979"/><ellipse cx="74.5" cy="600.7979" fill="#ADD1B2" rx="11" ry="11" style="stroke:#181818;stroke-width:1.0;"/><path d="M77.4688,606.4385 Q76.8906,606.7354 76.25,606.876 Q75.6094,607.0323 74.9063,607.0323 Q72.4063,607.0323 71.0781,605.3917 Q69.7656,603.7354 69.7656,600.6104 Q69.7656,597.4854 71.0781,595.8292 Q72.4063,594.1729 74.9063,594.1729 Q75.6094,594.1729 76.25,594.3292 Q76.9063,594.4854 77.4688,594.7823 L77.4688,597.501 Q76.8438,596.9229 76.25,596.6573 Q75.6563,596.376 75.0313,596.376 Q73.6875,596.376 73,597.4542 Q72.3125,598.5167 72.3125,600.6104 Q72.3125,602.7042 73,603.7823 Q73.6875,604.8448 75.0313,604.8448 Q75.6563,604.8448 76.25,604.5792 Q76.8438,604.2979 77.4688,603.7198 L77.4688,606.4385 Z " fill="#000000"/><text fill="#000000" font-family="sans-serif" font-size="14" lengthAdjust="spacing" textLength="68" x="91.5" y="606.2299">TraceSlice</text><line style="stroke:#181818;stroke-width:0.5;" x1="47" x2="175" y1="616.7979" y2="616.7979"/><ellipse cx="57" cy="631.8319" fill="none" rx="3" ry="3" style="stroke:#038048;stroke-width:1.0;"/><text fill="#000000" font-family="sans-serif" font-size="14" lengthAdjust="spacing" textLength="70" x="66" y="635.7639">pid: string</text><ellipse cx="57" cy="650.8998" fill="none" rx="3" ry="3" style="stroke:#038048;stroke-width:1.0;"/><text fill="#000000" font-family="sans-serif" font-size="14" lengthAdjust="spacing" textLength="104" x="66" y="654.8318">tInicio: number</text><ellipse cx="57" cy="669.9677" fill="none" rx="3" ry="3" style="stroke:#038048;stroke-width:1.0;"/><text fill="#000000" font-family="sans-serif" font-size="14" lengthAdjust="spacing" textLength="87" x="66" y="673.8997">tFin: number</text><ellipse cx="57" cy="689.0356" fill="none" rx="3" ry="3" style="stroke:#038048;stroke-width:1.0;"/><text fill="#000000" font-family="sans-serif" font-size="14" lengthAdjust="spacing" textLength="94" x="66" y="692.9676">tipo: SliceTipo</text><line style="stroke:#181818;stroke-width:0.5;" x1="47" x2="175" y1="701.0696" y2="701.0696"/></g><!--class SliceTipo--><g id="elem_SliceTipo"><rect codeLine="13" fill="#F1F1F1" height="143.3396" id="SliceTipo" rx="2.5" ry="2.5" style="stroke:#181818;stroke-width:0.5;" width="92" x="65" y="769.7979"/><ellipse cx="80" cy="785.7979" fill="#EB937F" rx="11" ry="11" style="stroke:#181818;stroke-width:1.0;"/><path d="M84.1094,791.7979 L76.3906,791.7979 L76.3906,779.4073 L84.1094,779.4073 L84.1094,781.5635 L78.8438,781.5635 L78.8438,784.2354 L83.6094,784.2354 L83.6094,786.3917 L78.8438,786.3917 L78.8438,789.6417 L84.1094,789.6417 L84.1094,791.7979 Z " fill="#000000"/><text fill="#000000" font-family="sans-serif" font-size="14" lengthAdjust="spacing" textLength="60" x="94" y="791.2299">SliceTipo</text><line style="stroke:#181818;stroke-width:0.5;" x1="66" x2="156" y1="801.7979" y2="801.7979"/><text fill="#000000" font-family="sans-serif" font-size="14" lengthAdjust="spacing" textLength="27" x="71" y="820.7639">CPU</text><text fill="#000000" font-family="sans-serif" font-size="14" lengthAdjust="spacing" textLength="25" x="71" y="839.8318">TCP</text><text fill="#000000" font-family="sans-serif" font-size="14" lengthAdjust="spacing" textLength="21" x="71" y="858.8997">TIP</text><text fill="#000000" font-family="sans-serif" font-size="14" lengthAdjust="spacing" textLength="23" x="71" y="877.9676">TFP</text><text fill="#000000" font-family="sans-serif" font-size="14" lengthAdjust="spacing" textLength="16" x="71" y="897.0355">IO</text><line style="stroke:#181818;stroke-width:0.5;" x1="66" x2="156" y1="905.1375" y2="905.1375"/></g><!--class GanttBuilder--><g id="elem_GanttBuilder"><rect codeLine="23" fill="#F1F1F1" height="124.2717" id="GanttBuilder" rx="2.5" ry="2.5" style="stroke:#181818;stroke-width:0.5;" width="407" x="256.5" y="143.7979"/><ellipse cx="412.75" cy="159.7979" fill="#ADD1B2" rx="11" ry="11" style="stroke:#181818;stroke-width:1.0;"/><path d="M415.7188,165.4385 Q415.1406,165.7354 414.5,165.876 Q413.8594,166.0323 413.1563,166.0323 Q410.6563,166.0323 409.3281,164.3917 Q408.0156,162.7354 408.0156,159.6104 Q408.0156,156.4854 409.3281,154.8292 Q410.6563,153.1729 413.1563,153.1729 Q413.8594,153.1729 414.5,153.3292 Q415.1563,153.4854 415.7188,153.7823 L415.7188,156.501 Q415.0938,155.9229 414.5,155.6573 Q413.9063,155.376 413.2813,155.376 Q411.9375,155.376 411.25,156.4542 Q410.5625,157.5167 410.5625,159.6104 Q410.5625,161.7042 411.25,162.7823 Q411.9375,163.8448 413.2813,163.8448 Q413.9063,163.8448 414.5,163.5792 Q415.0938,163.2979 415.7188,162.7198 L415.7188,165.4385 Z " fill="#000000"/><text fill="#000000" font-family="sans-serif" font-size="14" lengthAdjust="spacing" textLength="86" x="433.25" y="165.2299">GanttBuilder</text><line style="stroke:#181818;stroke-width:0.5;" x1="257.5" x2="662.5" y1="175.7979" y2="175.7979"/><line style="stroke:#181818;stroke-width:0.5;" x1="257.5" x2="662.5" y1="183.7979" y2="183.7979"/><ellipse cx="267.5" cy="198.8319" fill="#84BE84" rx="3" ry="3" style="stroke:#038048;stroke-width:1.0;"/><text fill="#000000" font-family="sans-serif" font-size="14" lengthAdjust="spacing" textLength="209" x="276.5" y="202.7639">build(trace: Trace): GanttModel</text><rect fill="#F24D5C" height="6" style="stroke:#C82930;stroke-width:1.0;" width="6" x="264.5" y="214.8998"/><text fill="#000000" font-family="sans-serif" font-size="14" lengthAdjust="spacing" textLength="225" x="276.5" y="221.8318">filtrarCPU(slices): List&lt;TraceSlice&gt;</text><rect fill="#F24D5C" height="6" style="stroke:#C82930;stroke-width:1.0;" width="6" x="264.5" y="233.9677"/><text fill="#000000" font-family="sans-serif" font-size="14" lengthAdjust="spacing" textLength="381" x="276.5" y="240.8997">agruparPorPID(slicesCPU): Map&lt;string, List&lt;TraceSlice&gt;&gt;</text><rect fill="#F24D5C" height="6" style="stroke:#C82930;stroke-width:1.0;" width="6" x="264.5" y="253.0356"/><text fill="#000000" font-family="sans-serif" font-size="14" lengthAdjust="spacing" textLength="166" x="276.5" y="259.9676">normalizarHuecos(): void</text></g><!--class GanttModel--><g id="elem_GanttModel"><rect codeLine="29" fill="#F1F1F1" height="105.2038" id="GanttModel" rx="2.5" ry="2.5" style="stroke:#181818;stroke-width:0.5;" width="186" x="439" y="418.7979"/><ellipse cx="488.25" cy="434.7979" fill="#ADD1B2" rx="11" ry="11" style="stroke:#181818;stroke-width:1.0;"/><path d="M491.2188,440.4385 Q490.6406,440.7354 490,440.876 Q489.3594,441.0323 488.6563,441.0323 Q486.1563,441.0323 484.8281,439.3917 Q483.5156,437.7354 483.5156,434.6104 Q483.5156,431.4854 484.8281,429.8292 Q486.1563,428.1729 488.6563,428.1729 Q489.3594,428.1729 490,428.3292 Q490.6563,428.4854 491.2188,428.7823 L491.2188,431.501 Q490.5938,430.9229 490,430.6573 Q489.4063,430.376 488.7813,430.376 Q487.4375,430.376 486.75,431.4542 Q486.0625,432.5167 486.0625,434.6104 Q486.0625,436.7042 486.75,437.7823 Q487.4375,438.8448 488.7813,438.8448 Q489.4063,438.8448 490,438.5792 Q490.5938,438.2979 491.2188,437.7198 L491.2188,440.4385 Z " fill="#000000"/><text fill="#000000" font-family="sans-serif" font-size="14" lengthAdjust="spacing" textLength="79" x="508.75" y="440.2299">GanttModel</text><line style="stroke:#181818;stroke-width:0.5;" x1="440" x2="624" y1="450.7979" y2="450.7979"/><ellipse cx="450" cy="465.8319" fill="none" rx="3" ry="3" style="stroke:#038048;stroke-width:1.0;"/><text fill="#000000" font-family="sans-serif" font-size="14" lengthAdjust="spacing" textLength="160" x="459" y="469.7639">tracks: List&lt;GanttTrack&gt;</text><ellipse cx="450" cy="484.8998" fill="none" rx="3" ry="3" style="stroke:#038048;stroke-width:1.0;"/><text fill="#000000" font-family="sans-serif" font-size="14" lengthAdjust="spacing" textLength="93" x="459" y="488.8318">tMin: number</text><ellipse cx="450" cy="503.9677" fill="none" rx="3" ry="3" style="stroke:#038048;stroke-width:1.0;"/><text fill="#000000" font-family="sans-serif" font-size="14" lengthAdjust="spacing" textLength="95" x="459" y="507.8997">tMax: number</text><line style="stroke:#181818;stroke-width:0.5;" x1="440" x2="624" y1="516.0017" y2="516.0017"/></g><!--class GanttTrack--><g id="elem_GanttTrack"><rect codeLine="34" fill="#F1F1F1" height="86.1358" id="GanttTrack" rx="2.5" ry="2.5" style="stroke:#181818;stroke-width:0.5;" width="201" x="431.5" y="603.7979"/><ellipse cx="491.25" cy="619.7979" fill="#ADD1B2" rx="11" ry="11" style="stroke:#181818;stroke-width:1.0;"/><path d="M494.2188,625.4385 Q493.6406,625.7354 493,625.876 Q492.3594,626.0323 491.6563,626.0323 Q489.1563,626.0323 487.8281,624.3917 Q486.5156,622.7354 486.5156,619.6104 Q486.5156,616.4854 487.8281,614.8292 Q489.1563,613.1729 491.6563,613.1729 Q492.3594,613.1729 493,613.3292 Q493.6563,613.4854 494.2188,613.7823 L494.2188,616.501 Q493.5938,615.9229 493,615.6573 Q492.4063,615.376 491.7813,615.376 Q490.4375,615.376 489.75,616.4542 Q489.0625,617.5167 489.0625,619.6104 Q489.0625,621.7042 489.75,622.7823 Q490.4375,623.8448 491.7813,623.8448 Q492.4063,623.8448 493,623.5792 Q493.5938,623.2979 494.2188,622.7198 L494.2188,625.4385 Z " fill="#000000"/><text fill="#000000" font-family="sans-serif" font-size="14" lengthAdjust="spacing" textLength="73" x="511.75" y="625.2299">GanttTrack</text><line style="stroke:#181818;stroke-width:0.5;" x1="432.5" x2="631.5" y1="635.7979" y2="635.7979"/><ellipse cx="442.5" cy="650.8319" fill="none" rx="3" ry="3" style="stroke:#038048;stroke-width:1.0;"/><text fill="#000000" font-family="sans-serif" font-size="14" lengthAdjust="spacing" textLength="70" x="451.5" y="654.7639">pid: string</text><ellipse cx="442.5" cy="669.8998" fill="none" rx="3" ry="3" style="stroke:#038048;stroke-width:1.0;"/><text fill="#000000" font-family="sans-serif" font-size="14" lengthAdjust="spacing" textLength="175" x="451.5" y="673.8318">segments: List&lt;GanttSeg&gt;</text><line style="stroke:#181818;stroke-width:0.5;" x1="432.5" x2="631.5" y1="681.9338" y2="681.9338"/></g><!--class GanttSeg--><g id="elem_GanttSeg"><rect codeLine="38" fill="#F1F1F1" height="86.1358" id="GanttSeg" rx="2.5" ry="2.5" style="stroke:#181818;stroke-width:0.5;" width="119" x="472.5" y="798.2979"/><ellipse cx="498.75" cy="814.2979" fill="#ADD1B2" rx="11" ry="11" style="stroke:#181818;stroke-width:1.0;"/><path d="M501.7188,819.9385 Q501.1406,820.2354 500.5,820.376 Q499.8594,820.5323 499.1563,820.5323 Q496.6563,820.5323 495.3281,818.8917 Q494.0156,817.2354 494.0156,814.1104 Q494.0156,810.9854 495.3281,809.3292 Q496.6563,807.6729 499.1563,807.6729 Q499.8594,807.6729 500.5,807.8292 Q501.1563,807.9854 501.7188,808.2823 L501.7188,811.001 Q501.0938,810.4229 500.5,810.1573 Q499.9063,809.876 499.2813,809.876 Q497.9375,809.876 497.25,810.9542 Q496.5625,812.0167 496.5625,814.1104 Q496.5625,816.2042 497.25,817.2823 Q497.9375,818.3448 499.2813,818.3448 Q499.9063,818.3448 500.5,818.0792 Q501.0938,817.7979 501.7188,817.2198 L501.7188,819.9385 Z " fill="#000000"/><text fill="#000000" font-family="sans-serif" font-size="14" lengthAdjust="spacing" textLength="62" x="515.25" y="819.7299">GanttSeg</text><line style="stroke:#181818;stroke-width:0.5;" x1="473.5" x2="590.5" y1="830.2979" y2="830.2979"/><ellipse cx="483.5" cy="845.3319" fill="none" rx="3" ry="3" style="stroke:#038048;stroke-width:1.0;"/><text fill="#000000" font-family="sans-serif" font-size="14" lengthAdjust="spacing" textLength="93" x="492.5" y="849.2639">start: number</text><ellipse cx="483.5" cy="864.3998" fill="none" rx="3" ry="3" style="stroke:#038048;stroke-width:1.0;"/><text fill="#000000" font-family="sans-serif" font-size="14" lengthAdjust="spacing" textLength="88" x="492.5" y="868.3318">end: number</text><line style="stroke:#181818;stroke-width:0.5;" x1="473.5" x2="590.5" y1="876.4338" y2="876.4338"/></g><!--class GanttView--><g id="elem_GanttView"><rect codeLine="45" fill="#F1F1F1" height="86.1358" id="GanttView" rx="2.5" ry="2.5" style="stroke:#181818;stroke-width:0.5;" width="245" x="720.5" y="162.7979"/><ellipse cx="804.75" cy="178.7979" fill="#ADD1B2" rx="11" ry="11" style="stroke:#181818;stroke-width:1.0;"/><path d="M807.7188,184.4385 Q807.1406,184.7354 806.5,184.876 Q805.8594,185.0323 805.1563,185.0323 Q802.6563,185.0323 801.3281,183.3917 Q800.0156,181.7354 800.0156,178.6104 Q800.0156,175.4854 801.3281,173.8292 Q802.6563,172.1729 805.1563,172.1729 Q805.8594,172.1729 806.5,172.3292 Q807.1563,172.4854 807.7188,172.7823 L807.7188,175.501 Q807.0938,174.9229 806.5,174.6573 Q805.9063,174.376 805.2813,174.376 Q803.9375,174.376 803.25,175.4542 Q802.5625,176.5167 802.5625,178.6104 Q802.5625,180.7042 803.25,181.7823 Q803.9375,182.8448 805.2813,182.8448 Q805.9063,182.8448 806.5,182.5792 Q807.0938,182.2979 807.7188,181.7198 L807.7188,184.4385 Z " fill="#000000"/><text fill="#000000" font-family="sans-serif" font-size="14" lengthAdjust="spacing" textLength="68" x="825.25" y="184.2299">GanttView</text><line style="stroke:#181818;stroke-width:0.5;" x1="721.5" x2="964.5" y1="194.7979" y2="194.7979"/><line style="stroke:#181818;stroke-width:0.5;" x1="721.5" x2="964.5" y1="202.7979" y2="202.7979"/><ellipse cx="731.5" cy="217.8319" fill="#84BE84" rx="3" ry="3" style="stroke:#038048;stroke-width:1.0;"/><text fill="#000000" font-family="sans-serif" font-size="14" lengthAdjust="spacing" textLength="219" x="740.5" y="221.7639">render(model: GanttModel): void</text><ellipse cx="731.5" cy="236.8998" fill="#84BE84" rx="3" ry="3" style="stroke:#038048;stroke-width:1.0;"/><text fill="#000000" font-family="sans-serif" font-size="14" lengthAdjust="spacing" textLength="212" x="740.5" y="240.8318">onHover(seg: GanttSeg): Tooltip</text></g><g id="elem_GMN20"><path d="M1001,76.7979 L1001,334.6821 L1357,334.6821 L1357,86.7979 L1347,76.7979 L1001,76.7979 " fill="#FEFFDD" style="stroke:#181818;stroke-width:0.5;"/><path d="M1347,76.7979 L1347,86.7979 L1357,86.7979 L1347,76.7979 " fill="#FEFFDD" style="stroke:#181818;stroke-width:1.0;"/><text fill="#000000" font-family="sans-serif" font-size="13" font-weight="bold" lengthAdjust="spacing" textLength="166" x="1007" y="95.6949">GanttBuilder.build(trace)</text><text fill="#000000" font-family="sans-serif" font-size="13" lengthAdjust="spacing" textLength="335" x="1007" y="113.4009">Mapea SOLO slices de CPU a segmentos (pid, start, end).</text><text fill="#000000" font-family="sans-serif" font-size="13" lengthAdjust="spacing" textLength="3" x="1007" y="131.107">&#160;</text><text fill="#000000" font-family="sans-serif" font-size="13" font-weight="bold" lengthAdjust="spacing" textLength="110" x="1007" y="148.813">Reglas de dibujo:</text><text fill="#000000" font-family="sans-serif" font-size="13" lengthAdjust="spacing" textLength="247" x="1007" y="166.519">&#8226; Solo se dibujan slices donde tipo == CPU</text><text fill="#000000" font-family="sans-serif" font-size="13" lengthAdjust="spacing" textLength="219" x="1007" y="184.225">&#8226; TIP/TCP/TFP/IO NO son barras CPU</text><text fill="#000000" font-family="sans-serif" font-size="13" lengthAdjust="spacing" textLength="249" x="1007" y="201.931">&#8226; Opcional: mostrar como marcas/tooltips</text><text fill="#000000" font-family="sans-serif" font-size="13" lengthAdjust="spacing" textLength="262" x="1007" y="219.637">&#8226; Segmentos por PID ordenados por tiempo</text><text fill="#000000" font-family="sans-serif" font-size="13" lengthAdjust="spacing" textLength="203" x="1007" y="237.3431">&#8226; No rellenar huecos "imaginarios"</text><text fill="#000000" font-family="sans-serif" font-size="13" lengthAdjust="spacing" textLength="3" x="1007" y="255.0491">&#160;</text><text fill="#000000" font-family="sans-serif" font-size="13" font-weight="bold" lengthAdjust="spacing" textLength="55" x="1007" y="272.7551">Filtrado:</text><text fill="#000000" font-family="sans-serif" font-size="13" lengthAdjust="spacing" textLength="238" x="1007" y="290.4611">1. filtrarCPU(slices) &#8594; solo SliceType.CPU</text><text fill="#000000" font-family="sans-serif" font-size="13" lengthAdjust="spacing" textLength="286" x="1007" y="308.1671">2. agruparPorPID() &#8594; Map&lt;pid, List&lt;TraceSlice&gt;&gt;</text><text fill="#000000" font-family="sans-serif" font-size="13" lengthAdjust="spacing" textLength="266" x="1007" y="325.8731">3. normalizarHuecos() &#8594; detectar gaps reales</text></g><!--reverse link Trace to TraceSlice--><g id="link_Trace_TraceSlice"><path codeLine="51" d="M111,516.9279 C111,539.3079 111,557.6979 111,584.5179 " fill="none" id="Trace-backto-TraceSlice" style="stroke:#181818;stroke-width:1.0;"/><polygon fill="none" points="111,504.9279,107,510.9279,111,516.9279,115,510.9279,111,504.9279" style="stroke:#181818;stroke-width:1.0;"/><text fill="#000000" font-family="sans-serif" font-size="13" lengthAdjust="spacing" textLength="7" x="103.3547" y="526.6515">1</text><text fill="#000000" font-family="sans-serif" font-size="13" lengthAdjust="spacing" textLength="7" x="103.5734" y="572.8151">*</text></g><!--link TraceSlice to SliceTipo--><g id="link_TraceSlice_SliceTipo"><path codeLine="52" d="M111,708.9679 C111,728.2379 111,743.6779 111,763.5479 " fill="none" id="TraceSlice-to-SliceTipo" style="stroke:#181818;stroke-width:1.0;"/><polygon fill="#181818" points="111,769.5479,115,760.5479,111,764.5479,107,760.5479,111,769.5479" style="stroke:#181818;stroke-width:1.0;"/></g><!--link GanttBuilder to Trace--><g id="link_GanttBuilder_Trace"><path codeLine="53" d="M379.06,267.9079 C308.98,320.8179 215.1188,391.693 159.1088,433.973 " fill="none" id="GanttBuilder-to-Trace" style="stroke:#181818;stroke-width:1.0;stroke-dasharray:7.0,7.0;"/><polygon fill="#181818" points="154.32,437.5879,163.9131,435.3581,158.3107,434.5755,159.0933,428.973,154.32,437.5879" style="stroke:#181818;stroke-width:1.0;"/><text fill="#000000" font-family="sans-serif" font-size="13" lengthAdjust="spacing" textLength="27" x="244" y="379.6949">uses</text></g><!--link GanttBuilder to GanttModel--><g id="link_GanttBuilder_GanttModel"><path codeLine="54" d="M476.7,267.9079 C489.16,313.5179 504.4288,369.38 516.2388,412.61 " fill="none" id="GanttBuilder-to-GanttModel" style="stroke:#181818;stroke-width:1.0;stroke-dasharray:7.0,7.0;"/><polygon fill="#181818" points="517.82,418.3979,519.3068,408.6619,516.5023,413.5747,511.5896,410.7702,517.82,418.3979" style="stroke:#181818;stroke-width:1.0;"/><text fill="#000000" font-family="sans-serif" font-size="13" lengthAdjust="spacing" textLength="43" x="507" y="379.6949">creates</text></g><!--reverse link GanttModel to GanttTrack--><g id="link_GanttModel_GanttTrack"><path codeLine="55" d="M532,535.8879 C532,561.3579 532,579.6979 532,603.7379 " fill="none" id="GanttModel-backto-GanttTrack" style="stroke:#181818;stroke-width:1.0;"/><polygon fill="none" points="532,523.8879,528,529.8879,532,535.8879,536,529.8879,532,523.8879" style="stroke:#181818;stroke-width:1.0;"/><text fill="#000000" font-family="sans-serif" font-size="13" lengthAdjust="spacing" textLength="7" x="524.5297" y="546.0276">1</text><text fill="#000000" font-family="sans-serif" font-size="13" lengthAdjust="spacing" textLength="7" x="524.4203" y="592.1425">*</text></g><!--reverse link GanttTrack to GanttSeg--><g id="link_GanttTrack_GanttSeg"><path codeLine="56" d="M532,702.0379 C532,734.1379 532,766.0779 532,798.1479 " fill="none" id="GanttTrack-backto-GanttSeg" style="stroke:#181818;stroke-width:1.0;"/><polygon fill="none" points="532,690.0379,528,696.0379,532,702.0379,536,696.0379,532,690.0379" style="stroke:#181818;stroke-width:1.0;"/><text fill="#000000" font-family="sans-serif" font-size="13" lengthAdjust="spacing" textLength="7" x="524.4641" y="711.9013">1</text><text fill="#000000" font-family="sans-serif" font-size="13" lengthAdjust="spacing" textLength="7" x="524.4203" y="786.5376">*</text></g><!--link GanttView to GanttModel--><g id="link_GanttView_GanttModel"><path codeLine="57" d="M793.38,248.8379 C738.93,294.9779 656.0776,365.169 597.5076,414.799 " fill="none" id="GanttView-to-GanttModel" style="stroke:#181818;stroke-width:1.0;stroke-dasharray:7.0,7.0;"/><polygon fill="#181818" points="592.93,418.6779,602.3823,415.9113,596.7447,415.4455,597.2105,409.8079,592.93,418.6779" style="stroke:#181818;stroke-width:1.0;"/><text fill="#000000" font-family="sans-serif" font-size="13" lengthAdjust="spacing" textLength="46" x="651" y="379.6949">renders</text></g><!--link GanttBuilder to GMN20--><g id="link_GanttBuilder_GMN20"><path d="M546.35,143.7579 C595.19,112.4979 658.88,77.8979 721.5,61.7979 C773.8,48.3479 912.84,46.0679 964.5,61.7979 C977.59,65.7879 990.6,70.8679 1003.37,76.7179 " fill="none" id="GanttBuilder-GMN20" style="stroke:#181818;stroke-width:1.0;stroke-dasharray:7.0,7.0;"/></g><!--SRC=[TLHBRjim4Dth50EjR3UMaNOd95uqHHe3SMpKJlUqD5NOI1o1fDCV0cJL0nGzGO-MatH8IhOKjIjACs_-RyPAMo9SK5MJGcNHmFFJRrZB6akf47A4zq9P6qMroEv5WH1VaCRPLeiCO_WH0MIbC0QymFy3l3AbpD2aS2sDFVEQZPFCMVlOj_3orgoMUGh6QgcA8B0B9JD9AQXzjKFT22-bUY6HDMEygor_Db6G8KTX4-DYVUlVxSKwl8lclGplOkMj7plr-lhXxLwMEUfkoLxHoDiITkvtP5rfQQXmd0RWad8iFMZwIPQCq9pBA7Hg_CzMCL8KUbyBlIQzNhnhm6p6-AMepqAhJWQsZR4YNObIVXVwQeyPcH6RFP3CUrCuvjQMu9A_RuVdrSxr_RpHBWVTNugl7SaBrzxslmCsM5JCkbwq3HRpeH-M7jXbXRRz753blHIwyxjT38RsKUANrfjcMzIZohMWEwfZinX4weeU6CNvfeTy6B4bAfbzRSom1F5f33ITGZo9EoIFEdoVJkSTklPub2JpPfTIs1iqGsrdOYba6eLjKK7O3NySGTIPnW31nKJ7nWo2X1QPA59a4RGixYpGfnx_eyca-vjqzc0ycKJCLXImMLsl893O7HOcCWXeA406HaoF4_3JFU7jpST9n6u_OC63S_XSxlQVAMLtpqz_O4CbiN6G2dNmIvmhk8i0v-T-tHsOrtp6Ap_ZDPyjLd33QP22dT2QNRUWLSstHWbcGKN6BIXaL15KGcV2p6mOjGd13qdNf85t4qZdg4JUIAn4FgWUUaFSlx9afOOxluSGoqeKaWMIJEnglFG78VUrdIOml0_m_FCNfymL1zfygp5nQRzEe7yY0j8T1z_CuMLuay3mBdYZ72rct7meH6quPr4ohtWCuAR-5m00]--></g></svg>