<?xml version="1.0" encoding="us-ascii" standalone="no"?><svg xmlns="http://www.w3.org/2000/svg" xmlns:xlink="http://www.w3.org/1999/xlink" contentStyleType="text/css" height="2538px" preserveAspectRatio="none" style="width:1429px;height:2538px;background:#FFFFFF;" version="1.1" viewBox="0 0 1429 2538" width="1429px" zoomAndPan="magnify"><defs/><g><text fill="#000000" font-family="sans-serif" font-size="14" font-weight="bold" lengthAdjust="spacing" textLength="385" x="520.75" y="34.9659">Flujo de Ejecucion del Simulador - Event Loop Detallado</text><ellipse cx="709.75" cy="60.0679" fill="#222222" rx="10" ry="10" style="stroke:#222222;stroke-width:1.0;"/><rect fill="none" height="538.1649" style="stroke:#000000;stroke-width:1.5;" width="509" x="549.75" y="80.0679"/><path d="M699.75,80.0679 L699.75,92.1358 L689.75,102.1358 L549.75,102.1358 " fill="none" style="stroke:#000000;stroke-width:1.5;"/><text fill="#000000" font-family="sans-serif" font-size="14" lengthAdjust="spacing" textLength="140" x="552.75" y="96.0339">FASE 1: Inicializacion</text><rect fill="#F1F1F1" height="36.3441" rx="12.5" ry="12.5" style="stroke:#181818;stroke-width:0.5;" width="228" x="595.75" y="119.1358"/><text fill="#000000" font-family="sans-serif" font-size="12" lengthAdjust="spacing" textLength="208" x="605.75" y="141.9639">Recibir Procesos[] + SimulationConfig</text><rect fill="#F1F1F1" height="36.3441" rx="12.5" ry="12.5" style="stroke:#181818;stroke-width:0.5;" width="300" x="559.75" y="175.4799"/><text fill="#000000" font-family="sans-serif" font-size="12" lengthAdjust="spacing" textLength="280" x="569.75" y="198.308">Validar entrada y clonar procesos defensivamente</text><rect fill="#F1F1F1" height="36.3441" rx="12.5" ry="12.5" style="stroke:#181818;stroke-width:0.5;" width="246" x="586.75" y="231.8241"/><text fill="#000000" font-family="sans-serif" font-size="12" lengthAdjust="spacing" textLength="226" x="596.75" y="254.6522">Crear costos = costosFromUI(cfg.costos)</text><path d="M845.75,292.4872 L845.75,302.3402 L825.75,306.3402 L845.75,310.3402 L845.75,320.1932 A0,0 0 0 0 845.75,320.1932 L1048.75,320.1932 A0,0 0 0 0 1048.75,320.1932 L1048.75,302.4872 L1038.75,292.4872 L845.75,292.4872 A0,0 0 0 0 845.75,292.4872 " fill="#FEFFDD" style="stroke:#181818;stroke-width:0.5;"/><path d="M1038.75,292.4872 L1038.75,302.4872 L1048.75,302.4872 L1038.75,292.4872 " fill="#FEFFDD" style="stroke:#181818;stroke-width:0.5;"/><text fill="#000000" font-family="sans-serif" font-size="13" lengthAdjust="spacing" textLength="182" x="851.75" y="311.3842">FCFS, RR, SPN, SRTN, PRIORITY</text><rect fill="#F1F1F1" height="36.3441" rx="12.5" ry="12.5" style="stroke:#181818;stroke-width:0.5;" width="232" x="593.75" y="288.1682"/><text fill="#000000" font-family="sans-serif" font-size="12" lengthAdjust="spacing" textLength="212" x="603.75" y="310.9963">Elegir runner = getRunner(cfg.politica)</text><rect fill="#F1F1F1" height="36.3441" rx="12.5" ry="12.5" style="stroke:#181818;stroke-width:0.5;" width="187" x="616.25" y="344.5123"/><text fill="#000000" font-family="sans-serif" font-size="12" lengthAdjust="spacing" textLength="167" x="626.25" y="367.3404">Crear EventQueue (min-heap)</text><rect fill="#F1F1F1" height="36.3441" rx="12.5" ry="12.5" style="stroke:#181818;stroke-width:0.5;" width="248" x="585.75" y="400.8564"/><text fill="#000000" font-family="sans-serif" font-size="12" lengthAdjust="spacing" textLength="228" x="595.75" y="423.6845">Crear Runtime Map (estado por proceso)</text><rect fill="#F1F1F1" height="36.3441" rx="12.5" ry="12.5" style="stroke:#181818;stroke-width:0.5;" width="251" x="584.25" y="457.2005"/><text fill="#000000" font-family="sans-serif" font-size="12" lengthAdjust="spacing" textLength="231" x="594.25" y="480.0286">Crear CPU State {pid: null, sliceStart: null}</text><rect fill="#F1F1F1" height="36.3441" rx="12.5" ry="12.5" style="stroke:#181818;stroke-width:0.5;" width="191" x="614.25" y="513.5446"/><text fill="#000000" font-family="sans-serif" font-size="12" lengthAdjust="spacing" textLength="171" x="624.25" y="536.3727">Crear Scheduler segun politica</text><path d="M857.25,574.2078 L857.25,584.0608 L837.25,588.0608 L857.25,592.0608 L857.25,601.9138 A0,0 0 0 0 857.25,601.9138 L1015.25,601.9138 A0,0 0 0 0 1015.25,601.9138 L1015.25,584.2078 L1005.25,574.2078 L857.25,574.2078 A0,0 0 0 0 857.25,574.2078 " fill="#FEFFDD" style="stroke:#181818;stroke-width:0.5;"/><path d="M1005.25,574.2078 L1005.25,584.2078 L1015.25,584.2078 L1005.25,574.2078 " fill="#FEFFDD" style="stroke:#181818;stroke-width:0.5;"/><text fill="#000000" font-family="sans-serif" font-size="13" lengthAdjust="spacing" textLength="137" x="863.25" y="593.1048">t = proceso.arribo + TIP</text><rect fill="#F1F1F1" height="36.3441" rx="12.5" ry="12.5" style="stroke:#181818;stroke-width:0.5;" width="255" x="582.25" y="569.8887"/><text fill="#000000" font-family="sans-serif" font-size="12" lengthAdjust="spacing" textLength="235" x="592.25" y="592.7168">Programar eventos N-&gt;L (ADMIT) iniciales</text><rect fill="none" height="609.8406" style="stroke:#000000;stroke-width:1.5;" width="1407.5" x="11" y="628.2329"/><path d="M209,628.2329 L209,640.3008 L199,650.3008 L11,650.3008 " fill="none" style="stroke:#000000;stroke-width:1.5;"/><text fill="#000000" font-family="sans-serif" font-size="14" lengthAdjust="spacing" textLength="188" x="14" y="644.1988">FASE 2: Event Loop Principal</text><path d="M811.75,728.8787 L811.75,738.7317 L791.75,742.7317 L811.75,746.7317 L811.75,756.5848 A0,0 0 0 0 811.75,756.5848 L1044.75,756.5848 A0,0 0 0 0 1044.75,756.5848 L1044.75,738.8787 L1034.75,728.8787 L811.75,728.8787 A0,0 0 0 0 811.75,728.8787 " fill="#FEFFDD" style="stroke:#181818;stroke-width:0.5;"/><path d="M1034.75,728.8787 L1034.75,738.8787 L1044.75,738.8787 L1034.75,728.8787 " fill="#FEFFDD" style="stroke:#181818;stroke-width:0.5;"/><text fill="#000000" font-family="sans-serif" font-size="13" lengthAdjust="spacing" textLength="212" x="817.75" y="747.7758">Orden: (t ASC, priority ASC, seq ASC)</text><rect fill="#F1F1F1" height="36.3441" rx="12.5" ry="12.5" style="stroke:#181818;stroke-width:0.5;" width="164" x="627.75" y="724.5597"/><text fill="#000000" font-family="sans-serif" font-size="12" lengthAdjust="spacing" textLength="144" x="637.75" y="747.3878">event = eventQueue.pop()</text><rect fill="#F1F1F1" height="36.3441" rx="12.5" ry="12.5" style="stroke:#181818;stroke-width:0.5;" width="193" x="613.25" y="780.9038"/><text fill="#000000" font-family="sans-serif" font-size="12" lengthAdjust="spacing" textLength="173" x="623.25" y="803.7319">Actualizar currentTick = event.t</text><rect fill="#F1F1F1" height="36.3441" rx="12.5" ry="12.5" style="stroke:#181818;stroke-width:0.5;" width="189" x="615.25" y="837.2479"/><text fill="#000000" font-family="sans-serif" font-size="12" lengthAdjust="spacing" textLength="169" x="625.25" y="860.076">Agregar evento a trace.events</text><polygon fill="#F1F1F1" points="682.25,893.592,737.25,893.592,749.25,905.592,737.25,917.592,682.25,917.592,670.25,905.592,682.25,893.592" style="stroke:#181818;stroke-width:0.5;"/><text fill="#000000" font-family="sans-serif" font-size="11" lengthAdjust="spacing" textLength="55" x="682.25" y="909.86">event.type</text><rect fill="#F1F1F1" height="36.3441" rx="12.5" ry="12.5" style="stroke:#181818;stroke-width:0.5;" width="150" x="50.5" y="957.3419"/><text fill="#000000" font-family="sans-serif" font-size="12" lengthAdjust="spacing" textLength="130" x="60.5" y="980.17">scheduler.onAdmit(pid)</text><rect fill="#F1F1F1" height="36.3441" rx="12.5" ry="12.5" style="stroke:#181818;stroke-width:0.5;" width="173" x="39" y="1021.0411"/><text fill="#000000" font-family="sans-serif" font-size="12" lengthAdjust="spacing" textLength="153" x="49" y="1043.8692">Intentar despacharSiLibre()</text><rect fill="#F1F1F1" height="36.3441" rx="12.5" ry="12.5" style="stroke:#181818;stroke-width:0.5;" width="151" x="286.5" y="957.3419"/><text fill="#000000" font-family="sans-serif" font-size="12" lengthAdjust="spacing" textLength="131" x="296.5" y="980.17">Asignar CPU al proceso</text><rect fill="#F1F1F1" height="36.3441" rx="12.5" ry="12.5" style="stroke:#181818;stroke-width:0.5;" width="223" x="250.5" y="1021.0411"/><text fill="#000000" font-family="sans-serif" font-size="12" lengthAdjust="spacing" textLength="203" x="260.5" y="1043.8692">cpu.pid = pid; cpu.sliceStart = t + TCP</text><rect fill="#F1F1F1" height="36.3441" rx="12.5" ry="12.5" style="stroke:#181818;stroke-width:0.5;" width="197" x="263.5" y="1077.3852"/><text fill="#000000" font-family="sans-serif" font-size="12" lengthAdjust="spacing" textLength="177" x="273.5" y="1100.2133">Calcular tiempos de finalizacion</text><rect fill="#F1F1F1" height="36.3441" rx="12.5" ry="12.5" style="stroke:#181818;stroke-width:0.5;" width="280" x="222" y="1133.7293"/><text fill="#000000" font-family="sans-serif" font-size="12" lengthAdjust="spacing" textLength="260" x="232" y="1156.5574">Programar eventos futuros (C-&gt;T, C-&gt;B, Timer)</text><rect fill="#F1F1F1" height="36.3441" rx="12.5" ry="12.5" style="stroke:#181818;stroke-width:0.5;" width="122" x="552" y="957.3419"/><text fill="#000000" font-family="sans-serif" font-size="12" lengthAdjust="spacing" textLength="102" x="562" y="980.17">Cerrar slice actual</text><rect fill="#F1F1F1" height="36.3441" rx="12.5" ry="12.5" style="stroke:#181818;stroke-width:0.5;" width="147" x="539.5" y="1021.0411"/><text fill="#000000" font-family="sans-serif" font-size="12" lengthAdjust="spacing" textLength="127" x="549.5" y="1043.8692">scheduler.onBlock(pid)</text><rect fill="#F1F1F1" height="36.3441" rx="12.5" ry="12.5" style="stroke:#181818;stroke-width:0.5;" width="202" x="512" y="1077.3852"/><text fill="#000000" font-family="sans-serif" font-size="12" lengthAdjust="spacing" textLength="182" x="522" y="1100.2133">Programar B-&gt;L @ t + bloqueoES</text><rect fill="#F1F1F1" height="36.3441" rx="12.5" ry="12.5" style="stroke:#181818;stroke-width:0.5;" width="173" x="526.5" y="1133.7293"/><text fill="#000000" font-family="sans-serif" font-size="12" lengthAdjust="spacing" textLength="153" x="536.5" y="1156.5574">Intentar despacharSiLibre()</text><rect fill="#F1F1F1" height="36.3441" rx="12.5" ry="12.5" style="stroke:#181818;stroke-width:0.5;" width="192" x="734" y="957.3419"/><text fill="#000000" font-family="sans-serif" font-size="12" lengthAdjust="spacing" textLength="172" x="744" y="980.17">Avanzar a proxima rafaga CPU</text><rect fill="#F1F1F1" height="36.3441" rx="12.5" ry="12.5" style="stroke:#181818;stroke-width:0.5;" width="151" x="754.5" y="1021.0411"/><text fill="#000000" font-family="sans-serif" font-size="12" lengthAdjust="spacing" textLength="131" x="764.5" y="1043.8692">scheduler.onReady(pid)</text><rect fill="#F1F1F1" height="36.3441" rx="12.5" ry="12.5" style="stroke:#181818;stroke-width:0.5;" width="173" x="743.5" y="1077.3852"/><text fill="#000000" font-family="sans-serif" font-size="12" lengthAdjust="spacing" textLength="153" x="753.5" y="1100.2133">Intentar despacharSiLibre()</text><rect fill="#F1F1F1" height="36.3441" rx="12.5" ry="12.5" style="stroke:#181818;stroke-width:0.5;" width="112" x="1001" y="957.3419"/><text fill="#000000" font-family="sans-serif" font-size="12" lengthAdjust="spacing" textLength="92" x="1011" y="980.17">Cerrar slice final</text><rect fill="#F1F1F1" height="36.3441" rx="12.5" ry="12.5" style="stroke:#181818;stroke-width:0.5;" width="149" x="982.5" y="1021.0411"/><text fill="#000000" font-family="sans-serif" font-size="12" lengthAdjust="spacing" textLength="129" x="992.5" y="1043.8692">scheduler.onFinish(pid)</text><rect fill="#F1F1F1" height="36.3441" rx="12.5" ry="12.5" style="stroke:#181818;stroke-width:0.5;" width="222" x="946" y="1077.3852"/><text fill="#000000" font-family="sans-serif" font-size="12" lengthAdjust="spacing" textLength="202" x="956" y="1100.2133">Trazar overhead TFP si corresponde</text><rect fill="#F1F1F1" height="36.3441" rx="12.5" ry="12.5" style="stroke:#181818;stroke-width:0.5;" width="122" x="1217.5" y="957.3419"/><text fill="#000000" font-family="sans-serif" font-size="12" lengthAdjust="spacing" textLength="102" x="1227.5" y="980.17">Cerrar slice actual</text><rect fill="#F1F1F1" height="36.3441" rx="12.5" ry="12.5" style="stroke:#181818;stroke-width:0.5;" width="201" x="1178" y="1021.0411"/><text fill="#000000" font-family="sans-serif" font-size="12" lengthAdjust="spacing" textLength="181" x="1188" y="1043.8692">scheduler.onDesalojoActual(pid)</text><rect fill="#F1F1F1" height="36.3441" rx="12.5" ry="12.5" style="stroke:#181818;stroke-width:0.5;" width="173" x="1192" y="1077.3852"/><text fill="#000000" font-family="sans-serif" font-size="12" lengthAdjust="spacing" textLength="153" x="1202" y="1100.2133">Intentar despacharSiLibre()</text><polygon fill="#F1F1F1" points="709.75,1180.0735,709.75,1180.0735,721.75,1192.0735,709.75,1204.0735,709.75,1204.0735,697.75,1192.0735,709.75,1180.0735" style="stroke:#181818;stroke-width:0.5;"/><polygon fill="#F1F1F1" points="652.25,667.3008,767.25,667.3008,779.25,679.3008,767.25,691.3008,652.25,691.3008,640.25,679.3008,652.25,667.3008" style="stroke:#181818;stroke-width:0.5;"/><text fill="#000000" font-family="sans-serif" font-size="11" lengthAdjust="spacing" textLength="8" x="713.75" y="703.0597">si</text><text fill="#000000" font-family="sans-serif" font-size="11" lengthAdjust="spacing" textLength="115" x="652.25" y="683.5687">EventQueue no vacia?</text><text fill="#000000" font-family="sans-serif" font-size="11" lengthAdjust="spacing" textLength="14" x="626.25" y="676.0778">no</text><rect fill="none" height="408.9353" style="stroke:#000000;stroke-width:1.5;" width="239" x="596.25" y="1248.0735"/><path d="M808.25,1248.0735 L808.25,1260.1414 L798.25,1270.1414 L596.25,1270.1414 " fill="none" style="stroke:#000000;stroke-width:1.5;"/><text fill="#000000" font-family="sans-serif" font-size="14" lengthAdjust="spacing" textLength="202" x="599.25" y="1264.0394">FASE 3: Despacho de Procesos</text><rect fill="#F1F1F1" height="36.3441" rx="12.5" ry="12.5" style="stroke:#181818;stroke-width:0.5;" width="177" x="621.25" y="1287.1414"/><text fill="#000000" font-family="sans-serif" font-size="12" lengthAdjust="spacing" textLength="157" x="631.25" y="1309.9695">function despacharSiLibre(t)</text><polygon fill="#F1F1F1" points="672.25,1343.4855,747.25,1343.4855,759.25,1355.4855,747.25,1367.4855,672.25,1367.4855,660.25,1355.4855,672.25,1343.4855" style="stroke:#181818;stroke-width:0.5;"/><text fill="#000000" font-family="sans-serif" font-size="11" lengthAdjust="spacing" textLength="75" x="672.25" y="1359.7535">CPU ocupada?</text><text fill="#000000" font-family="sans-serif" font-size="11" lengthAdjust="spacing" textLength="8" x="759.25" y="1352.2625">si</text><ellipse cx="792.25" cy="1355.4855" fill="none" rx="11" ry="11" style="stroke:#222222;stroke-width:1.0;"/><ellipse cx="792.25" cy="1355.4855" fill="#222222" rx="6" ry="6" style="stroke:#222222;stroke-width:1.0;"/><rect fill="#F1F1F1" height="36.3441" rx="12.5" ry="12.5" style="stroke:#181818;stroke-width:0.5;" width="164" x="627.75" y="1387.4855"/><text fill="#000000" font-family="sans-serif" font-size="12" lengthAdjust="spacing" textLength="144" x="637.75" y="1410.3136">nextPid = scheduler.next()</text><rect fill="#F1F1F1" height="36.3441" rx="12.5" ry="12.5" style="stroke:#181818;stroke-width:0.5;" width="130" x="644.75" y="1493.3205"/><text fill="#000000" font-family="sans-serif" font-size="12" lengthAdjust="spacing" textLength="110" x="654.75" y="1516.1486">Programar L-&gt;C @ t</text><rect fill="#F1F1F1" height="36.3441" rx="12.5" ry="12.5" style="stroke:#181818;stroke-width:0.5;" width="187" x="616.25" y="1564.6647"/><text fill="#000000" font-family="sans-serif" font-size="12" lengthAdjust="spacing" textLength="167" x="626.25" y="1587.4928">Marcar pendingDispatchAt = t</text><polygon fill="#F1F1F1" points="658.25,1443.8296,761.25,1443.8296,773.25,1455.8296,761.25,1467.8296,658.25,1467.8296,646.25,1455.8296,658.25,1443.8296" style="stroke:#181818;stroke-width:0.5;"/><text fill="#000000" font-family="sans-serif" font-size="11" lengthAdjust="spacing" textLength="8" x="713.75" y="1479.5885">si</text><text fill="#000000" font-family="sans-serif" font-size="11" lengthAdjust="spacing" textLength="103" x="658.25" y="1460.0976">nextPid disponible?</text><polygon fill="#F1F1F1" points="709.75,1621.0088,721.75,1633.0088,709.75,1645.0088,697.75,1633.0088,709.75,1621.0088" style="stroke:#181818;stroke-width:0.5;"/><rect fill="none" height="551.9172" style="stroke:#000000;stroke-width:1.5;" width="401" x="521.25" y="1667.0088"/><path d="M744.25,1667.0088 L744.25,1679.0767 L734.25,1689.0767 L521.25,1689.0767 " fill="none" style="stroke:#000000;stroke-width:1.5;"/><text fill="#000000" font-family="sans-serif" font-size="14" lengthAdjust="spacing" textLength="213" x="524.25" y="1682.9747">FASE 4: Control de Expropiacion</text><rect fill="#F1F1F1" height="36.3441" rx="12.5" ry="12.5" style="stroke:#181818;stroke-width:0.5;" width="243" x="588.25" y="1755.5676"/><text fill="#000000" font-family="sans-serif" font-size="12" lengthAdjust="spacing" textLength="223" x="598.25" y="1778.3957">function tryPreemptIfNeeded(t, pidNew)</text><rect fill="#F1F1F1" height="36.3441" rx="12.5" ry="12.5" style="stroke:#181818;stroke-width:0.5;" width="317" x="551.25" y="1861.4027"/><text fill="#000000" font-family="sans-serif" font-size="12" lengthAdjust="spacing" textLength="297" x="561.25" y="1884.2308">shouldPreempt = scheduler.compareForPreemption()</text><rect fill="#F1F1F1" height="36.3441" rx="12.5" ry="12.5" style="stroke:#181818;stroke-width:0.5;" width="189" x="615.25" y="1967.2378"/><text fill="#000000" font-family="sans-serif" font-size="12" lengthAdjust="spacing" textLength="169" x="625.25" y="1990.0658">Programar C-&gt;L (preempt) @ t</text><rect fill="#F1F1F1" height="36.3441" rx="12.5" ry="12.5" style="stroke:#181818;stroke-width:0.5;" width="122" x="648.75" y="2038.5819"/><text fill="#000000" font-family="sans-serif" font-size="12" lengthAdjust="spacing" textLength="102" x="658.75" y="2061.41">Cerrar slice actual</text><polygon fill="#F1F1F1" points="666.75,1917.7468,752.75,1917.7468,764.75,1929.7468,752.75,1941.7468,666.75,1941.7468,654.75,1929.7468,666.75,1917.7468" style="stroke:#181818;stroke-width:0.5;"/><text fill="#000000" font-family="sans-serif" font-size="11" lengthAdjust="spacing" textLength="8" x="713.75" y="1953.5057">si</text><text fill="#000000" font-family="sans-serif" font-size="11" lengthAdjust="spacing" textLength="86" x="666.75" y="1934.0148">shouldPreempt?</text><polygon fill="#F1F1F1" points="709.75,2094.926,721.75,2106.926,709.75,2118.926,697.75,2106.926,709.75,2094.926" style="stroke:#181818;stroke-width:0.5;"/><polygon fill="#F1F1F1" points="672.25,1811.9118,747.25,1811.9118,759.25,1823.9118,747.25,1835.9118,672.25,1835.9118,660.25,1823.9118,672.25,1811.9118" style="stroke:#181818;stroke-width:0.5;"/><text fill="#000000" font-family="sans-serif" font-size="11" lengthAdjust="spacing" textLength="8" x="713.75" y="1847.6707">si</text><text fill="#000000" font-family="sans-serif" font-size="11" lengthAdjust="spacing" textLength="75" x="672.25" y="1828.1797">CPU ocupada?</text><polygon fill="#F1F1F1" points="709.75,2138.926,721.75,2150.926,709.75,2162.926,697.75,2150.926,709.75,2138.926" style="stroke:#181818;stroke-width:0.5;"/><polygon fill="#F1F1F1" points="646.25,1706.0767,773.25,1706.0767,785.25,1718.0767,773.25,1730.0767,646.25,1730.0767,634.25,1718.0767,646.25,1706.0767" style="stroke:#181818;stroke-width:0.5;"/><text fill="#000000" font-family="sans-serif" font-size="11" lengthAdjust="spacing" textLength="8" x="713.75" y="1741.8356">si</text><text fill="#000000" font-family="sans-serif" font-size="11" lengthAdjust="spacing" textLength="127" x="646.25" y="1722.3447">Scheduler expropiativo?</text><polygon fill="#F1F1F1" points="709.75,2182.926,721.75,2194.926,709.75,2206.926,697.75,2194.926,709.75,2182.926" style="stroke:#181818;stroke-width:0.5;"/><rect fill="none" height="256.4444" style="stroke:#000000;stroke-width:1.5;" width="511" x="555.75" y="2228.926"/><path d="M760.75,2228.926 L760.75,2240.9939 L750.75,2250.9939 L555.75,2250.9939 " fill="none" style="stroke:#000000;stroke-width:1.5;"/><text fill="#000000" font-family="sans-serif" font-size="14" lengthAdjust="spacing" textLength="195" x="558.75" y="2244.8919">FASE 5: Generacion de Salida</text><path d="M796.75,2272.3129 L796.75,2282.166 L776.75,2286.166 L796.75,2290.166 L796.75,2300.019 A0,0 0 0 0 796.75,2300.019 L1056.75,2300.019 A0,0 0 0 0 1056.75,2300.019 L1056.75,2282.3129 L1046.75,2272.3129 L796.75,2272.3129 A0,0 0 0 0 796.75,2272.3129 " fill="#FEFFDD" style="stroke:#181818;stroke-width:0.5;"/><path d="M1046.75,2272.3129 L1046.75,2282.3129 L1056.75,2282.3129 L1046.75,2272.3129 " fill="#FEFFDD" style="stroke:#181818;stroke-width:0.5;"/><text fill="#000000" font-family="sans-serif" font-size="13" lengthAdjust="spacing" textLength="239" x="802.75" y="2291.21">{slices: TraceSlice[], events: TraceEvent[]}</text><rect fill="#F1F1F1" height="36.3441" rx="12.5" ry="12.5" style="stroke:#181818;stroke-width:0.5;" width="134" x="642.75" y="2267.9939"/><text fill="#000000" font-family="sans-serif" font-size="12" lengthAdjust="spacing" textLength="114" x="652.75" y="2290.822">Construir Trace final</text><rect fill="#F1F1F1" height="36.3441" rx="12.5" ry="12.5" style="stroke:#181818;stroke-width:0.5;" width="288" x="565.75" y="2324.338"/><text fill="#000000" font-family="sans-serif" font-size="12" lengthAdjust="spacing" textLength="268" x="575.75" y="2347.1661">metricas = MetricsBuilder.build(trace, procesos)</text><rect fill="#F1F1F1" height="36.3441" rx="12.5" ry="12.5" style="stroke:#181818;stroke-width:0.5;" width="200" x="609.75" y="2380.6821"/><text fill="#000000" font-family="sans-serif" font-size="12" lengthAdjust="spacing" textLength="180" x="619.75" y="2403.5102">gantt = GanttBuilder.build(trace)</text><rect fill="#F1F1F1" height="36.3441" rx="12.5" ry="12.5" style="stroke:#181818;stroke-width:0.5;" width="283" x="568.25" y="2437.0262"/><text fill="#000000" font-family="sans-serif" font-size="12" lengthAdjust="spacing" textLength="263" x="578.25" y="2459.8543">return SimulationResult {trace, metricas, gantt}</text><ellipse cx="709.75" cy="2516.3704" fill="none" rx="11" ry="11" style="stroke:#222222;stroke-width:1.0;"/><ellipse cx="709.75" cy="2516.3704" fill="#222222" rx="6" ry="6" style="stroke:#222222;stroke-width:1.0;"/><line style="stroke:#181818;stroke-width:1.0;" x1="709.75" x2="709.75" y1="155.4799" y2="175.4799"/><polygon fill="#181818" points="705.75,165.4799,709.75,175.4799,713.75,165.4799,709.75,169.4799" style="stroke:#181818;stroke-width:1.0;"/><line style="stroke:#181818;stroke-width:1.0;" x1="709.75" x2="709.75" y1="211.8241" y2="231.8241"/><polygon fill="#181818" points="705.75,221.8241,709.75,231.8241,713.75,221.8241,709.75,225.8241" style="stroke:#181818;stroke-width:1.0;"/><line style="stroke:#181818;stroke-width:1.0;" x1="709.75" x2="709.75" y1="268.1682" y2="288.1682"/><polygon fill="#181818" points="705.75,278.1682,709.75,288.1682,713.75,278.1682,709.75,282.1682" style="stroke:#181818;stroke-width:1.0;"/><line style="stroke:#181818;stroke-width:1.0;" x1="709.75" x2="709.75" y1="324.5123" y2="344.5123"/><polygon fill="#181818" points="705.75,334.5123,709.75,344.5123,713.75,334.5123,709.75,338.5123" style="stroke:#181818;stroke-width:1.0;"/><line style="stroke:#181818;stroke-width:1.0;" x1="709.75" x2="709.75" y1="380.8564" y2="400.8564"/><polygon fill="#181818" points="705.75,390.8564,709.75,400.8564,713.75,390.8564,709.75,394.8564" style="stroke:#181818;stroke-width:1.0;"/><line style="stroke:#181818;stroke-width:1.0;" x1="709.75" x2="709.75" y1="437.2005" y2="457.2005"/><polygon fill="#181818" points="705.75,447.2005,709.75,457.2005,713.75,447.2005,709.75,451.2005" style="stroke:#181818;stroke-width:1.0;"/><line style="stroke:#181818;stroke-width:1.0;" x1="709.75" x2="709.75" y1="493.5446" y2="513.5446"/><polygon fill="#181818" points="705.75,503.5446,709.75,513.5446,713.75,503.5446,709.75,507.5446" style="stroke:#181818;stroke-width:1.0;"/><line style="stroke:#181818;stroke-width:1.0;" x1="709.75" x2="709.75" y1="549.8887" y2="569.8887"/><polygon fill="#181818" points="705.75,559.8887,709.75,569.8887,713.75,559.8887,709.75,563.8887" style="stroke:#181818;stroke-width:1.0;"/><line style="stroke:#181818;stroke-width:1.0;" x1="709.75" x2="709.75" y1="70.0679" y2="119.1358"/><polygon fill="#181818" points="705.75,109.1358,709.75,119.1358,713.75,109.1358,709.75,113.1358" style="stroke:#181818;stroke-width:1.0;"/><line style="stroke:#181818;stroke-width:1.0;" x1="709.75" x2="709.75" y1="760.9038" y2="780.9038"/><polygon fill="#181818" points="705.75,770.9038,709.75,780.9038,713.75,770.9038,709.75,774.9038" style="stroke:#181818;stroke-width:1.0;"/><line style="stroke:#181818;stroke-width:1.0;" x1="709.75" x2="709.75" y1="817.2479" y2="837.2479"/><polygon fill="#181818" points="705.75,827.2479,709.75,837.2479,713.75,827.2479,709.75,831.2479" style="stroke:#181818;stroke-width:1.0;"/><line style="stroke:#181818;stroke-width:1.0;" x1="125.5" x2="125.5" y1="993.686" y2="1021.0411"/><polygon fill="#181818" points="121.5,1011.0411,125.5,1021.0411,129.5,1011.0411,125.5,1015.0411" style="stroke:#181818;stroke-width:1.0;"/><line style="stroke:#181818;stroke-width:1.0;" x1="362" x2="362" y1="993.686" y2="1021.0411"/><polygon fill="#181818" points="358,1011.0411,362,1021.0411,366,1011.0411,362,1015.0411" style="stroke:#181818;stroke-width:1.0;"/><line style="stroke:#181818;stroke-width:1.0;" x1="362" x2="362" y1="1057.3852" y2="1077.3852"/><polygon fill="#181818" points="358,1067.3852,362,1077.3852,366,1067.3852,362,1071.3852" style="stroke:#181818;stroke-width:1.0;"/><line style="stroke:#181818;stroke-width:1.0;" x1="362" x2="362" y1="1113.7293" y2="1133.7293"/><polygon fill="#181818" points="358,1123.7293,362,1133.7293,366,1123.7293,362,1127.7293" style="stroke:#181818;stroke-width:1.0;"/><line style="stroke:#181818;stroke-width:1.0;" x1="613" x2="613" y1="993.686" y2="1021.0411"/><polygon fill="#181818" points="609,1011.0411,613,1021.0411,617,1011.0411,613,1015.0411" style="stroke:#181818;stroke-width:1.0;"/><line style="stroke:#181818;stroke-width:1.0;" x1="613" x2="613" y1="1057.3852" y2="1077.3852"/><polygon fill="#181818" points="609,1067.3852,613,1077.3852,617,1067.3852,613,1071.3852" style="stroke:#181818;stroke-width:1.0;"/><line style="stroke:#181818;stroke-width:1.0;" x1="613" x2="613" y1="1113.7293" y2="1133.7293"/><polygon fill="#181818" points="609,1123.7293,613,1133.7293,617,1123.7293,613,1127.7293" style="stroke:#181818;stroke-width:1.0;"/><line style="stroke:#181818;stroke-width:1.0;" x1="830" x2="830" y1="993.686" y2="1021.0411"/><polygon fill="#181818" points="826,1011.0411,830,1021.0411,834,1011.0411,830,1015.0411" style="stroke:#181818;stroke-width:1.0;"/><line style="stroke:#181818;stroke-width:1.0;" x1="830" x2="830" y1="1057.3852" y2="1077.3852"/><polygon fill="#181818" points="826,1067.3852,830,1077.3852,834,1067.3852,830,1071.3852" style="stroke:#181818;stroke-width:1.0;"/><line style="stroke:#181818;stroke-width:1.0;" x1="1057" x2="1057" y1="993.686" y2="1021.0411"/><polygon fill="#181818" points="1053,1011.0411,1057,1021.0411,1061,1011.0411,1057,1015.0411" style="stroke:#181818;stroke-width:1.0;"/><line style="stroke:#181818;stroke-width:1.0;" x1="1057" x2="1057" y1="1057.3852" y2="1077.3852"/><polygon fill="#181818" points="1053,1067.3852,1057,1077.3852,1061,1067.3852,1057,1071.3852" style="stroke:#181818;stroke-width:1.0;"/><line style="stroke:#181818;stroke-width:1.0;" x1="1278.5" x2="1278.5" y1="993.686" y2="1021.0411"/><polygon fill="#181818" points="1274.5,1011.0411,1278.5,1021.0411,1282.5,1011.0411,1278.5,1015.0411" style="stroke:#181818;stroke-width:1.0;"/><line style="stroke:#181818;stroke-width:1.0;" x1="1278.5" x2="1278.5" y1="1057.3852" y2="1077.3852"/><polygon fill="#181818" points="1274.5,1067.3852,1278.5,1077.3852,1282.5,1067.3852,1278.5,1071.3852" style="stroke:#181818;stroke-width:1.0;"/><line style="stroke:#181818;stroke-width:1.0;" x1="670.25" x2="125.5" y1="905.592" y2="905.592"/><line style="stroke:#181818;stroke-width:1.0;" x1="125.5" x2="125.5" y1="905.592" y2="957.3419"/><polygon fill="#181818" points="121.5,947.3419,125.5,957.3419,129.5,947.3419,125.5,951.3419" style="stroke:#181818;stroke-width:1.0;"/><text fill="#000000" font-family="sans-serif" font-size="11" lengthAdjust="spacing" textLength="62" x="125.5" y="935.8419">N-&gt;L ADMIT</text><line style="stroke:#181818;stroke-width:1.0;" x1="749.25" x2="1278.5" y1="905.592" y2="905.592"/><line style="stroke:#181818;stroke-width:1.0;" x1="1278.5" x2="1278.5" y1="905.592" y2="957.3419"/><polygon fill="#181818" points="1274.5,947.3419,1278.5,957.3419,1282.5,947.3419,1278.5,951.3419" style="stroke:#181818;stroke-width:1.0;"/><text fill="#000000" font-family="sans-serif" font-size="11" lengthAdjust="spacing" textLength="112" x="1278.5" y="935.8419">C-&gt;L PREEMPT/TIMER</text><line style="stroke:#181818;stroke-width:1.0;" x1="362" x2="362" y1="905.592" y2="957.3419"/><polygon fill="#181818" points="358,947.3419,362,957.3419,366,947.3419,362,951.3419" style="stroke:#181818;stroke-width:1.0;"/><text fill="#000000" font-family="sans-serif" font-size="11" lengthAdjust="spacing" textLength="79" x="362" y="930.8419">L-&gt;C DISPATCH</text><line style="stroke:#181818;stroke-width:1.0;" x1="613" x2="613" y1="905.592" y2="957.3419"/><polygon fill="#181818" points="609,947.3419,613,957.3419,617,947.3419,613,951.3419" style="stroke:#181818;stroke-width:1.0;"/><text fill="#000000" font-family="sans-serif" font-size="11" lengthAdjust="spacing" textLength="63" x="613" y="930.8419">C-&gt;B BLOCK</text><line style="stroke:#181818;stroke-width:1.0;" x1="830" x2="830" y1="905.592" y2="957.3419"/><polygon fill="#181818" points="826,947.3419,830,957.3419,834,947.3419,830,951.3419" style="stroke:#181818;stroke-width:1.0;"/><text fill="#000000" font-family="sans-serif" font-size="11" lengthAdjust="spacing" textLength="67" x="830" y="930.8419">B-&gt;L IO_OUT</text><line style="stroke:#181818;stroke-width:1.0;" x1="1057" x2="1057" y1="905.592" y2="957.3419"/><polygon fill="#181818" points="1053,947.3419,1057,957.3419,1061,947.3419,1057,951.3419" style="stroke:#181818;stroke-width:1.0;"/><text fill="#000000" font-family="sans-serif" font-size="11" lengthAdjust="spacing" textLength="62" x="1057" y="930.8419">C-&gt;T FINISH</text><line style="stroke:#181818;stroke-width:1.0;" x1="125.5" x2="125.5" y1="1057.3852" y2="1192.0735"/><line style="stroke:#181818;stroke-width:1.0;" x1="125.5" x2="697.75" y1="1192.0735" y2="1192.0735"/><polygon fill="#181818" points="687.75,1188.0735,697.75,1192.0735,687.75,1196.0735,691.75,1192.0735" style="stroke:#181818;stroke-width:1.0;"/><line style="stroke:#181818;stroke-width:1.0;" x1="1278.5" x2="1278.5" y1="1113.7293" y2="1192.0735"/><line style="stroke:#181818;stroke-width:1.0;" x1="1278.5" x2="721.75" y1="1192.0735" y2="1192.0735"/><polygon fill="#181818" points="731.75,1188.0735,721.75,1192.0735,731.75,1196.0735,727.75,1192.0735" style="stroke:#181818;stroke-width:1.0;"/><line style="stroke:#181818;stroke-width:1.0;" x1="362" x2="362" y1="1170.0735" y2="1192.0735"/><polygon fill="#181818" points="358,1182.0735,362,1192.0735,366,1182.0735,362,1186.0735" style="stroke:#181818;stroke-width:1.0;"/><line style="stroke:#181818;stroke-width:1.0;" x1="613" x2="613" y1="1170.0735" y2="1192.0735"/><polygon fill="#181818" points="609,1182.0735,613,1192.0735,617,1182.0735,613,1186.0735" style="stroke:#181818;stroke-width:1.0;"/><line style="stroke:#181818;stroke-width:1.0;" x1="830" x2="830" y1="1113.7293" y2="1192.0735"/><polygon fill="#181818" points="826,1182.0735,830,1192.0735,834,1182.0735,830,1186.0735" style="stroke:#181818;stroke-width:1.0;"/><line style="stroke:#181818;stroke-width:1.0;" x1="1057" x2="1057" y1="1113.7293" y2="1192.0735"/><polygon fill="#181818" points="1053,1182.0735,1057,1192.0735,1061,1182.0735,1057,1186.0735" style="stroke:#181818;stroke-width:1.0;"/><line style="stroke:#181818;stroke-width:1.0;" x1="709.75" x2="709.75" y1="873.592" y2="893.592"/><polygon fill="#181818" points="705.75,883.592,709.75,893.592,713.75,883.592,709.75,887.592" style="stroke:#181818;stroke-width:1.0;"/><line style="stroke:#181818;stroke-width:1.0;" x1="709.75" x2="709.75" y1="691.3008" y2="724.5597"/><polygon fill="#181818" points="705.75,714.5597,709.75,724.5597,713.75,714.5597,709.75,718.5597" style="stroke:#181818;stroke-width:1.0;"/><line style="stroke:#181818;stroke-width:1.0;" x1="709.75" x2="709.75" y1="1204.0735" y2="1214.0735"/><line style="stroke:#181818;stroke-width:1.0;" x1="709.75" x2="1402.5" y1="1214.0735" y2="1214.0735"/><polygon fill="#181818" points="1398.5,1001.0411,1402.5,991.0411,1406.5,1001.0411,1402.5,997.0411" style="stroke:#181818;stroke-width:1.0;"/><line style="stroke:#181818;stroke-width:1.0;" x1="1402.5" x2="1402.5" y1="679.3008" y2="1214.0735"/><line style="stroke:#181818;stroke-width:1.0;" x1="1402.5" x2="779.25" y1="679.3008" y2="679.3008"/><polygon fill="#181818" points="789.25,675.3008,779.25,679.3008,789.25,683.3008,785.25,679.3008" style="stroke:#181818;stroke-width:1.0;"/><line style="stroke:#181818;stroke-width:1.0;" x1="640.25" x2="27" y1="679.3008" y2="679.3008"/><polygon fill="#181818" points="23,987.0411,27,997.0411,31,987.0411,27,991.0411" style="stroke:#181818;stroke-width:1.0;"/><line style="stroke:#181818;stroke-width:1.0;" x1="27" x2="27" y1="679.3008" y2="1226.0735"/><line style="stroke:#181818;stroke-width:1.0;" x1="27" x2="709.75" y1="1226.0735" y2="1226.0735"/><line style="stroke:#181818;stroke-width:1.0;" x1="709.75" x2="709.75" y1="1226.0735" y2="1287.1414"/><polygon fill="#181818" points="705.75,1277.1414,709.75,1287.1414,713.75,1277.1414,709.75,1281.1414" style="stroke:#181818;stroke-width:1.0;"/><line style="stroke:#181818;stroke-width:1.0;" x1="709.75" x2="709.75" y1="606.2329" y2="667.3008"/><polygon fill="#181818" points="705.75,657.3008,709.75,667.3008,713.75,657.3008,709.75,661.3008" style="stroke:#181818;stroke-width:1.0;"/><line style="stroke:#181818;stroke-width:1.0;" x1="709.75" x2="709.75" y1="1367.4855" y2="1387.4855"/><polygon fill="#181818" points="705.75,1377.4855,709.75,1387.4855,713.75,1377.4855,709.75,1381.4855" style="stroke:#181818;stroke-width:1.0;"/><line style="stroke:#181818;stroke-width:1.0;" x1="759.25" x2="781.25" y1="1355.4855" y2="1355.4855"/><polygon fill="#181818" points="771.25,1351.4855,781.25,1355.4855,771.25,1359.4855,775.25,1355.4855" style="stroke:#181818;stroke-width:1.0;"/><line style="stroke:#181818;stroke-width:1.0;" x1="709.75" x2="709.75" y1="1323.4855" y2="1343.4855"/><polygon fill="#181818" points="705.75,1333.4855,709.75,1343.4855,713.75,1333.4855,709.75,1337.4855" style="stroke:#181818;stroke-width:1.0;"/><line style="stroke:#181818;stroke-width:1.0;" x1="709.75" x2="709.75" y1="1529.6647" y2="1564.6647"/><polygon fill="#181818" points="705.75,1554.6647,709.75,1564.6647,713.75,1554.6647,709.75,1558.6647" style="stroke:#181818;stroke-width:1.0;"/><line style="stroke:#181818;stroke-width:1.0;" x1="709.75" x2="709.75" y1="1467.8296" y2="1493.3205"/><polygon fill="#181818" points="705.75,1483.3205,709.75,1493.3205,713.75,1483.3205,709.75,1487.3205" style="stroke:#181818;stroke-width:1.0;"/><line style="stroke:#181818;stroke-width:1.0;" x1="773.25" x2="813.25" y1="1455.8296" y2="1455.8296"/><polygon fill="#181818" points="809.25,1537.1647,813.25,1547.1647,817.25,1537.1647,813.25,1541.1647" style="stroke:#181818;stroke-width:1.0;"/><line style="stroke:#181818;stroke-width:1.0;" x1="813.25" x2="813.25" y1="1455.8296" y2="1633.0088"/><line style="stroke:#181818;stroke-width:1.0;" x1="813.25" x2="721.75" y1="1633.0088" y2="1633.0088"/><polygon fill="#181818" points="731.75,1629.0088,721.75,1633.0088,731.75,1637.0088,727.75,1633.0088" style="stroke:#181818;stroke-width:1.0;"/><line style="stroke:#181818;stroke-width:1.0;" x1="709.75" x2="709.75" y1="1601.0088" y2="1621.0088"/><polygon fill="#181818" points="705.75,1611.0088,709.75,1621.0088,713.75,1611.0088,709.75,1615.0088" style="stroke:#181818;stroke-width:1.0;"/><line style="stroke:#181818;stroke-width:1.0;" x1="709.75" x2="709.75" y1="1423.8296" y2="1443.8296"/><polygon fill="#181818" points="705.75,1433.8296,709.75,1443.8296,713.75,1433.8296,709.75,1437.8296" style="stroke:#181818;stroke-width:1.0;"/><line style="stroke:#181818;stroke-width:1.0;" x1="709.75" x2="709.75" y1="2003.5819" y2="2038.5819"/><polygon fill="#181818" points="705.75,2028.5819,709.75,2038.5819,713.75,2028.5819,709.75,2032.5819" style="stroke:#181818;stroke-width:1.0;"/><line style="stroke:#181818;stroke-width:1.0;" x1="709.75" x2="709.75" y1="1941.7468" y2="1967.2378"/><polygon fill="#181818" points="705.75,1957.2378,709.75,1967.2378,713.75,1957.2378,709.75,1961.2378" style="stroke:#181818;stroke-width:1.0;"/><line style="stroke:#181818;stroke-width:1.0;" x1="764.75" x2="814.25" y1="1929.7468" y2="1929.7468"/><polygon fill="#181818" points="810.25,2011.0819,814.25,2021.0819,818.25,2011.0819,814.25,2015.0819" style="stroke:#181818;stroke-width:1.0;"/><line style="stroke:#181818;stroke-width:1.0;" x1="814.25" x2="814.25" y1="1929.7468" y2="2106.926"/><line style="stroke:#181818;stroke-width:1.0;" x1="814.25" x2="721.75" y1="2106.926" y2="2106.926"/><polygon fill="#181818" points="731.75,2102.926,721.75,2106.926,731.75,2110.926,727.75,2106.926" style="stroke:#181818;stroke-width:1.0;"/><line style="stroke:#181818;stroke-width:1.0;" x1="709.75" x2="709.75" y1="2074.926" y2="2094.926"/><polygon fill="#181818" points="705.75,2084.926,709.75,2094.926,713.75,2084.926,709.75,2088.926" style="stroke:#181818;stroke-width:1.0;"/><line style="stroke:#181818;stroke-width:1.0;" x1="709.75" x2="709.75" y1="1897.7468" y2="1917.7468"/><polygon fill="#181818" points="705.75,1907.7468,709.75,1917.7468,713.75,1907.7468,709.75,1911.7468" style="stroke:#181818;stroke-width:1.0;"/><line style="stroke:#181818;stroke-width:1.0;" x1="709.75" x2="709.75" y1="1835.9118" y2="1861.4027"/><polygon fill="#181818" points="705.75,1851.4027,709.75,1861.4027,713.75,1851.4027,709.75,1855.4027" style="stroke:#181818;stroke-width:1.0;"/><line style="stroke:#181818;stroke-width:1.0;" x1="759.25" x2="878.25" y1="1823.9118" y2="1823.9118"/><polygon fill="#181818" points="874.25,1975.4098,878.25,1985.4098,882.25,1975.4098,878.25,1979.4098" style="stroke:#181818;stroke-width:1.0;"/><line style="stroke:#181818;stroke-width:1.0;" x1="878.25" x2="878.25" y1="1823.9118" y2="2150.926"/><line style="stroke:#181818;stroke-width:1.0;" x1="878.25" x2="721.75" y1="2150.926" y2="2150.926"/><polygon fill="#181818" points="731.75,2146.926,721.75,2150.926,731.75,2154.926,727.75,2150.926" style="stroke:#181818;stroke-width:1.0;"/><line style="stroke:#181818;stroke-width:1.0;" x1="709.75" x2="709.75" y1="2118.926" y2="2138.926"/><polygon fill="#181818" points="705.75,2128.926,709.75,2138.926,713.75,2128.926,709.75,2132.926" style="stroke:#181818;stroke-width:1.0;"/><line style="stroke:#181818;stroke-width:1.0;" x1="709.75" x2="709.75" y1="1791.9118" y2="1811.9118"/><polygon fill="#181818" points="705.75,1801.9118,709.75,1811.9118,713.75,1801.9118,709.75,1805.9118" style="stroke:#181818;stroke-width:1.0;"/><line style="stroke:#181818;stroke-width:1.0;" x1="709.75" x2="709.75" y1="1730.0767" y2="1755.5676"/><polygon fill="#181818" points="705.75,1745.5676,709.75,1755.5676,713.75,1745.5676,709.75,1749.5676" style="stroke:#181818;stroke-width:1.0;"/><line style="stroke:#181818;stroke-width:1.0;" x1="785.25" x2="900.25" y1="1718.0767" y2="1718.0767"/><polygon fill="#181818" points="896.25,1939.7378,900.25,1949.7378,904.25,1939.7378,900.25,1943.7378" style="stroke:#181818;stroke-width:1.0;"/><line style="stroke:#181818;stroke-width:1.0;" x1="900.25" x2="900.25" y1="1718.0767" y2="2194.926"/><line style="stroke:#181818;stroke-width:1.0;" x1="900.25" x2="721.75" y1="2194.926" y2="2194.926"/><polygon fill="#181818" points="731.75,2190.926,721.75,2194.926,731.75,2198.926,727.75,2194.926" style="stroke:#181818;stroke-width:1.0;"/><line style="stroke:#181818;stroke-width:1.0;" x1="709.75" x2="709.75" y1="2162.926" y2="2182.926"/><polygon fill="#181818" points="705.75,2172.926,709.75,2182.926,713.75,2172.926,709.75,2176.926" style="stroke:#181818;stroke-width:1.0;"/><line style="stroke:#181818;stroke-width:1.0;" x1="709.75" x2="709.75" y1="1645.0088" y2="1706.0767"/><polygon fill="#181818" points="705.75,1696.0767,709.75,1706.0767,713.75,1696.0767,709.75,1700.0767" style="stroke:#181818;stroke-width:1.0;"/><line style="stroke:#181818;stroke-width:1.0;" x1="709.75" x2="709.75" y1="2304.338" y2="2324.338"/><polygon fill="#181818" points="705.75,2314.338,709.75,2324.338,713.75,2314.338,709.75,2318.338" style="stroke:#181818;stroke-width:1.0;"/><line style="stroke:#181818;stroke-width:1.0;" x1="709.75" x2="709.75" y1="2360.6821" y2="2380.6821"/><polygon fill="#181818" points="705.75,2370.6821,709.75,2380.6821,713.75,2370.6821,709.75,2374.6821" style="stroke:#181818;stroke-width:1.0;"/><line style="stroke:#181818;stroke-width:1.0;" x1="709.75" x2="709.75" y1="2417.0262" y2="2437.0262"/><polygon fill="#181818" points="705.75,2427.0262,709.75,2437.0262,713.75,2427.0262,709.75,2431.0262" style="stroke:#181818;stroke-width:1.0;"/><line style="stroke:#181818;stroke-width:1.0;" x1="709.75" x2="709.75" y1="2206.926" y2="2267.9939"/><polygon fill="#181818" points="705.75,2257.9939,709.75,2267.9939,713.75,2257.9939,709.75,2261.9939" style="stroke:#181818;stroke-width:1.0;"/><line style="stroke:#181818;stroke-width:1.0;" x1="709.75" x2="709.75" y1="2473.3704" y2="2505.3704"/><polygon fill="#181818" points="705.75,2495.3704,709.75,2505.3704,713.75,2495.3704,709.75,2499.3704" style="stroke:#181818;stroke-width:1.0;"/><!--SRC=[fLRRRkCs47ttLmpsIKOT5xszs6XQHx5tXTg9QYa5YY0e66eiCqkJMf9oaWRvzmufMROtBXRTlaWKDPpBcJCpTC99X9ci7pGK2DC7v3KNMj67X4niQiaARU0CfbjK3kPQLt29Zac_t-jPnuphzIfw2kUFlPjDiYbyDu942IwO57yph-uTlFG0HalaubuOI8tcQBMzlODlMYl-TApLIfHZB_a77IsO0J9gMC7W6RZKYZQgzYWvk49bnPPjI0R3eTWWIN1j7Vt_kLtCZDxS915VbSDcenzafn9ByiJKIg4XuHBTCgo3PAKbnSDPa5NQ8HXHhjq8Pl4i6y1oEO0ilQB7CgTdkaokbqd-9ydktGY0_LvZZH1jX3fR8wlw1swIDISs20jMGOG4PA6Xqbs0Xw9nUWEPO-J5IoMA4QXQoW5OAJXcFW7Dpkl1YOoliQWbHMQnh1NiuXctBb82IiCs7c3l9i5rTNO-XsXokKZoFeWcUMW_3zyHKgs3GsQCkDUKm3n9UwzlIV3zw90qgH6AYuh9XWgFQq6yYmv0KXgsn1Ns2vct45dH9p5oDJX8Ph4JfUnKKS3dsBbhKw0QGUHWaiK3ybDe8znpysNnaryqIXlD4-xgm53YJ6qCgSy5_xWpDNJZLgmqM7P80GDY9CTX-BJZlJxxA1nVKowRqyyLDiOuinHfmBU1D-oIOhjBqb2hIR4HBgBijd7HxuHehIYzn7HRCRvc9XDpSMymwcGEzC_FpcEuJB9qaiSVEXCJAqhLCeZ9NUew4xogXsJJ9rKKO_2VUrRHhlFPZTDEFcQIKwqQS08tLIX2M0dLbNad-9PVgzhLXjvHV7QU3u2U5mF8gG3CgMZyRxYONyU_TQ74Q0pf2_u12waRdqBoGch-yHZ9lJSNFWk_XhZkfVvKevvcNmbuK9LS_tLziy_ePCkKfnFpI3-93GF3Lgna7l-JpYwH5S__9-qUJPWbLqdsuJHI8JqdRS-eoktws7XkcFTVRz5GloeWdwLW1NLIAWzRQLNWQH_cr0EdqqMQVvidY-doFoVj4YsJ-a4t9VbrWA0gcXBiXNNROPJkdsfEFuneZ0LrOUxj1b8xfrQrugwPWf-PTC6cM57KL5AQrnLD9sfPRergtxHep5ID5sBLTbo5JouDfRQFs-z5dSATH24yqk9UuXkz1qmEzKvCRflKWXdkfwCtgSfBKi48YKaeud7doWaWVXm1ZLrdj0pp_uc8Muc3cUqzsqyJRFyxiTLllUjWS-OvDKWjmYMhAyG2YyWDV8-vmiSsQL-2q1DahMjPj8gEWEDwGt7WJ9lsBndTiy6hFZfxGlaHbe70KTK8z_UeVed2k_pkL_yAyqyZU8zqks3jvGgoSC5f-KOPiCxKT1_9_MpP5-tXU7i9BjXH8vFvZzkxGTDWTxjXdjxUlRQasw0pDFNzPMWHblQY5h8W1E_zEmgJRD3TgPexHycKyt2_z-yJyltT9S8WjNHrS7zRegsbWvTMxSxw089Akf-y-XiZbSO_]--></g></svg>