<?xml version="1.0" encoding="us-ascii" standalone="no"?><svg xmlns="http://www.w3.org/2000/svg" xmlns:xlink="http://www.w3.org/1999/xlink" contentStyleType="text/css" height="1147px" preserveAspectRatio="none" style="width:1162px;height:1147px;background:#FFFFFF;" version="1.1" viewBox="0 0 1162 1147" width="1162px" zoomAndPan="magnify"><defs/><g><text fill="#000000" font-family="sans-serif" font-size="14" font-weight="bold" lengthAdjust="spacing" textLength="239" x="457.75" y="29.9659">Secuencia UI &#8212; Simular y Exportar</text><line style="stroke:#181818;stroke-width:0.5;stroke-dasharray:5.0,5.0;" x1="34" x2="34" y1="124.1358" y2="1063.9043"/><line style="stroke:#181818;stroke-width:0.5;stroke-dasharray:5.0,5.0;" x1="278.5" x2="278.5" y1="124.1358" y2="1063.9043"/><line style="stroke:#181818;stroke-width:0.5;stroke-dasharray:5.0,5.0;" x1="422.5" x2="422.5" y1="124.1358" y2="1063.9043"/><line style="stroke:#181818;stroke-width:0.5;stroke-dasharray:5.0,5.0;" x1="786" x2="786" y1="124.1358" y2="1063.9043"/><line style="stroke:#181818;stroke-width:0.5;stroke-dasharray:5.0,5.0;" x1="1083.5" x2="1083.5" y1="124.1358" y2="1063.9043"/><text fill="#000000" font-family="sans-serif" font-size="14" lengthAdjust="spacing" textLength="52" x="5" y="120.0339">Usuario</text><ellipse cx="34" cy="53.5679" fill="#E2E2F0" rx="8" ry="8" style="stroke:#181818;stroke-width:0.5;"/><path d="M34,61.5679 L34,88.5679 M21,69.5679 L47,69.5679 M34,88.5679 L21,103.5679 M34,88.5679 L47,103.5679 " fill="none" style="stroke:#181818;stroke-width:0.5;"/><text fill="#000000" font-family="sans-serif" font-size="14" lengthAdjust="spacing" textLength="52" x="5" y="1077.8702">Usuario</text><ellipse cx="34" cy="1090.4722" fill="#E2E2F0" rx="8" ry="8" style="stroke:#181818;stroke-width:0.5;"/><path d="M34,1098.4722 L34,1125.4722 M21,1106.4722 L47,1106.4722 M34,1125.4722 L21,1140.4722 M34,1125.4722 L47,1140.4722 " fill="none" style="stroke:#181818;stroke-width:0.5;"/><rect fill="#E2E2F0" height="33.0679" rx="2.5" ry="2.5" style="stroke:#181818;stroke-width:0.5;" width="135" x="211.5" y="90.0679"/><text fill="#000000" font-family="sans-serif" font-size="14" lengthAdjust="spacing" textLength="121" x="218.5" y="112.0339">routes/simulacion</text><rect fill="#E2E2F0" height="33.0679" rx="2.5" ry="2.5" style="stroke:#181818;stroke-width:0.5;" width="135" x="211.5" y="1062.9043"/><text fill="#000000" font-family="sans-serif" font-size="14" lengthAdjust="spacing" textLength="121" x="218.5" y="1084.8702">routes/simulacion</text><rect fill="#E2E2F0" height="33.0679" rx="2.5" ry="2.5" style="stroke:#181818;stroke-width:0.5;" width="133" x="356.5" y="90.0679"/><text fill="#000000" font-family="sans-serif" font-size="14" lengthAdjust="spacing" textLength="119" x="363.5" y="112.0339">stores/simulacion</text><rect fill="#E2E2F0" height="33.0679" rx="2.5" ry="2.5" style="stroke:#181818;stroke-width:0.5;" width="133" x="356.5" y="1062.9043"/><text fill="#000000" font-family="sans-serif" font-size="14" lengthAdjust="spacing" textLength="119" x="363.5" y="1084.8702">stores/simulacion</text><rect fill="#E2E2F0" height="33.0679" rx="2.5" ry="2.5" style="stroke:#181818;stroke-width:0.5;" width="74" x="749" y="90.0679"/><text fill="#000000" font-family="sans-serif" font-size="14" lengthAdjust="spacing" textLength="60" x="756" y="112.0339">io/export</text><rect fill="#E2E2F0" height="33.0679" rx="2.5" ry="2.5" style="stroke:#181818;stroke-width:0.5;" width="74" x="749" y="1062.9043"/><text fill="#000000" font-family="sans-serif" font-size="14" lengthAdjust="spacing" textLength="60" x="756" y="1084.8702">io/export</text><rect fill="#E2E2F0" height="33.0679" rx="2.5" ry="2.5" style="stroke:#181818;stroke-width:0.5;" width="133" x="1017.5" y="90.0679"/><text fill="#000000" font-family="sans-serif" font-size="14" lengthAdjust="spacing" textLength="119" x="1024.5" y="112.0339">routes/resultados</text><rect fill="#E2E2F0" height="33.0679" rx="2.5" ry="2.5" style="stroke:#181818;stroke-width:0.5;" width="133" x="1017.5" y="1062.9043"/><text fill="#000000" font-family="sans-serif" font-size="14" lengthAdjust="spacing" textLength="119" x="1024.5" y="1084.8702">routes/resultados</text><rect fill="#EEEEEE" height="3" style="stroke:#EEEEEE;stroke-width:1.0;" width="1155.5" x="0" y="155.9888"/><line style="stroke:#000000;stroke-width:1.0;" x1="0" x2="1155.5" y1="155.9888" y2="155.9888"/><line style="stroke:#000000;stroke-width:1.0;" x1="0" x2="1155.5" y1="158.9888" y2="158.9888"/><rect fill="#EEEEEE" height="25.706" style="stroke:#000000;stroke-width:2.0;" width="152" x="501.75" y="144.1358"/><text fill="#000000" font-family="sans-serif" font-size="13" font-weight="bold" lengthAdjust="spacing" textLength="135" x="507.75" y="162.0328">Configurar y Simular</text><polygon fill="#181818" points="267,199.5479,277,203.5479,267,207.5479,271,203.5479" style="stroke:#181818;stroke-width:1.0;"/><line style="stroke:#181818;stroke-width:1.0;" x1="34" x2="273" y1="203.5479" y2="203.5479"/><text fill="#000000" font-family="sans-serif" font-size="13" lengthAdjust="spacing" textLength="221" x="41" y="197.7389">Configurar pol&#237;ticas, costos, procesos</text><polygon fill="#181818" points="267,231.2539,277,235.2539,267,239.2539,271,235.2539" style="stroke:#181818;stroke-width:1.0;"/><line style="stroke:#181818;stroke-width:1.0;" x1="34" x2="273" y1="235.2539" y2="235.2539"/><text fill="#000000" font-family="sans-serif" font-size="13" lengthAdjust="spacing" textLength="156" x="41" y="229.4449">Click "Ejecutar Simulaci&#243;n"</text><polygon fill="#181818" points="411,262.9599,421,266.9599,411,270.9599,415,266.9599" style="stroke:#181818;stroke-width:1.0;"/><line style="stroke:#181818;stroke-width:1.0;" x1="279" x2="417" y1="266.9599" y2="266.9599"/><text fill="#000000" font-family="sans-serif" font-size="13" lengthAdjust="spacing" textLength="119" x="286" y="261.1509">executeSimulation()</text><line style="stroke:#181818;stroke-width:1.0;" x1="423" x2="465" y1="316.3719" y2="316.3719"/><line style="stroke:#181818;stroke-width:1.0;" x1="465" x2="465" y1="316.3719" y2="329.3719"/><line style="stroke:#181818;stroke-width:1.0;" x1="424" x2="465" y1="329.3719" y2="329.3719"/><polygon fill="#181818" points="434,325.3719,424,329.3719,434,333.3719,430,329.3719" style="stroke:#181818;stroke-width:1.0;"/><text fill="#000000" font-family="sans-serif" font-size="13" lengthAdjust="spacing" textLength="171" x="430" y="292.8569">runSimulation(cfg, procesos)</text><text fill="#000000" font-family="sans-serif" font-size="13" lengthAdjust="spacing" textLength="149" x="430" y="310.5629">&#8594; {trace, metricas, gantt}</text><polygon fill="#181818" points="1072,357.0779,1082,361.0779,1072,365.0779,1076,361.0779" style="stroke:#181818;stroke-width:1.0;"/><line style="stroke:#181818;stroke-width:1.0;" x1="423" x2="1078" y1="361.0779" y2="361.0779"/><text fill="#000000" font-family="sans-serif" font-size="13" lengthAdjust="spacing" textLength="121" x="430" y="355.2689">set simulationResult</text><polygon fill="#181818" points="1072,388.784,1082,392.784,1072,396.784,1076,392.784" style="stroke:#181818;stroke-width:1.0;"/><line style="stroke:#181818;stroke-width:1.0;" x1="279" x2="1078" y1="392.784" y2="392.784"/><text fill="#000000" font-family="sans-serif" font-size="13" lengthAdjust="spacing" textLength="111" x="286" y="386.975">goto('/resultados')</text><rect fill="#EEEEEE" height="3" style="stroke:#EEEEEE;stroke-width:1.0;" width="1155.5" x="0" y="422.637"/><line style="stroke:#000000;stroke-width:1.0;" x1="0" x2="1155.5" y1="422.637" y2="422.637"/><line style="stroke:#000000;stroke-width:1.0;" x1="0" x2="1155.5" y1="425.637" y2="425.637"/><rect fill="#EEEEEE" height="25.706" style="stroke:#000000;stroke-width:2.0;" width="155" x="500.25" y="410.784"/><text fill="#000000" font-family="sans-serif" font-size="13" font-weight="bold" lengthAdjust="spacing" textLength="138" x="506.25" y="428.681">Visualizar Resultados</text><polygon fill="#181818" points="1072,466.196,1082,470.196,1072,474.196,1076,470.196" style="stroke:#181818;stroke-width:1.0;"/><line style="stroke:#181818;stroke-width:1.0;" x1="34" x2="1078" y1="470.196" y2="470.196"/><text fill="#000000" font-family="sans-serif" font-size="13" lengthAdjust="spacing" textLength="157" x="41" y="464.387">Ver Gantt, m&#233;tricas y trace</text><path d="M1029,483.196 L1029,563.196 L1138,563.196 L1138,493.196 L1128,483.196 L1029,483.196 " fill="#FEFFDD" style="stroke:#181818;stroke-width:0.5;"/><path d="M1128,483.196 L1128,493.196 L1138,493.196 L1128,483.196 " fill="#FEFFDD" style="stroke:#181818;stroke-width:0.5;"/><text fill="#000000" font-family="sans-serif" font-size="13" lengthAdjust="spacing" textLength="88" x="1035" y="502.093">Componentes:</text><text fill="#000000" font-family="sans-serif" font-size="13" lengthAdjust="spacing" textLength="69" x="1035" y="519.799">- GanttView</text><text fill="#000000" font-family="sans-serif" font-size="13" lengthAdjust="spacing" textLength="83" x="1035" y="537.505">- MetricsTable</text><text fill="#000000" font-family="sans-serif" font-size="13" lengthAdjust="spacing" textLength="79" x="1035" y="555.2111">- TraceViewer</text><rect fill="#EEEEEE" height="3" style="stroke:#EEEEEE;stroke-width:1.0;" width="1155.5" x="0" y="590.8731"/><line style="stroke:#000000;stroke-width:1.0;" x1="0" x2="1155.5" y1="590.8731" y2="590.8731"/><line style="stroke:#000000;stroke-width:1.0;" x1="0" x2="1155.5" y1="593.8731" y2="593.8731"/><rect fill="#EEEEEE" height="25.706" style="stroke:#000000;stroke-width:2.0;" width="149" x="503.25" y="579.0201"/><text fill="#000000" font-family="sans-serif" font-size="13" font-weight="bold" lengthAdjust="spacing" textLength="132" x="509.25" y="596.9171">Exportar Resultados</text><polygon fill="#181818" points="1072,634.4321,1082,638.4321,1072,642.4321,1076,638.4321" style="stroke:#181818;stroke-width:1.0;"/><line style="stroke:#181818;stroke-width:1.0;" x1="34" x2="1078" y1="638.4321" y2="638.4321"/><text fill="#000000" font-family="sans-serif" font-size="13" lengthAdjust="spacing" textLength="188" x="41" y="632.6231">Click "Exportar JSON Completo"</text><polygon fill="#181818" points="434,666.1381,424,670.1381,434,674.1381,430,670.1381" style="stroke:#181818;stroke-width:1.0;"/><line style="stroke:#181818;stroke-width:1.0;" x1="428" x2="1083" y1="670.1381" y2="670.1381"/><text fill="#000000" font-family="sans-serif" font-size="13" lengthAdjust="spacing" textLength="139" x="440" y="664.3291">exportResultadoJSON()</text><polygon fill="#181818" points="774,697.8441,784,701.8441,774,705.8441,778,701.8441" style="stroke:#181818;stroke-width:1.0;"/><line style="stroke:#181818;stroke-width:1.0;" x1="423" x2="780" y1="701.8441" y2="701.8441"/><text fill="#000000" font-family="sans-serif" font-size="13" lengthAdjust="spacing" textLength="339" x="430" y="696.0351">buildResultadoJSON(cfg, procesos, trace, metricas, gantt)</text><line style="stroke:#181818;stroke-width:1.0;" x1="786" x2="828" y1="733.5501" y2="733.5501"/><line style="stroke:#181818;stroke-width:1.0;" x1="828" x2="828" y1="733.5501" y2="746.5501"/><line style="stroke:#181818;stroke-width:1.0;" x1="787" x2="828" y1="746.5501" y2="746.5501"/><polygon fill="#181818" points="797,742.5501,787,746.5501,797,750.5501,793,746.5501" style="stroke:#181818;stroke-width:1.0;"/><text fill="#000000" font-family="sans-serif" font-size="13" lengthAdjust="spacing" textLength="284" x="793" y="727.7411">downloadJSON('resultado-simulacion', payload)</text><polygon fill="#181818" points="1072,774.2562,1082,778.2562,1072,782.2562,1076,778.2562" style="stroke:#181818;stroke-width:1.0;"/><line style="stroke:#181818;stroke-width:1.0;" x1="34" x2="1078" y1="778.2562" y2="778.2562"/><text fill="#000000" font-family="sans-serif" font-size="13" lengthAdjust="spacing" textLength="172" x="41" y="772.4472">Click "Exportar M&#233;tricas CSV"</text><polygon fill="#181818" points="434,805.9622,424,809.9622,434,813.9622,430,809.9622" style="stroke:#181818;stroke-width:1.0;"/><line style="stroke:#181818;stroke-width:1.0;" x1="428" x2="1083" y1="809.9622" y2="809.9622"/><text fill="#000000" font-family="sans-serif" font-size="13" lengthAdjust="spacing" textLength="122" x="440" y="804.1532">exportMetricasCSV()</text><polygon fill="#181818" points="774,837.6682,784,841.6682,774,845.6682,778,841.6682" style="stroke:#181818;stroke-width:1.0;"/><line style="stroke:#181818;stroke-width:1.0;" x1="423" x2="780" y1="841.6682" y2="841.6682"/><text fill="#000000" font-family="sans-serif" font-size="13" lengthAdjust="spacing" textLength="338" x="430" y="835.8592">exportMetricsToCSV(metricas.porProceso, 'metricas.csv')</text><polygon fill="#181818" points="1072,869.3742,1082,873.3742,1072,877.3742,1076,873.3742" style="stroke:#181818;stroke-width:1.0;"/><line style="stroke:#181818;stroke-width:1.0;" x1="34" x2="1078" y1="873.3742" y2="873.3742"/><text fill="#000000" font-family="sans-serif" font-size="13" lengthAdjust="spacing" textLength="153" x="41" y="867.5652">Click "Exportar Trace CSV"</text><polygon fill="#181818" points="434,901.0802,424,905.0802,434,909.0802,430,905.0802" style="stroke:#181818;stroke-width:1.0;"/><line style="stroke:#181818;stroke-width:1.0;" x1="428" x2="1083" y1="905.0802" y2="905.0802"/><text fill="#000000" font-family="sans-serif" font-size="13" lengthAdjust="spacing" textLength="103" x="440" y="899.2712">exportTraceCSV()</text><polygon fill="#181818" points="774,932.7862,784,936.7862,774,940.7862,778,936.7862" style="stroke:#181818;stroke-width:1.0;"/><line style="stroke:#181818;stroke-width:1.0;" x1="423" x2="780" y1="936.7862" y2="936.7862"/><text fill="#000000" font-family="sans-serif" font-size="13" lengthAdjust="spacing" textLength="212" x="430" y="930.9772">exportTraceToCSV(trace, 'trace.csv')</text><rect fill="#EEEEEE" height="3" style="stroke:#EEEEEE;stroke-width:1.0;" width="1155.5" x="0" y="966.6393"/><line style="stroke:#000000;stroke-width:1.0;" x1="0" x2="1155.5" y1="966.6393" y2="966.6393"/><line style="stroke:#000000;stroke-width:1.0;" x1="0" x2="1155.5" y1="969.6393" y2="969.6393"/><rect fill="#EEEEEE" height="25.706" style="stroke:#000000;stroke-width:2.0;" width="123" x="516.25" y="954.7862"/><text fill="#000000" font-family="sans-serif" font-size="13" font-weight="bold" lengthAdjust="spacing" textLength="106" x="522.25" y="972.6833">Volver a Simular</text><polygon fill="#181818" points="1072,1010.1983,1082,1014.1983,1072,1018.1983,1076,1014.1983" style="stroke:#181818;stroke-width:1.0;"/><line style="stroke:#181818;stroke-width:1.0;" x1="34" x2="1078" y1="1014.1983" y2="1014.1983"/><text fill="#000000" font-family="sans-serif" font-size="13" lengthAdjust="spacing" textLength="169" x="41" y="1008.3893">Click "&#8592; Volver a Simulaci&#243;n"</text><polygon fill="#181818" points="290,1041.9043,280,1045.9043,290,1049.9043,286,1045.9043" style="stroke:#181818;stroke-width:1.0;"/><line style="stroke:#181818;stroke-width:1.0;" x1="284" x2="1083" y1="1045.9043" y2="1045.9043"/><text fill="#000000" font-family="sans-serif" font-size="13" lengthAdjust="spacing" textLength="112" x="296" y="1040.0953">goto('/simulacion')</text><!--SRC=[ZPE_Rjim4CPtFiL1YoB0JlO0xX84HGkuBMp7KnU6OWmsD4yWgVnfKQ1JvgBeItJer4Vmc_X9SYGbMGgKf9CWyiVllk-EzCfh2KifQcc4ud3n3lO_ViDIRMlDBTp3-Ls5rdFB61SUBLoucbk5hEBMAw4gRZna5ciltOcBfuH2am5tGMI8EH8OmSBg45Hu8cFT22GBenL9hjQUb-WYkP2EiTaCpj1SgKrjOu8sosp66lCmVHDMuRGFLgXtVwa0TnCGI5RfMraKqg4REQYLk8Ri_0jrZhhJ515gzyzaB2213C68bNS1aWdn5FkeO6cl1zdQz01njJbKBpwR_SCl-EOj5t82M-bjihcXLlZl1osAJqfEUd2Tr29sgBMKY0rwFCfxpSkBsBQrefXQVQKyYsxlIT-ImbfQU1kgavtTd-I7MXqTCeDU0jx8gCA0chojq4X30pkbtsawkLRoDlxDOnwtufTq4-FAAiY4VMcPD2K4mMYmlOolsMkdq-Blbny_H1jQUinOW0Rp2LWd6U3-X98ASPUrqkKG6ynf0kCJAbWZqHShyTPev6MKoRjHJ0-F8oTbVXyOciwh4UVT6CwMwsSYpXjVH8m6x5DkXG5henpJpgUKSm9vjohSJVu_xk94Nt0Mzr-s5P5agcbp7h-jXt1_KOTRnvzvyWDh-uUVJ_dczRO6upjldaflAiKZ]--></g></svg>